<?xml version="1.0" standalone="no"?>
<!DOCTYPE svg PUBLIC "-//W3C//DTD SVG 1.1//EN" "http://www.w3.org/Graphics/SVG/1.1/DTD/svg11.dtd" >
<svg>
<metadata>
Created by FontForge 20090914 at Sun Mar 18 15:52:13 2012
 By www-data
Copyright (c) 2011 JM Sole (info@jmsole.cl), with Reserved Font Name "Noticia Text".
</metadata>
<defs>
<font id="NoticiaText-Regular" horiz-adv-x="550" >
  <font-face 
    font-family="Noticia Text"
    font-weight="400"
    font-stretch="normal"
    units-per-em="2048"
    panose-1="2 0 5 3 6 0 0 2 0 4"
    ascent="1638"
    descent="-410"
    x-height="1085"
    cap-height="1353"
    bbox="-1015 -593 2495 2167"
    underline-thickness="51"
    underline-position="-52"
    unicode-range="U+0020-U+FB02"
  />
<missing-glyph horiz-adv-x="1601" 
d="M180 1540h1241v-1975h-1241v1975zM877 552l398 -838v1677zM723 552l-397 839v-1677zM800 390l-329 -696h659zM800 715l330 696h-659z" />
    <glyph glyph-name=".notdef" horiz-adv-x="1601" 
d="M180 1540h1241v-1975h-1241v1975zM877 552l398 -838v1677zM723 552l-397 839v-1677zM800 390l-329 -696h659zM800 715l330 696h-659z" />
    <glyph glyph-name="space" unicode=" " 
 />
    <glyph glyph-name="exclam" unicode="!" horiz-adv-x="592" 
d="M180 79c0 22.667 2.66504 44.5 7.99805 65.5s12.5 39.333 21.5 55s19.667 28.167 32 37.5s25.5 14 39.5 14c24 0 46.333 -2.66699 67 -8s38.834 -12.833 54.501 -22.5s27.834 -20.667 36.501 -33s13 -25.5 13 -39.5c0 -22.667 -2.66699 -44.167 -8 -64.5
s-12.5 -38.333 -21.5 -54s-19.833 -28.167 -32.5 -37.5s-26 -14 -40 -14c-24 0 -46.333 2.66699 -67 8s-38.667 12.5 -54 21.5s-27.333 19.667 -36 32s-13 25.5 -13 39.5zM212.998 1540l197 22l20 -22l-38 -1170h-141z" />
    <glyph glyph-name="quotedbl" unicode="&#x22;" horiz-adv-x="604" 
d="M70 1540h186v-42l-63 -341h-123v383zM328 1540h186v-42l-63 -341h-123v383z" />
    <glyph glyph-name="numbersign" unicode="#" horiz-adv-x="1317" 
d="M753 306h-286l-43 -306h-155v20l40 286h-219v137h239l66 466h-239v137h258l44 307h155v-20l-41 -287h286l44 307h155v-20l-41 -287h211v-137h-230l-66 -466h230v-137h-250l-43 -306h-155v20zM487 443h286l66 466h-286z" />
    <glyph glyph-name="dollar" unicode="$" horiz-adv-x="1100" 
d="M622 762c125.333 -73.333 216.83 -140.499 274.497 -201.499s86.5 -132.833 86.5 -215.5c0 -110 -43 -198.667 -129 -266c-64 -50.667 -144.333 -82 -241 -94v-211h-125v204c-71.333 1.33301 -137 7.66602 -197 18.999c-66 12 -118.667 26.667 -158 44l-21 259l117 25
l82 -194c24.667 -7.33301 52 -13.333 82 -18c28.667 -4 60.334 -6 95.001 -6v515c-3.33301 2 -6.33301 4 -9 6c-169.333 100 -272.833 177.333 -310.5 232s-56.5 114.334 -56.5 179.001c0 97.333 41.667 177.666 125 240.999c64.667 48.667 148.334 78.667 251.001 90v192
h125v-187c46 -1.33301 92.333 -5.33301 139 -12c56.667 -8 111.334 -21.333 164.001 -40l21 -270l-105 -22l-82 193c-27.333 7.33301 -55.333 12.666 -84 15.999c-17.333 2.66699 -35 4.33398 -53 5.00098v-478c2.66699 -1.33301 5.66699 -3 9 -5zM636.997 117.001
c45.333 6.66699 87.332 15.999 125.999 27.999c6.66699 16.667 13.334 38.834 20.001 66.501s10 60.5 10 98.5c0 42 -19.667 85.667 -59 131c-24 28 -64.333 61.667 -121 101v-429zM433.996 1235c-44.667 -7.33301 -82.333 -16.333 -113 -27
c-6 -20 -10.667 -41.167 -14 -63.5s-5 -45.833 -5 -70.5c0 -47.333 19.667 -91 59 -131c24.667 -24 67 -56.333 127 -97v396c-18.667 -2 -36.667 -4.33301 -54 -7z" />
    <glyph glyph-name="percent" unicode="%" horiz-adv-x="1683" 
d="M1220 1353h175v-20l-966 -1333h-175v20zM108 1074c0 41.333 7.83301 80.333 23.5 117s37.167 68.667 64.5 96s59.166 48.833 95.499 64.5s75.5 23.5 117.5 23.5c41.333 0 80.333 -7.83301 117 -23.5s68.667 -37.167 96 -64.5s48.833 -59.333 64.5 -96
s23.5 -75.667 23.5 -117c0 -42 -7.83301 -81.167 -23.5 -117.5s-37.167 -68.166 -64.5 -95.499s-59.333 -48.833 -96 -64.5s-75.667 -23.5 -117 -23.5c-42 0 -81.167 7.83301 -117.5 23.5s-68.166 37.167 -95.499 64.5s-48.833 59.166 -64.5 95.499s-23.5 75.5 -23.5 117.5z
M259 1074c0 -28 4 -52.833 12 -74.5s19 -40 33 -55s30 -26.333 48 -34s37 -11.5 57 -11.5s39 3.83301 57 11.5s34 19 48 34s25 33.333 33 55s12 46.5 12 74.5s-4 52.833 -12 74.5s-19 40 -33 55s-30 26.333 -48 34s-37 11.5 -57 11.5s-39 -3.83301 -57 -11.5
s-34 -19 -48 -34s-25 -33.333 -33 -55s-12 -46.5 -12 -74.5zM939 279c0 41.333 7.83301 80.333 23.5 117s37.167 68.667 64.5 96s59.166 48.833 95.499 64.5s75.5 23.5 117.5 23.5c41.333 0 80.333 -7.83301 117 -23.5s68.667 -37.167 96 -64.5s48.833 -59.333 64.5 -96
s23.5 -75.667 23.5 -117c0 -42 -7.83301 -81.167 -23.5 -117.5s-37.167 -68.166 -64.5 -95.499s-59.333 -48.833 -96 -64.5s-75.667 -23.5 -117 -23.5c-42 0 -81.167 7.83301 -117.5 23.5s-68.166 37.167 -95.499 64.5s-48.833 59.166 -64.5 95.499s-23.5 75.5 -23.5 117.5z
M1090 279c0 -28 4 -52.833 12 -74.5s19 -40 33 -55s30 -26.333 48 -34s37 -11.5 57 -11.5s39 3.83301 57 11.5s34 19 48 34s25 33.333 33 55s12 46.5 12 74.5s-4 52.833 -12 74.5s-19 40 -33 55s-30 26.333 -48 34s-37 11.5 -57 11.5s-39 -3.83301 -57 -11.5
s-34 -19 -48 -34s-25 -33.333 -33 -55s-12 -46.5 -12 -74.5z" />
    <glyph glyph-name="ampersand" unicode="&#x26;" horiz-adv-x="1439" 
d="M1215 519c0 -58.667 -10.6641 -114.667 -31.9971 -168s-52 -103 -92 -149c43.333 -30 85 -53.333 125 -70s78 -25 114 -25c30 0 58.167 1.66699 84.5 5s49.166 7.33301 68.499 12c22.667 4.66699 43.667 10.334 63 17.001v-96c-18 -12.667 -39.333 -24 -64 -34
c-21.333 -8.66699 -47.166 -16.334 -77.499 -23.001s-65.5 -10 -105.5 -10c-54 0 -108.333 10.5 -163 31.5s-110.334 50.5 -167.001 88.5c-58 -38 -124 -67.5 -198 -88.5s-155.667 -31.5 -245 -31.5c-69.333 0 -131.833 5.83301 -187.5 17.5s-102.834 29.5 -141.501 53.5
s-68.334 54.667 -89.001 92s-31 81.666 -31 132.999v30c0 44 8.33301 85.167 25 123.5s38.667 73.833 66 106.5s58.333 62.5 93 89.5s70.334 50.833 107.001 71.5c-45.333 64.667 -80.833 122 -106.5 172s-38.5 94 -38.5 132v30c0 46 9.5 89.833 28.5 131.5
s47 78.5 84 110.5s82.5 57.333 136.5 76s116 28 186 28c54 0 101.5 -6.33301 142.5 -19s75.5 -30.667 103.5 -54s49 -51.666 63 -84.999s21 -70.666 21 -111.999v-29c0 -38 -8.66699 -73.667 -26 -107s-42.5 -65.833 -75.5 -97.5s-73.5 -63.334 -121.5 -95.001
s-102.667 -65.167 -164 -100.5c57.333 -68 117.666 -135.5 180.999 -202.5s127.333 -127.833 192 -182.5c22.667 32 40.167 67.667 52.5 107s18.5 82 18.5 128v26l-153 34l20 98l303 22v-187zM546.003 107c60.667 0 117 6.5 169 19.5s99 31.833 141 56.5
c-68 56.667 -135.667 120.5 -203 191.5s-134.666 145.833 -201.999 224.5c-34.667 -20.667 -63.834 -41.167 -87.501 -61.5s-42.667 -41.5 -57 -63.5s-24.5 -45 -30.5 -69s-9 -49.667 -9 -77v-16c0 -32 7.5 -60.667 22.5 -86s35.167 -46.833 60.5 -64.5s55 -31.167 89 -40.5
s69.667 -14 107 -14zM798.003 1069c0 28.667 -4.83203 54.0039 -14.499 76.0039s-23 40.5 -40 55.5s-37.167 26.333 -60.5 34s-49 11.5 -77 11.5c-20.667 0 -39.5 -1 -56.5 -3s-32.167 -4.33301 -45.5 -7c-15.333 -2.66699 -29 -6 -41 -10
c-9.33301 -14 -17.666 -29.667 -24.999 -47c-6.66699 -14.667 -12.5 -31.834 -17.5 -51.501s-7.5 -40.834 -7.5 -63.501v-17c0 -26 2 -49.667 6 -71s10.5 -42.333 19.5 -63s20.667 -42 35 -64s31.5 -46.667 51.5 -74c38 20.667 73.667 42.167 107 64.5
s62.166 45.166 86.499 68.499s43.666 47.166 57.999 71.499s21.5 48.833 21.5 73.5v16z" />
    <glyph glyph-name="quotesingle" unicode="'" horiz-adv-x="346" 
d="M70 1540h186v-42l-63 -341h-123v383z" />
    <glyph glyph-name="parenleft" unicode="(" horiz-adv-x="663" 
d="M293 543c0 -75.333 4.5 -147.166 13.5 -215.499s21 -132.833 36 -193.5s32.167 -117.334 51.5 -170.001s39 -101 59 -145c46.667 -102.667 100 -194.334 160 -275.001l-93 -60c-76.667 82.667 -145 178 -205 286c-26 46 -51.167 96.833 -75.5 152.5
s-46.166 116 -65.499 181s-34.833 134.167 -46.5 207.5s-17.5 150.666 -17.5 231.999c0 80.667 5.83301 157.834 17.5 231.501s27.167 142.834 46.5 207.501s41.166 124.834 65.499 180.501s49.5 106.5 75.5 152.5c60 107.333 128.333 202.666 205 285.999l93 -60
c-60 -80 -113.333 -171.333 -160 -274c-20 -44 -39.667 -92.333 -59 -145s-36.5 -109.5 -51.5 -170.5s-27 -125.667 -36 -194s-13.5 -139.833 -13.5 -214.5z" />
    <glyph glyph-name="parenright" unicode=")" horiz-adv-x="663" 
d="M370 543c0 74.667 -4.66699 146.167 -14 214.5s-21.5 133 -36.5 194s-32 117.833 -51 170.5s-38.5 101 -58.5 145c-46.667 102.667 -100 194 -160 274l93 60c76 -83.333 144.333 -178.666 205 -285.999c25.333 -46 50.333 -96.833 75 -152.5s46.667 -115.834 66 -180.501
s34.833 -133.834 46.5 -207.501s17.5 -150.834 17.5 -231.501c0 -81.333 -5.83301 -158.666 -17.5 -231.999s-27.167 -142.5 -46.5 -207.5s-41.333 -125.333 -66 -181s-49.667 -106.5 -75 -152.5c-60.667 -108 -129 -203.333 -205 -286l-93 60
c60 80.667 113.333 172.334 160 275.001c20 44 39.5 92.333 58.5 145s36 109.334 51 170.001s27.167 125.167 36.5 193.5s14 140.166 14 215.499z" />
    <glyph glyph-name="asterisk" unicode="*" horiz-adv-x="780" 
d="M428 1103l31 -277v-24h-153v24l31 277l-225 -165l-21 -12l-75 132l20 12l254 112l-255 112l-20 12l76 132l21 -12l225 -165l-31 277v24h153v-24l-31 -277l225 165l21 12l75 -132l-20 -12l-255 -112l256 -112l20 -12l-76 -132l-21 12z" />
    <glyph glyph-name="plus" unicode="+" horiz-adv-x="1063" 
d="M605 985v-318h298v-147h-298v-318h-147v318h-298v147h298v318h147z" />
    <glyph glyph-name="comma" unicode="," 
d="M90 79c0 22.667 2.66797 44.499 8.00098 65.499s12.666 39.333 21.999 55s20 28.167 32 37.5s25 14 39 14c26 0 53 -4 81 -12s51 -21.667 69 -41c6 -6 11.667 -13.333 17 -22s10 -19.334 14 -32.001s7.33301 -27.5 10 -44.5s4 -37.167 4 -60.5
c0 -33.333 -2.5 -65.666 -7.5 -96.999s-15 -63.166 -30 -95.499s-36.667 -65.833 -65 -100.5s-65.5 -72 -111.5 -112l-68 80c56.667 47.333 96 89.333 118 126s33 68.667 33 96c0 13.333 -5.33301 23.666 -16 30.999s-23.667 13 -39 17
c-32.667 8.66699 -59.167 21.334 -79.5 38.001s-30.5 35.667 -30.5 57z" />
    <glyph glyph-name="hyphen" unicode="-" horiz-adv-x="803" 
d="M60 667h693v-147h-693v147z" />
    <glyph glyph-name="period" unicode="." 
d="M140 79c0 22.667 2.66406 44.5 7.99707 65.5s12.666 39.333 21.999 55s20 28.167 32 37.5s25 14 39 14c24 0 46.333 -2.66699 67 -8s38.834 -12.666 54.501 -21.999s27.834 -20.333 36.501 -33s13 -26 13 -40c0 -22.667 -2.66699 -44.167 -8 -64.5
s-12.666 -38.333 -21.999 -54s-20.166 -28.167 -32.499 -37.5s-25.5 -14 -39.5 -14c-24 0 -46.333 2.66699 -67 8s-38.667 12.666 -54 21.999s-27.333 20 -36 32s-13 25 -13 39z" />
    <glyph glyph-name="slash" unicode="/" horiz-adv-x="833" 
d="M628 1540h165v-20l-568 -1815h-165v20z" />
    <glyph glyph-name="zero" unicode="0" horiz-adv-x="1176" 
d="M561 -22c-151.333 0 -263.666 45.168 -336.999 135.501s-110 224.833 -110 403.5v105c0 247.333 42.167 434.666 126.5 561.999s203.5 191 357.5 191c158.667 0 275.667 -43.833 351 -131.5s113 -223.834 113 -408.501v-104c0 -251.333 -39.833 -439.666 -119.5 -564.999
s-206.834 -188 -381.501 -188zM868 782.001c0 158.667 -21.167 275.666 -63.5 350.999s-114.5 113 -216.5 113c-100.667 0 -172.5 -42.167 -215.5 -126.5s-64.5 -220.166 -64.5 -407.499v-140c0 -158 22.333 -275 67 -351s115 -114 211 -114c104 0 177 44.333 219 133
s63 222.667 63 402v140z" />
    <glyph glyph-name="one" unicode="1" horiz-adv-x="728" 
d="M126 98l183 34v1034h-246l-10 103l335 84h111v-1221l182 -34l-20 -98h-515z" />
    <glyph glyph-name="two" unicode="2" horiz-adv-x="982" 
d="M701 998c0 79.333 -20.6689 140.499 -62.002 183.499s-98.666 64.5 -171.999 64.5c-37.333 0 -73.166 -4.83301 -107.499 -14.5s-64.166 -20.5 -89.499 -32.5l-57 -201l-109 11v261c52 28.667 113 53.334 183 74.001s138 31 204 31c126 0 224.167 -28.833 294.5 -86.5
s105.5 -141.5 105.5 -251.5c0 -65.333 -16.833 -132 -50.5 -200s-78.167 -137.667 -133.5 -209s-118.833 -144.333 -190.5 -219l-221.5 -229l4 -10h437l82 193l104 -23l-23 -340h-831v145l252 265c77.333 81.333 144.166 157 200.499 227s100.5 134.667 132.5 194
s48 115 48 167z" />
    <glyph glyph-name="three" unicode="3" horiz-adv-x="990" 
d="M445 -22c-64 0 -128.833 9.50195 -194.5 28.502s-120.834 40.833 -165.501 65.5l1 258l105 12l52 -193c34 -12.667 69.167 -22.834 105.5 -30.501s72.833 -11.5 109.5 -11.5c72.667 0 133 24.333 181 73s72 114.667 72 198c0 85.333 -24.667 153.166 -74 203.499
s-112.333 75.5 -189 75.5h-103v129h93c70 0 125 21 165 63s60 101.333 60 178c0 74 -18.333 129 -55 165s-93 54 -169 54c-30 0 -59.5 -3 -88.5 -9s-55.833 -13.667 -80.5 -23l-53 -193l-105 12v268c58 24.667 117 43.167 177 55.5s119.333 18.5 178 18.5
c122.667 0 217.667 -27.833 285 -83.5s101 -135.834 101 -240.501c0 -77.333 -18.333 -142.5 -55 -195.5s-82.667 -93.833 -138 -122.5c74.667 -23.333 133.334 -64.166 176.001 -122.499s64 -126.833 64 -205.5c0 -133.333 -41.333 -237.833 -124 -313.5
s-193 -113.5 -331 -113.5z" />
    <glyph glyph-name="four" unicode="4" horiz-adv-x="1026" 
d="M423 98l193 34v190h-569l-23 86l579 945h194l-567 -892l5 -10h381v366h190v-366h132l24 -100l-156 -34v-185l152 -34l-20 -98h-495z" />
    <glyph glyph-name="five" unicode="5" horiz-adv-x="1043" 
d="M475 -22c-62.667 0 -128.167 9.16699 -196.5 27.5s-124.5 38.5 -168.5 60.5v257l115 8l61 -194c20 -7.33301 48.5 -14.166 85.5 -20.499s75.833 -9.5 116.5 -9.5c77.333 0 143.5 27.333 198.5 82s82.5 127.667 82.5 219c0 87.333 -26.167 155.333 -78.5 204
s-123.166 73 -212.499 73c-42.667 0 -84 -3 -124 -9s-83 -17.333 -129 -34l-96 87l35 624h713v-170h-584l-26 -405c30 12.667 66.167 23.167 108.5 31.5s82.833 12.5 121.5 12.5c145.333 0 258.666 -33.167 339.999 -99.5s122 -163.5 122 -291.5
c0 -132.667 -46.833 -241.334 -140.5 -326.001s-208.167 -127 -343.5 -127z" />
    <glyph glyph-name="six" unicode="6" horiz-adv-x="1051" 
d="M104 572c0 235.333 61.333 427.998 184 577.998s270.667 225 444 225c30 0 57.667 -1.83301 83 -5.5s51.666 -9.16699 78.999 -16.5v-116c-43.333 4 -73.666 6.5 -90.999 7.5s-35.333 1.5 -54 1.5c-126.667 0 -233.334 -54.167 -320.001 -162.5
s-130 -239.166 -130 -392.499l10 -4c38 29.333 80.5 53.333 127.5 72s97.5 28 151.5 28c121.333 0 217.5 -34.667 288.5 -104s106.5 -154.666 106.5 -255.999v-29c0 -131.333 -40.5 -234.166 -121.5 -308.499s-186.5 -111.5 -316.5 -111.5
c-141.333 0 -250.166 45.667 -326.499 137s-114.5 219.666 -114.5 384.999v72zM793 387.998c0 82.667 -23.833 148.332 -71.5 196.999s-111.834 73 -192.501 73c-43.333 0 -84.166 -5 -122.499 -15s-74.166 -22 -107.499 -36v-86c0 -131.333 25 -233.166 75 -305.499
s112.667 -108.5 188 -108.5c71.333 0 127.666 24 168.999 72s62 112.333 62 193v16z" />
    <glyph glyph-name="seven" unicode="7" horiz-adv-x="926" 
d="M165 980l-115 8v365h888v-93l-515 -1260h-179l508 1173l-6 10h-528z" />
    <glyph glyph-name="eight" unicode="8" horiz-adv-x="1018" 
d="M84 304c0 82 24.999 155.334 74.999 220.001s117.333 113.667 202 147c-72 38.667 -127.667 84 -167 136s-59 118.667 -59 200c0 102.667 37 189.667 111 261s171.333 107 292 107c113.333 0 200.833 -25.5 262.5 -76.5s92.5 -122.167 92.5 -213.5
c0 -72.667 -23.667 -139.167 -71 -199.5s-107.666 -106.5 -180.999 -138.5c95.333 -40.667 169.666 -91.834 222.999 -153.501s80 -134.167 80 -217.5c0 -118.667 -41.167 -214.667 -123.5 -288s-194.166 -110 -335.499 -110c-126 0 -224.333 28.167 -295 84.5
s-106 136.833 -106 241.5zM495.999 607.001l-27.998 11.5c-9.33301 3.66699 -18.666 7.83398 -27.999 12.501c-51.333 -30.667 -91.833 -69.834 -121.5 -117.501s-44.5 -103.5 -44.5 -167.5c0 -74.667 20.167 -133.167 60.5 -175.5s96.166 -63.5 167.499 -63.5
s131.166 22.5 179.499 67.5s72.5 102.167 72.5 171.5c0 51.333 -19.833 97.833 -59.5 139.5s-105.834 82.167 -198.501 121.5zM324.001 1032c0 -68 20.168 -120.33 60.501 -156.997s97.833 -68.334 172.5 -95.001c46 25.333 81.833 60.166 107.5 104.499
s38.5 99.166 38.5 164.499c0 62.667 -15.333 111.167 -46 145.5s-75.334 51.5 -134.001 51.5c-60 0 -108.167 -20.333 -144.5 -61s-54.5 -91.667 -54.5 -153z" />
    <glyph glyph-name="nine" unicode="9" horiz-adv-x="1058" 
d="M284 941c0 -78.667 22.665 -143.166 67.998 -193.499s104.333 -75.5 177 -75.5c40 0 80.833 5.16699 122.5 15.5s78.834 23.166 111.501 38.499v72c0 143.333 -21.667 253.833 -65 331.5s-106.333 116.5 -189 116.5c-75.333 0 -131.666 -25 -168.999 -75
s-56 -121.333 -56 -214v-16zM323.998 -21.999c-30.667 0 -61.5 2.16699 -92.5 6.5s-59.167 9.83301 -84.5 16.5v116c21.333 -3.33301 44 -5.83301 68 -7.5s50.667 -2.5 80 -2.5c138 0 250.5 49.5 337.5 148.5s130.5 227.833 130.5 386.5l-10 4
c-29.333 -27.333 -70 -51.333 -122 -72s-105.667 -31 -161 -31c-106.667 0 -196 34 -268 102s-108 153.667 -108 257v29c0 134 37.667 241.5 113 322.5s181 121.5 317 121.5c140 0 246.667 -43.5 320 -130.5s110 -220.5 110 -400.5v-78c0 -258 -56 -453.833 -168 -587.5
s-266 -200.5 -462 -200.5z" />
    <glyph glyph-name="colon" unicode=":" horiz-adv-x="596" 
d="M152 79c0 22.667 2.66504 44.5 7.99805 65.5s12.5 39.333 21.5 55s19.667 28.167 32 37.5s25.5 14 39.5 14c24 0 46.333 -2.66699 67 -8s38.834 -12.833 54.501 -22.5s27.834 -20.667 36.501 -33s13 -25.5 13 -39.5c0 -22.667 -2.66699 -44.167 -8 -64.5
s-12.5 -38.333 -21.5 -54s-19.833 -28.167 -32.5 -37.5s-26 -14 -40 -14c-24 0 -46.333 2.66699 -67 8s-38.667 12.5 -54 21.5s-27.333 19.667 -36 32s-13 25.5 -13 39.5zM151.998 844c0 22.667 2.66406 44.5 7.99707 65.5s12.666 39.333 21.999 55s20 28.167 32 37.5
s25 14 39 14c24 0 46.333 -2.66699 67 -8s38.834 -12.666 54.501 -21.999s27.834 -20.333 36.501 -33s13 -26 13 -40c0 -22.667 -2.66699 -44.167 -8 -64.5s-12.666 -38.333 -21.999 -54s-20.166 -28.167 -32.499 -37.5s-25.5 -14 -39.5 -14c-24 0 -46.333 2.66699 -67 8
s-38.667 12.666 -54 21.999s-27.333 20 -36 32s-13 25 -13 39z" />
    <glyph glyph-name="semicolon" unicode=";" horiz-adv-x="601" 
d="M152 844c0 22.667 2.66406 44.5 7.99707 65.5s12.666 39.333 21.999 55s20 28.167 32 37.5s25 14 39 14c24 0 46.333 -2.66699 67 -8s38.834 -12.666 54.501 -21.999s27.834 -20.333 36.501 -33s13 -26 13 -40c0 -22.667 -2.66699 -44.167 -8 -64.5
s-12.666 -38.333 -21.999 -54s-20.166 -28.167 -32.499 -37.5s-25.5 -14 -39.5 -14c-24 0 -46.333 2.66699 -67 8s-38.667 12.666 -54 21.999s-27.333 20 -36 32s-13 25 -13 39zM151.997 79c0 22.667 2.66797 44.499 8.00098 65.499s12.666 39.333 21.999 55
s20 28.167 32 37.5s25 14 39 14c26 0 53 -4 81 -12s51 -21.667 69 -41c6 -6 11.667 -13.333 17 -22s10 -19.334 14 -32.001s7.33301 -27.5 10 -44.5s4 -37.167 4 -60.5c0 -33.333 -2.5 -65.666 -7.5 -96.999s-15 -63.166 -30 -95.499s-36.667 -65.833 -65 -100.5
s-65.5 -72 -111.5 -112l-68 80c56.667 47.333 96 89.333 118 126s33 68.667 33 96c0 13.333 -5.33301 23.666 -16 30.999s-23.667 13 -39 17c-32.667 8.66699 -59.167 21.334 -79.5 38.001s-30.5 35.667 -30.5 57z" />
    <glyph glyph-name="less" unicode="&#x3c;" horiz-adv-x="1148" 
d="M140 555v96l798 374h30v-139l-592 -278v-10l592 -277v-140h-30z" />
    <glyph glyph-name="equal" unicode="=" horiz-adv-x="1122" 
d="M160 464h802v-157h-802v157zM160 927h802v-157h-802v157z" />
    <glyph glyph-name="greater" unicode="&#x3e;" horiz-adv-x="1148" 
d="M210 181h-30v140l592 277v10l-592 278v139h30l798 -374v-96z" />
    <glyph glyph-name="question" unicode="?" horiz-adv-x="1019" 
d="M546 758c-41.333 -37.333 -71.5059 -69.8311 -90.5059 -97.498s-28.5 -55.834 -28.5 -84.501c0 -26 8 -45.833 24 -59.5s38.667 -20.5 68 -20.5c18.667 0 36.5 1.5 53.5 4.5s31.833 6.5 44.5 10.5c14.667 4.66699 28.334 10 41.001 16v-101
c-14.667 -9.33301 -31.334 -17.666 -50.001 -24.999c-16 -6.66699 -35.167 -12.5 -57.5 -17.5s-47.5 -7.5 -75.5 -7.5c-30 0 -58.833 4 -86.5 12s-52 20.333 -73 37s-37.667 37.334 -50 62.001s-18.5 54 -18.5 88c0 24 3 47.667 9 71s16 47.166 30 71.499
s32.167 49.5 54.5 75.5s49.833 54 82.5 84l152 140c30 28 55.5 52.833 76.5 74.5s38 42.334 51 62.001s22.333 39 28 58s8.5 39.5 8.5 61.5c0 23.333 -4.66699 45.166 -14 65.499s-24.166 38.166 -44.499 53.499s-46.666 27.5 -78.999 36.5s-71.833 13.5 -118.5 13.5
c-29.333 0 -55.166 -1.66699 -77.499 -5s-41.166 -7 -56.499 -11c-18 -4.66699 -33.667 -10 -47 -16l-70 -225l-112 17v277c30.667 15.333 66 29 106 41c34 10.667 74.833 20.334 122.5 29.001s101.5 13 161.5 13c65.333 0 123.5 -6.16699 174.5 -18.5
s93.833 -30.5 128.5 -54.5s61 -53.333 79 -88s27 -74.334 27 -119.001c0 -38 -3.66699 -72.333 -11 -103s-19.666 -60.5 -36.999 -89.5s-40.166 -58.833 -68.499 -89.5s-63.5 -65.334 -105.5 -104.001zM295.994 79.002c0 22.667 2.66504 44.5 7.99805 65.5
s12.5 39.333 21.5 55s19.667 28.167 32 37.5s25.5 14 39.5 14c24 0 46.333 -2.66699 67 -8s38.834 -12.833 54.501 -22.5s27.834 -20.667 36.501 -33s13 -25.5 13 -39.5c0 -22.667 -2.66699 -44.167 -8 -64.5s-12.5 -38.333 -21.5 -54s-19.833 -28.167 -32.5 -37.5
s-26 -14 -40 -14c-24 0 -46.333 2.66699 -67 8s-38.667 12.5 -54 21.5s-27.333 19.667 -36 32s-13 25.5 -13 39.5z" />
    <glyph glyph-name="at" unicode="@" horiz-adv-x="1860" 
d="M753 523c-14.667 -105.333 -15 -186.164 -1 -242.497s43 -84.5 87 -84.5c24.667 0 48.834 6.33301 72.501 19s46.167 28.667 67.5 48s41.333 40.666 60 63.999s35.167 45.666 49.5 66.999s26 40.166 35 56.499s14.833 27.166 17.5 32.499l64 463
c-14 6 -29.667 11.333 -47 16c-14.667 4 -31.667 7.83301 -51 11.5s-39.666 5.5 -60.999 5.5c-23.333 0 -45.333 -2.66699 -66 -8s-39 -11 -55 -17c-18.667 -7.33301 -36 -15.666 -52 -24.999c-16 -25.333 -31 -56.333 -45 -93
c-12.667 -31.333 -25.334 -69.833 -38.001 -115.5s-23.334 -99.5 -32.001 -161.5zM1436 -164.998c-47.333 -27.333 -99.3301 -51.6729 -155.997 -73.0059c-48.667 -18 -105.5 -34.5 -170.5 -49.5s-134.833 -22.5 -209.5 -22.5c-72.667 0 -141.834 4.66699 -207.501 14
s-126.667 24.5 -183 45.5s-107.333 48.5 -153 82.5s-84.5 75.5 -116.5 124.5s-56.667 106 -74 171s-26 139.167 -26 222.5c0 100.667 10.833 195.834 32.5 285.501s52.5 172.5 92.5 248.5s88.5 144.333 145.5 205s120.667 112.167 191 154.5s146.666 74.833 228.999 97.5
s168.833 34 259.5 34c112 0 212 -15 300 -45s162.333 -72.333 223 -127s107 -120.5 139 -197.5s48 -162.167 48 -255.5c0 -82 -7.5 -154.5 -22.5 -217.5s-35.167 -118.167 -60.5 -165.5s-54.333 -87.333 -87 -120s-66.667 -59.334 -102 -80.001
s-70.666 -36.167 -105.999 -46.5s-68 -16.5 -98 -18.5l-146 -14l-81 78l26 190c-4 -7.33301 -10.833 -19 -20.5 -35s-22.167 -34 -37.5 -54s-33 -40.5 -53 -61.5s-42 -40.167 -66 -57.5s-49.833 -31.666 -77.5 -42.999s-56.834 -17 -87.501 -17
c-43.333 0 -80.5 6.33301 -111.5 19s-56 32.834 -75 60.501s-31.333 63.5 -37 107.5s-4.5 97.333 3.5 160l12 93c10 74.667 27.667 144.5 53 209.5s58 121.667 98 170s87.5 86.333 142.5 114s116.833 41.5 185.5 41.5c40.667 0 81 -4.16699 121 -12.5
s76.333 -17.166 109 -26.499c37.333 -12 73.666 -25 108.999 -39l-112 -796c23.333 1.33301 47.833 5.66602 73.5 12.999s51.167 18.666 76.5 33.999s49.5 35.5 72.5 60.5s43.333 56.5 61 94.5s31.667 83.167 42 135.5s15.5 113.5 15.5 183.5
c0 86.667 -11 163.834 -33 231.501s-56 124.834 -102 171.501s-104.167 82 -174.5 106s-153.833 36 -250.5 36c-70.667 0 -138.167 -10.5 -202.5 -31.5s-123.833 -50.667 -178.5 -89s-104.167 -84.166 -148.5 -137.499s-82.166 -112.5 -113.499 -177.5
s-55.333 -134.667 -72 -209s-25 -151.166 -25 -230.499c0 -108.667 16.667 -199.5 50 -272.5s78.166 -131.5 134.499 -175.5s122 -75.333 197 -94s154.5 -28 238.5 -28c70 0 135 5.66699 195 17s112.333 24 157 38c52 16.667 100 35.334 144 56.001v-86z" />
    <glyph glyph-name="A" unicode="A" horiz-adv-x="1218" 
d="M-8 98l108 29l440 1226h149l429 -1226l108 -29l-20 -98h-385l-20 98l128 29l-94 279h-491l-96 -279l128 -29l-20 -98h-344zM389 535h402l-194 569h-10z" />
    <glyph glyph-name="B" unicode="B" horiz-adv-x="1160" 
d="M229 1221l-153 34.001l20 98h477c141.333 0 248.833 -25.833 322.5 -77.5s110.5 -129.834 110.5 -234.501c0 -76 -19 -140.833 -57 -194.5s-84.667 -94.5 -140 -122.5l2 -16c74 -14 134.667 -46.5 182 -97.5s71 -115.167 71 -192.5
c0 -128.667 -39.167 -230.5 -117.5 -305.5s-185.833 -112.5 -322.5 -112.5h-528l-20 98l153 34v1089zM419 638.001v-509h137c61.333 0 115 4 161 12s88.667 20.333 128 37c8.66699 27.333 15.667 59 21 95s8 75.667 8 119c0 78 -27 138.5 -81 181.5s-127.333 64.5 -220 64.5
h-154zM419 1224l0.00195312 -456.999h131c52 0 96.5 4.16699 133.5 12.5s68.167 17.166 93.5 26.499c9.33301 25.333 18.166 55.333 26.499 90s12.5 73.667 12.5 117c0 72 -23.833 125.167 -71.5 159.5s-117.834 51.5 -210.501 51.5h-115z" />
    <glyph glyph-name="C" unicode="C" horiz-adv-x="1176" 
d="M100 604c0 254 51.3311 446 153.998 576s253 195 451 195c63.333 0 127.333 -5 192 -15s121.667 -24.667 171 -44l21 -270l-105 -22l-83 195c-25.333 8 -57.666 14.5 -96.999 19.5s-81.333 7.5 -126 7.5c-57.333 0 -111.833 -7.66699 -163.5 -23
s-96.834 -37 -135.501 -65c-26.667 -61.333 -48.167 -134.666 -64.5 -219.999s-24.5 -170.333 -24.5 -255v-133c0 -142.667 39.167 -252.167 117.5 -328.5s183.5 -114.5 315.5 -114.5c62.667 0 126.834 9.83301 192.501 29.5s124.5 44.5 176.5 74.5v-106
c-62 -40 -130.667 -71.167 -206 -93.5s-149.666 -33.5 -222.999 -33.5c-185.333 0 -325.5 44.667 -420.5 134s-142.5 223.666 -142.5 402.999v89z" />
    <glyph glyph-name="D" unicode="D" horiz-adv-x="1362" 
d="M231 1221l-153.001 34l20 98h540c201.333 0 353 -50.5 455 -151.5s153 -246.5 153 -436.5v-78c0 -212 -51.667 -379.5 -155 -502.5s-246.666 -184.5 -429.999 -184.5h-563l-20 98l153 34v1089zM420.999 1224v-1095h211c52 0 101.333 4.16699 148 12.5s90 20.5 130 36.5
c41.333 51.333 76 116.333 104 195s42 161.667 42 249v94c0 160.667 -38.5 285.5 -115.5 374.5s-190.833 133.5 -341.5 133.5h-178z" />
    <glyph glyph-name="E" unicode="E" horiz-adv-x="1191" 
d="M419 643v-514h481l83 193l104 -23l-24 -299h-967l-20 98l153 34v1089l-153 34l20 98h937l24 -300l-103 -22l-83 193h-452v-452h357l34 122l99 -20v-334l-99 -20l-34 123h-357z" />
    <glyph glyph-name="F" unicode="F" horiz-adv-x="1043" 
d="M415 643v-511l202 -34l-20 -98h-505l-20 98l153 34v1089l-153 34l20 98h877l24 -300l-103 -22l-83 193h-392v-452h320l34 122l98 -20v-334l-98 -20l-34 123h-320z" />
    <glyph glyph-name="G" unicode="G" horiz-adv-x="1300" 
d="M1092 105c-64 -39.333 -134.334 -70.333 -211.001 -93s-152.667 -34 -228 -34c-174.667 0 -310.167 45 -406.5 135s-144.5 220.667 -144.5 392v89c0 252 52.5 445.167 157.5 579.5s256.5 201.5 454.5 201.5c65.333 0 130.333 -5 195 -15s120.667 -24 168 -42l21 -270
l-105 -22l-82 193c-25.333 7.33301 -58 13.666 -98 18.999s-80.667 8 -122 8c-58 0 -113.167 -7.83301 -165.5 -23.5s-97.166 -37.167 -134.499 -64.5c-30.667 -62 -54.834 -134.167 -72.501 -216.5s-26.5 -168.5 -26.5 -258.5v-133c0 -140.667 40.333 -249.667 121 -327
s177.334 -116 290.001 -116c34.667 0 69 3.33301 103 10s66 15.334 96 26.001v361l-153 34l20 108h455l20 -108l-152 -34v-399z" />
    <glyph glyph-name="H" unicode="H" horiz-adv-x="1459" 
d="M225 1221l-153 34l20 98h455l20 -98l-152 -34v-443h624v443l-152 34l20 98h456l20 -98l-154 -34v-1089l154 -34l-20 -98h-456l-20 98l152 34v517h-624v-517l152 -34l-20 -98h-455l-20 98l153 34v1089z" />
    <glyph glyph-name="I" unicode="I" horiz-adv-x="643" 
d="M225 1221l-153 34l20 98h455l20 -98l-152 -34v-1089l152 -34l-20 -98h-455l-20 98l153 34v1089z" />
    <glyph glyph-name="J" unicode="J" horiz-adv-x="859" 
d="M647 336c0 -116 -28 -204.666 -84 -265.999s-139.667 -92 -251 -92c-40 0 -80 5.33301 -120 16s-73.667 23 -101 37l-21 260l103 22l82 -192c14 -5.33301 27.667 -9.16602 41 -11.499s25.666 -3.5 36.999 -3.5c16 0 32.333 2 49 6s31.334 9 44.001 15
c9.33301 25.333 16.833 59.166 22.5 101.499s8.5 89.166 8.5 140.499v852l-193 34l20 98h495l20 -98l-152 -34v-885z" />
    <glyph glyph-name="K" unicode="K" horiz-adv-x="1304" 
d="M72 98l153 34v1089l-153 34l20 98h455l20 -98l-152 -34v-557l14 -6l544 575l-110 21l20 99h362l20 -98l-122 -34l-433 -455l456 -633l146 -35l-20 -98h-244l-459 639l-174 -183v-324l152 -34l-20 -98h-455z" />
    <glyph glyph-name="L" unicode="L" horiz-adv-x="1018" 
d="M227 1221l-153 34l20 98h455l20 -98l-152 -34v-1092h336l83 193l104 -22l-25 -300h-821l-20 98l153 34v1089z" />
    <glyph glyph-name="M" unicode="M" horiz-adv-x="1922" 
d="M225 1221l-153 34l20 98h427l436 -1042h16l418 1042h437l20 -98l-152 -34v-1089l152 -34l-20 -98h-455l-20 98l153 34v1078h-16l-492 -1210h-105l-510 1210h-16v-1078l152 -34l-20 -98h-405l-20 98l153 34v1089z" />
    <glyph glyph-name="N" unicode="N" horiz-adv-x="1532" 
d="M225 1221l-153 34l20 98h420l655 -1217h16v1085l-154 34l20 98h407l20 -98l-152 -34v-1221h-287l-656 1218h-16v-1086l152 -34l-20 -98h-405l-20 98l153 34v1089z" />
    <glyph glyph-name="O" unicode="O" horiz-adv-x="1345" 
d="M663 -22c-186 0 -326 45.833 -420 137.5s-141 228.167 -141 409.5v79c0 259.333 49.333 452.666 148 579.999s243 191 433 191c185.333 0 325 -45.5 419 -136.5s141 -228.167 141 -411.5v-78c0 -251.333 -48 -442.666 -144 -573.999s-241.333 -197 -436 -197zM1053 783
c0 157.333 -34.835 273.831 -104.502 349.498s-168.167 113.5 -295.5 113.5c-59.333 0 -115.333 -9.16699 -168 -27.5s-94 -38.5 -124 -60.5c-20 -61.333 -36.5 -130.166 -49.5 -206.499s-19.5 -159.166 -19.5 -248.499v-133c0 -147.333 37.5 -261.333 112.5 -342
s171.167 -121 288.5 -121c58.667 0 113.834 8.83301 165.501 26.5s93.834 38.5 126.501 62.5c21.333 66.667 38 140 50 220s18 158 18 234v133z" />
    <glyph glyph-name="P" unicode="P" horiz-adv-x="1102" 
d="M227 1221l-153 34.001l20 98h501c148 0 261.167 -27.833 339.5 -83.5s117.5 -142.834 117.5 -261.501c0 -124 -41.333 -222.833 -124 -296.5s-186 -110.5 -310 -110.5h-201v-469l212 -34l-20 -98h-515l-20 98l153 34v1089zM417 1224l-0.00195312 -494h160
c48.667 0 93.334 3.16699 134.001 9.5s79.334 15.833 116.001 28.5c10.667 34 18.5 68 23.5 102s7.5 66.667 7.5 98c0 78.667 -26.333 141 -79 187s-130 69 -232 69h-130z" />
    <glyph glyph-name="Q" unicode="Q" horiz-adv-x="1360" 
d="M661 -22c-186 0 -326.001 45.8311 -420.001 137.498s-141 228.167 -141 409.5v79c0 250.667 48.5 441.834 145.5 573.501s242.167 197.5 435.5 197.5c185.333 0 325 -45.5 419 -136.5s141 -228.167 141 -411.5v-78c0 -299.333 -68.667 -512.666 -206 -639.999
c24.667 -52.667 49.5 -94.834 74.5 -126.501s56.5 -47.5 94.5 -47.5c23.333 0 46.333 2.16699 69 6.5s44.334 10.5 65.001 18.5v-100c-22.667 -15.333 -49.167 -28.166 -79.5 -38.499s-62.5 -15.5 -96.5 -15.5c-62.667 0 -115 14.5 -157 43.5s-78.333 75.5 -109 139.5
l-13 26c-34 -12 -69 -21.167 -105 -27.5s-75 -9.5 -117 -9.5zM1051 782.998c0 155.333 -34.5 271.335 -103.5 348.002s-167.833 115 -296.5 115c-58.667 0 -115 -8.66699 -169 -26s-98.333 -38 -133 -62c-7.33301 -25.333 -14.5 -53.333 -21.5 -84s-13.333 -64.5 -19 -101.5
s-10.167 -77.833 -13.5 -122.5s-5 -93.667 -5 -147v-133c0 -20 0.666992 -39.667 2 -59s3.66602 -37.333 6.99902 -54c21.333 43.333 53.833 77.166 97.5 101.499s94.834 36.5 153.501 36.5c83.333 0 155 -20.833 215 -62.5s115.333 -111.5 166 -209.5l62 -127
c12 36.667 24.667 99.667 38 189s20 177.666 20 264.999v133zM781.999 223c-43.333 85.333 -90.002 147.166 -140.002 185.499s-104.333 57.5 -163 57.5c-92 0 -138 -36.667 -138 -110c0 -57.333 34.167 -113.166 102.5 -167.499s150.833 -81.5 247.5 -81.5
c26.667 0 51.334 1.5 74.001 4.5s44.334 7.16699 65.001 12.5z" />
    <glyph glyph-name="R" unicode="R" horiz-adv-x="1205" 
d="M225 1221l-152.999 34l20 98h492c138.667 0 244.667 -28.167 318 -84.5s110 -142.5 110 -258.5c0 -86.667 -19.833 -162.167 -59.5 -226.5s-93.834 -112.5 -162.501 -144.5l-6 -19l277 -488l146 -34l-20 -98h-249l-340 601h-183v-469l152 -34l-20 -98h-455l-20 98l153 34
v1089zM415.001 1224l0.00195312 -493.999h123c41.333 0 83.166 3 125.499 9s84.166 16 125.499 30c7.33301 30 14 62.667 20 98s9 69.333 9 102c0 79.333 -25.5 141.666 -76.5 186.999s-126.167 68 -225.5 68h-101z" />
    <glyph glyph-name="S" unicode="S" horiz-adv-x="1066" 
d="M619 762c125.333 -73.333 216.831 -140.502 274.498 -201.502s86.5 -132.833 86.5 -215.5c0 -110 -42.833 -198.667 -128.5 -266s-200.167 -101 -343.5 -101c-80 0 -153.167 6.16699 -219.5 18.5s-119.166 27.166 -158.499 44.499l-21 259l117 25l82 -194
c24.667 -7.33301 52.167 -13.166 82.5 -17.499s64.5 -6.5 102.5 -6.5c49.333 0 96.5 3.33301 141.5 10s86.833 16 125.5 28c6.66699 16.667 13.334 38.834 20.001 66.501s10 60.5 10 98.5c0 42 -19.667 85.833 -59 131.5s-124.333 107.834 -255 186.501
c-169.333 100 -272.833 177.333 -310.5 232s-56.5 114.334 -56.5 179.001c0 97.333 41.833 177.666 125.5 240.999s199.167 95 346.5 95c56 0 112.167 -4 168.5 -12s110.833 -21.333 163.5 -40l21 -270l-105 -22l-82 193c-27.333 7.33301 -55.166 12.833 -83.499 16.5
s-57.833 5.5 -88.5 5.5c-51.333 0 -99.333 -3.66699 -144 -11s-82.334 -16.333 -113.001 -27c-6 -20 -10.667 -41.167 -14 -63.5s-5 -45.833 -5 -70.5c0 -47.333 19.833 -90.833 59.5 -130.5s126.5 -100.167 260.5 -181.5z" />
    <glyph glyph-name="T" unicode="T" horiz-adv-x="1139" 
d="M475 1224h-300l-62 -170l-99 9l15 290h1082l14 -290l-98 -9l-63 170h-299v-1092l153 -34l-20 -98h-456l-20 98l153 34v1092z" />
    <glyph glyph-name="U" unicode="U" horiz-adv-x="1358" 
d="M360 546c0 -148.667 31.332 -259.001 93.999 -331.001s149 -108 259 -108c52.667 0 102 7.66699 148 23s82.667 33 110 53c22.667 41.333 41.334 91.333 56.001 150s22 121.334 22 188.001v700l-153 34l20 98h406l20 -98l-152 -34v-677
c0 -194 -42.333 -336.833 -127 -428.5s-214.667 -137.5 -390 -137.5c-166 0 -291.333 41.5 -376 124.5s-127 212.5 -127 388.5v730l-154 34l20 98h456l20 -98l-152 -34v-675z" />
    <glyph glyph-name="V" unicode="V" horiz-adv-x="1180" 
d="M402 1254l-149 -29l351 -1043h16l350 1043l-149 29l20 99h363l20 -99l-108 -28l-430 -1226h-191l-432 1226l-107 28l20 99h406z" />
    <glyph glyph-name="W" unicode="W" horiz-adv-x="1998" 
d="M403 1254l-149 -29l335 -993h16l342 1121h191l334 -1121h16l304 993l-153 29l20 99h363l20 -99l-103 -27l-386 -1227h-191l-333 1107h-16l-337 -1107h-192l-422 1227l-106 27l20 99h407z" />
    <glyph glyph-name="X" unicode="X" horiz-adv-x="1273" 
d="M188 1226l-116 28l20 99h401l20 -99l-118 -28l267 -403h16l258 402l-120 29l20 99h355l20 -99l-118 -28l-352 -526l379 -573l117 -29l-20 -98h-401l-20 98l118 29l-299 453h-16l-289 -452l117 -30l-20 -98h-351l-20 98l117 29l381 575z" />
    <glyph glyph-name="Y" unicode="Y" horiz-adv-x="1122" 
d="M478 578l-416 648l-114 28l20 99h410l20 -99l-132 -28l321 -504h16l304 504l-125 28l20 99h352l20 -99l-111 -28l-395 -650v-444l152 -34l-20 -98h-455l-20 98l153 34v446z" />
    <glyph glyph-name="Z" unicode="Z" horiz-adv-x="1130" 
d="M1023 1353v-124l-716 -1086l5 -14h557l82 193l103 -22l-24 -300h-948v125l715 1085l-5 14h-516l-82 -193l-104 22l25 300h908z" />
    <glyph glyph-name="bracketleft" unicode="[" horiz-adv-x="634" 
d="M180 1677h358v-96h-191v-1942h191v-96h-358v2134z" />
    <glyph glyph-name="backslash" unicode="\" horiz-adv-x="833" 
d="M773 -275v-20h-165l-568 1815v20h165z" />
    <glyph glyph-name="bracketright" unicode="]" horiz-adv-x="634" 
d="M454 -457h-358v96h191v1942h-191v96h358v-2134z" />
    <glyph glyph-name="asciicircum" unicode="^" horiz-adv-x="1104" 
d="M504 1540h96l364 -461v-30h-139l-268 335h-10l-267 -335h-140v30z" />
    <glyph glyph-name="underscore" unicode="_" horiz-adv-x="1116" 
d="M60 -235h1036v-144h-1036v144z" />
    <glyph glyph-name="grave" unicode="`" horiz-adv-x="832" 
d="M549 1275l-118 -10l-290 329v66l175 10l233 -363v-32z" />
    <glyph glyph-name="a" unicode="a" horiz-adv-x="1150" 
d="M939 132l172.999 -34.001l-20 -98l-255 -22l-58 177c-52 -63.333 -107.667 -108.666 -167 -135.999s-123.666 -41 -192.999 -41c-93.333 0 -168.5 23.333 -225.5 70s-85.5 109.667 -85.5 189c0 122 54 214.167 162 276.5s271 93.5 489 93.5v95
c0 100 -18.167 172.5 -54.5 217.5s-99.833 67.5 -190.5 67.5c-21.333 0 -45.833 -1.33301 -73.5 -4s-53.167 -6.33398 -76.5 -11.001l-60 -212l-98 10v283c40 14 89.5 26.5 148.5 37.5s118.5 16.5 178.5 16.5c136.667 0 238.5 -30.167 305.5 -90.5
s100.5 -154.166 100.5 -281.499v-603zM758.999 486.999c-100 0 -188.667 -6.50098 -266 -19.501s-136.333 -30.5 -177 -52.5c-8 -18.667 -14.667 -40 -20 -64s-8 -49.333 -8 -76c0 -55.333 18.333 -98.666 55 -129.999s84.667 -47 144 -47c50 0 99.333 12.5 148 37.5
s90 54.833 124 89.5v262z" />
    <glyph glyph-name="b" unicode="b" horiz-adv-x="1122" 
d="M337 947l14.001 -6c40 52.667 85.167 93.5 135.5 122.5s111.166 43.5 182.499 43.5c114.667 0 203.167 -37.167 265.5 -111.5s93.5 -184.166 93.5 -329.499v-94c0 -184.667 -42.167 -329.834 -126.5 -435.501s-196.5 -158.5 -336.5 -158.5c-57.333 0 -125.5 7 -204.5 21
s-146.833 28.667 -203.5 44v1365l-153 34l20 98l313 22v-615zM848.001 642c0 115.333 -20.666 201.668 -61.999 259.001s-101.333 86 -180 86c-46 0 -93.333 -14.833 -142 -44.5s-91 -64.5 -127 -104.5v-713c32.667 -6.66699 71.167 -12.834 115.5 -18.501
s88.5 -8.5 132.5 -8.5c40.667 0 79.167 6.33301 115.5 19s65.166 27 86.499 43c14 29.333 27.667 78 41 146s20 140.333 20 217v119z" />
    <glyph glyph-name="c" unicode="c" horiz-adv-x="972" 
d="M96 492c0 197.333 42.1689 349.166 126.502 455.499s200.833 159.5 349.5 159.5c50.667 0 101.5 -5 152.5 -15s101.833 -26 152.5 -48l19 -234l-110 -23l-69 179c-22.667 6.66699 -46 11.834 -70 15.501s-50 5.5 -78 5.5c-41.333 0 -81.833 -5 -121.5 -15
s-76.834 -25 -111.501 -45c-14.667 -40 -28.334 -93.167 -41.001 -159.5s-19 -138.166 -19 -215.499v-109c0 -106.667 31 -190.834 93 -252.501s136.667 -92.5 224 -92.5c48 0 96.5 6.16699 145.5 18.5s98.833 30.5 149.5 54.5v-96c-46 -28.667 -98.833 -52 -158.5 -70
s-121.5 -27 -185.5 -27c-140.667 0 -250.5 36.167 -329.5 108.5s-118.5 176.5 -118.5 312.5v93z" />
    <glyph glyph-name="d" unicode="d" horiz-adv-x="1186" 
d="M979 132l153.001 -33.999l-20 -98l-235 -22l-58 177c-48.667 -63.333 -101.834 -109 -159.501 -137s-117.5 -41.333 -179.5 -40c-119.333 0 -212.833 37.5 -280.5 112.5s-101.5 182.5 -101.5 322.5v93c0 187.333 42.167 334.333 126.5 441s201.5 160 351.5 160
c28 0 60.167 -1.83301 96.5 -5.5s78.5 -9.83398 126.5 -18.501v325l-153 34l20 98l313 22v-1430zM278.001 434.001c0 -108.667 23.334 -191.833 70.001 -249.5s109 -86.5 187 -86.5c48.667 0 97.167 13.167 145.5 39.5s87.833 55.5 118.5 87.5v735
c-38.667 8 -79.334 14.5 -122.001 19.5s-83 7.5 -121 7.5c-43.333 0 -85 -6.16699 -125 -18.5s-74.333 -28.5 -103 -48.5c-16 -52 -28.333 -109.167 -37 -171.5s-13 -127.5 -13 -195.5v-119z" />
    <glyph glyph-name="e" unicode="e" horiz-adv-x="1034" 
d="M276 523l0.00195312 -76c0 -112 30.833 -198.167 92.5 -258.5s135.167 -90.5 220.5 -90.5c55.333 0 109.666 6 162.999 18s103 27.667 149 47v-96c-58 -30.667 -118.833 -53.167 -182.5 -67.5s-126.834 -21.5 -189.501 -21.5c-137.333 0 -243.833 37.333 -319.5 112
s-113.5 182.667 -113.5 324v83c0 191.333 42.5 340.833 127.5 448.5s200.833 161.5 347.5 161.5c135.333 0 233 -34.5 293 -103.5s90 -189.167 90 -360.5v-120h-678zM336.002 927c-14.667 -37.333 -27.167 -82.668 -37.5 -136.001s-16.833 -102.666 -19.5 -147.999h485
c0 121.333 -17.5 209 -52.5 263s-91.167 81 -168.5 81c-39.333 0 -78 -6 -116 -18s-68.333 -26 -91 -42z" />
    <glyph glyph-name="f" unicode="f" horiz-adv-x="747" 
d="M259 1193c0 123.333 25.667 215.667 77 277s125.333 92 222 92c30.667 0 62.167 -3.66699 94.5 -11s59.833 -16 82.5 -26l-43 -131c-38 12.667 -76.5 22.667 -115.5 30s-74.833 11 -107.5 11c-8 -20 -15 -49.5 -21 -88.5s-9 -84.833 -9 -137.5v-124h214l20 -98l-234 -34
v-821l213 -34l-20 -98h-506l-20 98l153 34v821l-163 34l20 98h143v108z" />
    <glyph glyph-name="g" unicode="g" horiz-adv-x="1075" 
d="M824 978l-4 -9.99609c28.667 -19.333 53.667 -48.333 75 -87s32 -79 32 -121v-25c0 -112 -36.5 -201.167 -109.5 -267.5s-169.833 -99.5 -290.5 -99.5c-43.333 0 -83 4 -119 12c-36 -33.333 -65.167 -64.833 -87.5 -94.5s-33.5 -53.5 -33.5 -71.5
c0 -17.333 6.16699 -30.666 18.5 -39.999s29.833 -14 52.5 -14h224c158.667 0 277.5 -23 356.5 -69s118.5 -118.333 118.5 -217c0 -108 -46.167 -190.167 -138.5 -246.5s-223.5 -84.5 -393.5 -84.5c-148 0 -257.167 15.667 -327.5 47s-105.5 81.666 -105.5 150.999
c0 44.667 18.167 89.667 54.5 135s87.833 89.666 154.5 132.999c-48 9.33301 -85.667 26.666 -113 51.999s-41 58.666 -41 99.999c0 39.333 15.833 80.666 47.5 123.999s73.5 84.666 125.5 123.999c-57.333 27.333 -100.5 64.333 -129.5 111s-43.5 96.667 -43.5 150v26
c0 130.667 36.333 231.834 109 303.501s169.667 107.5 291 107.5c19.333 0 43.833 -2.16699 73.5 -6.5s56.167 -9.5 79.5 -15.5h314l18 -107h-208zM411 0.00390625c-46.667 -34.667 -84.832 -70.999 -114.499 -108.999s-44.5 -73.333 -44.5 -106
c0 -47.333 24.5 -79.5 73.5 -96.5s135.5 -25.5 259.5 -25.5c51.333 0 103.166 4.16699 155.499 12.5s98.833 21.166 139.5 38.499c11.333 16 20.333 35.167 27 57.5s10 44.833 10 67.5c0 60.667 -24.167 102.667 -72.5 126s-131.833 35 -250.5 35h-183zM747.002 764.005
c0 70 -22.001 124.667 -66.001 164s-96.667 59 -158 59c-30.667 0 -59.667 -2.83301 -87 -8.5s-50.333 -12.834 -69 -21.501c-14 -36 -24.167 -72.667 -30.5 -110s-9.5 -71.666 -9.5 -102.999v-38c0 -64.667 23.667 -117.167 71 -157.5s98.333 -60.5 153 -60.5
c32 0 60.833 2.5 86.5 7.5s48.834 12.5 69.501 22.5c11.333 21.333 20.833 50.5 28.5 87.5s11.5 77.167 11.5 120.5v38z" />
    <glyph glyph-name="h" unicode="h" horiz-adv-x="1324" 
d="M83 98l153.002 34.001v1276l-153 34l20 98l313 22v-615l14 -6c41.333 52.667 90 93.5 146 122.5s117.667 43.5 185 43.5c118.667 0 206.167 -31.333 262.5 -94s84.5 -158.334 84.5 -287.001v-594l153 -34l-20 -98h-446l-20 98l153 34v560
c0 106 -17.833 181.667 -53.5 227s-93.167 68 -172.5 68c-50.667 0 -101.834 -14.333 -153.501 -43s-95.834 -64 -132.501 -106v-706l153 -34l-20 -98h-446z" />
    <glyph glyph-name="i" unicode="i" horiz-adv-x="660" 
d="M259 953l-153 34l20 98l313 22v-975l153 -34l-20 -98h-446l-20 98l153 34v821zM212 1401c0 37.333 9.83203 69.8311 29.499 97.498s42.5 41.5 68.5 41.5c38 0 70.5 -9.66699 97.5 -29s40.5 -42.666 40.5 -69.999c0 -37.333 -9.83301 -69.666 -29.5 -96.999
s-42.5 -41 -68.5 -41c-37.333 0 -69.666 9.66699 -96.999 29s-41 42.333 -41 69z" />
    <glyph glyph-name="j" unicode="j" horiz-adv-x="569" 
d="M412 -47c0 -138.667 -23.667 -241.666 -71 -308.999s-126 -101 -236 -101c-36 0 -72.333 3.33301 -109 10s-70 15.667 -100 27l36 131c40 -10.667 84.167 -20.167 132.5 -28.5s90.833 -12.5 127.5 -12.5c12 25.333 21.667 59.166 29 101.499s11 89.833 11 142.5v1039
l-183 34l20 98l343 22v-1154zM185 1401c0 37.333 9.83203 69.8311 29.499 97.498s42.5 41.5 68.5 41.5c38 0 70.5 -9.66699 97.5 -29s40.5 -42.666 40.5 -69.999c0 -37.333 -9.83301 -69.666 -29.5 -96.999s-42.5 -41 -68.5 -41c-37.333 0 -69.666 9.66699 -96.999 29
s-41 42.333 -41 69z" />
    <glyph glyph-name="k" unicode="k" horiz-adv-x="1185" 
d="M84 98l153 34v1276l-153 34l20 98l313 22v-989l14 -6l429 401l-92 19l20 98h322l20 -98l-87 -19l-359 -325l343 -511l134 -34l-20 -98h-223l-357 532l-144 -130v-270l153 -34l-20 -98h-446z" />
    <glyph glyph-name="l" unicode="l" horiz-adv-x="642" 
d="M246 1408l-153 34l20 98l313 22v-1430l153 -34l-20 -98h-446l-20 98l153 34v1276z" />
    <glyph glyph-name="m" unicode="m" horiz-adv-x="2034" 
d="M104 98l152.999 34.001v821l-153 34l20 98l235 22l58 -178c48 57.333 103.833 101.333 167.5 132s128.834 46 195.501 46c87.333 0 156.833 -15.5 208.5 -46.5s88.167 -74.833 109.5 -131.5c61.333 64 123 109.667 185 137s125 41 189 41
c118.667 0 206.5 -31.5 263.5 -94.5s85.5 -158.5 85.5 -286.5v-594l153 -34l-20 -98h-446l-20 98l153 34v550c0 103.333 -18.5 180 -55.5 230s-99.167 75 -186.5 75c-38.667 0 -81.5 -11 -128.5 -33s-94.167 -54 -141.5 -96v-726l153 -34l-20 -98h-446l-20 98l153 34v550
c0 104 -17.833 180.833 -53.5 230.5s-98.5 74.5 -188.5 74.5c-40 0 -84 -11.833 -132 -35.5s-94 -54.834 -138 -93.501v-726l153 -34l-20 -98h-446z" />
    <glyph glyph-name="n" unicode="n" horiz-adv-x="1346" 
d="M106 98l153 33.999v821l-153 34l20 98l235 22l58 -178c49.333 56 105 99.667 167 131s127.333 47 196 47c119.333 0 207.333 -31.167 264 -93.5s85 -158.166 85 -287.499v-594l153 -34l-20 -98h-446l-20 98l153 34v550c0 102 -16.5 178.333 -49.5 229s-92.5 76 -178.5 76
c-44.667 0 -91.5 -11 -140.5 -33s-96.833 -54 -143.5 -96v-726l153 -34l-20 -98h-446z" />
    <glyph glyph-name="o" unicode="o" horiz-adv-x="1114" 
d="M547 -22c-145.333 0 -256.833 38.832 -334.5 116.499s-116.5 185.834 -116.5 324.501v93c0 184 42.167 329.167 126.5 435.5s195.833 159.5 334.5 159.5c145.333 0 258.5 -38.833 339.5 -116.5s121.5 -189.167 121.5 -334.5v-94c0 -176.667 -42 -318.167 -126 -424.5
s-199 -159.5 -345 -159.5zM838 621.999c0 114 -26.167 202.833 -78.5 266.5s-126.5 96.5 -222.5 98.5c-36.667 0 -73.334 -5.83301 -110.001 -17.5s-67 -25.834 -91 -42.501c-17.333 -39.333 -31.666 -90.333 -42.999 -153s-17 -130 -17 -202v-119
c0 -112 28.833 -199.167 86.5 -261.5s129.167 -93.5 214.5 -93.5c33.333 0 67.666 5.33301 102.999 16s68 25.334 98 44.001c20.667 43.333 35.834 95 45.501 155s14.5 123.333 14.5 190v119z" />
    <glyph glyph-name="p" unicode="p" horiz-adv-x="1160" 
d="M183 953l-152.999 34l20 98l235 22l58 -178c50 60 104 104.667 162 134s120 44 186 44c122 0 214.667 -38.167 278 -114.5s95 -188.5 95 -336.5v-94c0 -180.667 -41 -323.167 -123 -427.5s-193.667 -156.5 -335 -156.5c-40.667 0 -80.834 2.16699 -120.501 6.5
s-80.5 10.5 -122.5 18.5v-305l153 -34l-20 -99h-446l-20 99l153 34v1255zM884.001 622c0 120 -21.833 210.833 -65.5 272.5s-107.5 92.5 -191.5 92.5c-42 0 -86.333 -11.833 -133 -35.5s-90.334 -54.834 -131.001 -93.501v-733c26.667 -6 62.834 -12 108.501 -18
s87.167 -9 124.5 -9c40.667 0 80.667 4.83301 120 14.5s76.333 24.834 111 45.501c14 36.667 27 87 39 151s18 128.667 18 194v119z" />
    <glyph glyph-name="q" unicode="q" horiz-adv-x="1085" 
d="M791 116l-9.99902 4c-42.667 -48 -89.667 -83.667 -141 -107s-107.333 -35 -168 -35c-122.667 0 -215.334 36.833 -278.001 110.5s-94 180.5 -94 320.5v83c0 186 41.667 335 125 447s193.333 168 330 168c58 0 125.333 -6.5 202 -19.5s148 -27.833 214 -44.5v-1500
l-313 22l-20 98l153 34v419zM280.001 453c0 -118.667 22.668 -207.499 68.001 -266.499s105.333 -88.5 180 -88.5c48 0 96 12.833 144 38.5s87.667 55.167 119 88.5v734c-36.667 8 -75.667 14.667 -117 20s-81.666 8 -120.999 8c-42.667 0 -83.834 -6.66699 -123.501 -20
s-71.5 -29.333 -95.5 -48c-16.667 -47.333 -29.834 -100.833 -39.501 -160.5s-14.5 -121.834 -14.5 -186.501v-119z" />
    <glyph glyph-name="r" unicode="r" horiz-adv-x="885" 
d="M259 953l-152.998 33.998l20 98l235 22l58 -178c32 60 69.5 104.667 112.5 134s93.167 44 150.5 44c27.333 0 54.166 -3.66699 80.499 -11s49.166 -17.666 68.499 -30.999l-25 -283h-112l-26 185c-12.667 5.33301 -27.667 8 -45 8c-34 0 -68 -12.167 -102 -36.5
s-61.333 -51.166 -82 -80.499v-726l186 -34l-20 -98h-479l-20 98l153 34v821z" />
    <glyph glyph-name="s" unicode="s" horiz-adv-x="970" 
d="M571 621c138.667 -70.667 226.498 -131.169 263.498 -181.502s55.5 -106.5 55.5 -168.5c0 -86.667 -38.167 -157.167 -114.5 -211.5s-177.5 -81.5 -303.5 -81.5c-68 0 -131.667 7 -191 21s-107.666 30.333 -144.999 49l-10 240l109 20l58 -187
c26 -8 54.667 -13.833 86 -17.5s63 -5.5 95 -5.5c36 0 71.833 2.16699 107.5 6.5s71.834 11.5 108.501 21.5c6.66699 14 11.667 29.833 15 47.5s5 34.834 5 51.501c0 47.333 -21.333 89.833 -64 127.5s-125.334 88.834 -248.001 153.501c-110.667 58 -185 110 -223 156
s-57 98.667 -57 158c0 83.333 35 152 105 206s169.333 81 298 81c60 0 118.333 -6.16699 175 -18.5s105.334 -28.833 146.001 -49.5l9 -241l-109 -20l-59 189c-26.667 7.33301 -55 12.5 -85 15.5s-57.667 4.5 -83 4.5c-35.333 0 -69.666 -2.5 -102.999 -7.5
s-64 -11.833 -92 -20.5c-6 -10.667 -11.167 -24.5 -15.5 -41.5s-6.5 -34.5 -6.5 -52.5c0 -36 15.167 -69.833 45.5 -101.5s106.166 -79.167 227.499 -142.5z" />
    <glyph glyph-name="t" unicode="t" horiz-adv-x="742" 
d="M659 1085l20.001 -99.001l-310 -32v-645c0 -70.667 10.5 -123.5 31.5 -158.5s63.5 -52.5 127.5 -52.5c21.333 0 45 3.33301 71 10s53 16.334 81 29.001v-94c-30.667 -20 -65.834 -35.833 -105.501 -47.5s-79.5 -17.5 -119.5 -17.5c-93.333 0 -161 24 -203 72
s-63 121.333 -63 220v684l-161 32l20 99h141l73 293l107 -20v-273h290z" />
    <glyph glyph-name="u" unicode="u" horiz-adv-x="1262" 
d="M371 403c0 -104 18.334 -180.832 55.001 -230.499s99 -74.5 187 -74.5c48 0 95.667 11.333 143 34s89.666 53.667 126.999 93v728l-183 34l20 98l343 22v-975l153 -34l-20 -98l-235 -22l-58 178c-54 -63.333 -111.167 -108.833 -171.5 -136.5
s-126.833 -41.5 -199.5 -41.5c-112 0 -196.833 31.667 -254.5 95s-86.5 158.666 -86.5 285.999v594l-153 34l20 98l313 22v-704z" />
    <glyph glyph-name="v" unicode="v" horiz-adv-x="1062" 
d="M1076 987l-95 -19l-339 -968h-217l-342 968l-95 19l20 98h370l20 -98l-129 -20l278 -835h16l278 835l-129 20l20 98h324z" />
    <glyph glyph-name="w" unicode="w" horiz-adv-x="1733" 
d="M1747 987l-94 -18l-295 -969h-212l-258 828h-16l-251 -828h-212l-323 968l-96 19l20 98h371l20 -98l-131 -20l256 -808h16l268 926h183l273 -926h16l233 808l-134 20l20 98h326z" />
    <glyph glyph-name="x" unicode="x" horiz-adv-x="1086" 
d="M24 98l92 16l333 429l-325 428l-86 16l20 98h350l20 -98l-93 -15l234 -306h16l228 305l-94 16l20 98h303l20 -98l-88 -16l-325 -412l339 -445l92 -16l-20 -98h-357l-20 98l93 15l-246 324h-16l-239 -324l96 -15l-20 -98h-307z" />
    <glyph glyph-name="y" unicode="y" horiz-adv-x="1106" 
d="M777 1085l325.002 -0.000976562l20 -98l-97 -19l-357 -966c-60 -166 -119.167 -284 -177.5 -354s-133.5 -105 -225.5 -105c-39.333 0 -79 5 -119 15s-72.667 20.667 -98 32l36 131c36.667 -13.333 79.667 -25.166 129 -35.499s96.333 -15.5 141 -15.5
c25.333 17.333 50.166 42.5 74.499 75.5s46.166 76.167 65.499 129.5l-407 1093l-97 19l20 98h370l20 -98l-125 -19l295 -836h16l296 836l-125 19z" />
    <glyph glyph-name="z" unicode="z" horiz-adv-x="967" 
d="M741 110l52 190l104 -11v-289h-805v95l593 868l-6 12h-400l-52 -190l-104 11v289h782v-83l-601 -880l6 -12h431z" />
    <glyph glyph-name="braceleft" unicode="{" horiz-adv-x="814" 
d="M150 658l96 -0.00390625c40.667 0 69.167 8.16699 85.5 24.5s24.5 44.833 24.5 85.5v629c0 40 7 77.167 21 111.5s33.5 64 58.5 89s54.667 44.5 89 58.5s71.5 21 111.5 21h78v-96h-21c-60.667 0 -104.167 -13.167 -130.5 -39.5s-39.5 -69.833 -39.5 -130.5v-583
c0 -41.333 -3.5 -75.666 -10.5 -102.999s-16 -49.166 -27 -65.499s-23.833 -27.833 -38.5 -34.5s-29.334 -10 -44.001 -10v-10c14.667 0 29.334 -3.33301 44.001 -10s27.5 -18.167 38.5 -34.5s20 -38.166 27 -65.499s10.5 -61.666 10.5 -102.999v-583
c0 -60.667 13.167 -104.167 39.5 -130.5s69.833 -39.5 130.5 -39.5h21v-96h-78c-40 0 -77.167 7 -111.5 21s-64 33.5 -89 58.5s-44.5 54.667 -58.5 89s-21 71.5 -21 111.5v629c0 40.667 -8.16699 69.167 -24.5 85.5s-44.833 24.5 -85.5 24.5h-96v96z" />
    <glyph glyph-name="bar" unicode="|" horiz-adv-x="658" 
d="M270 1670h118v-2207h-118v2207z" />
    <glyph glyph-name="braceright" unicode="}" horiz-adv-x="814" 
d="M664 562l-96 0.00390625c-40.667 0 -69.167 -8.16699 -85.5 -24.5s-24.5 -44.833 -24.5 -85.5v-629c0 -40 -7 -77.167 -21 -111.5s-33.5 -64 -58.5 -89s-54.667 -44.5 -89 -58.5s-71.5 -21 -111.5 -21h-78v96h21c60.667 0 104.167 13.167 130.5 39.5
s39.5 69.833 39.5 130.5v583c0 41.333 3.5 75.666 10.5 102.999s16 49.166 27 65.499s23.667 27.833 38 34.5s29.166 10 44.499 10v10c-15.333 0 -30.166 3.33301 -44.499 10s-27 18.167 -38 34.5s-20 38.166 -27 65.499s-10.5 61.666 -10.5 102.999v583
c0 60.667 -13.167 104.167 -39.5 130.5s-69.833 39.5 -130.5 39.5h-21v96h78c40 0 77.167 -7 111.5 -21s64 -33.5 89 -58.5s44.5 -54.667 58.5 -89s21 -71.5 21 -111.5v-629c0 -40.667 8.16699 -69.167 24.5 -85.5s44.833 -24.5 85.5 -24.5h96v-96z" />
    <glyph glyph-name="asciitilde" unicode="~" horiz-adv-x="1211" 
d="M140 549c0 37.333 6.1709 70.333 18.5039 99s29.166 52.667 50.499 72s46.666 33.833 75.999 43.5s61 14.5 95 14.5c24 0 50.833 -3.33301 80.5 -10s60.167 -14.834 91.5 -24.501s62.666 -20.167 93.999 -31.5l88.5 -31.5c27.667 -9.66699 52.5 -17.834 74.5 -24.501
s39.333 -10 52 -10s25.167 2.5 37.5 7.5s23.333 12.5 33 22.5s17.5 22.5 23.5 37.5s9 32.5 9 52.5l117 10v-47c0 -35.333 -5.66699 -67.166 -17 -95.499s-27 -52.333 -47 -72s-44 -34.834 -72 -45.501s-58.667 -16 -92 -16c-22 0 -47.667 3.33301 -77 10
s-60.333 14.834 -93 24.501s-65.834 20.167 -99.501 31.5l-95 31.5c-29.667 9.66699 -56.167 17.834 -79.5 24.501s-41 10 -53 10c-13.333 0 -26.5 -1.33301 -39.5 -4s-24.5 -7.66699 -34.5 -15s-18 -17.333 -24 -30s-9 -29 -9 -49l-109 -10v25z" />
    <glyph glyph-name="uni00A0" unicode="&#xa0;" 
 />
    <glyph glyph-name="exclamdown" unicode="&#xa1;" horiz-adv-x="572" 
d="M412 1006c0 -23.333 -2.66504 -45.332 -7.99805 -65.999s-12.5 -38.834 -21.5 -54.501s-19.667 -28.167 -32 -37.5s-25.5 -14 -39.5 -14c-24 0 -46.333 2.66699 -67 8s-38.834 12.833 -54.501 22.5s-27.834 20.667 -36.501 33s-13 25.5 -13 39.5
c0 22.667 2.66699 44.167 8 64.5s12.5 38.333 21.5 54s19.833 28.167 32.5 37.5s26 14 40 14c24 0 46.333 -2.66699 67 -8s38.667 -12.5 54 -21.5s27.333 -19.667 36 -32s13 -25.5 13 -39.5zM378.002 -434.999l-195 -22l-20 22l37 1150h141z" />
    <glyph glyph-name="cent" unicode="&#xa2;" horiz-adv-x="1024" 
d="M525 -20c-63.333 3.33301 -121.167 14.168 -173.5 32.501s-97.5 44.666 -135.5 78.999s-67.5 77 -88.5 128s-31.5 110.833 -31.5 179.5v93c0 94 10 177.167 30 249.5s48.667 133.833 86 184.5s82.5 90.667 135.5 120s112.167 48 177.5 56v251h118v-247
c45.333 -2 86.166 -6.33301 122.499 -13s67.166 -13.667 92.499 -21c30 -8.66699 56.333 -18 79 -28v-255l-122 -14l-48 191c-10 2.66699 -21 5.33398 -33 8.00098c-10.667 2 -23.667 4.16699 -39 6.5s-32.666 4.16602 -51.999 5.49902v-888
c40 1.33301 78.5 5.83301 115.5 13.5s69.5 16.167 97.5 25.5c32.667 10 63.334 21.333 92.001 34v-96c-24.667 -15.333 -52.667 -29 -84 -41c-27.333 -10.667 -59.5 -21.167 -96.5 -31.5s-78.5 -17.5 -124.5 -21.5v-226h-118v225zM275.999 443.002
c0 -48 6.83203 -90.833 20.499 -128.5s32 -70.167 55 -97.5s49.5 -49.833 79.5 -67.5s61.333 -30.834 94 -39.501v873c-30 -3.33301 -56.667 -8.16602 -80 -14.499s-43 -12.5 -59 -18.5c-19.333 -7.33301 -36 -15 -50 -23c-11.333 -30 -21.333 -64 -30 -102
c-7.33301 -32.667 -14.166 -72 -20.499 -118s-9.5 -97.667 -9.5 -155v-109z" />
    <glyph glyph-name="sterling" unicode="&#xa3;" horiz-adv-x="1101" 
d="M119 98l130.999 29.0029c6 18.667 11.333 39 16 61c4 19.333 7.83301 41.666 11.5 66.999s5.5 53.333 5.5 84c0 19.333 -0.833008 38.166 -2.5 56.499s-4.16699 37.166 -7.5 56.499s-7.5 39.833 -12.5 61.5s-10.833 45.5 -17.5 71.5h-113l-20 89l100 28
c-8.66699 30.667 -16 58.834 -22 84.501s-11 50.667 -15 75s-6.83301 48.833 -8.5 73.5s-2.5 51.334 -2.5 80.001c0 48 8 93.667 24 137s41.167 81.5 75.5 114.5s78.666 59.333 132.999 79s119.833 29.5 196.5 29.5c54.667 0 103.667 -4.33301 147 -13
s80 -18.334 110 -29.001c35.333 -12 66.333 -25.667 93 -41v-277l-106 -15l-72 229c-15.333 4.66699 -32.333 9 -51 13c-16.667 3.33301 -36.167 6.33301 -58.5 9s-47.5 4 -75.5 4c-29.333 0 -56.166 -2.16699 -80.499 -6.5s-45.166 -9.16602 -62.499 -14.499
c-20.667 -6 -39 -12.667 -55 -20c-7.33301 -14.667 -13.666 -31.334 -18.999 -50.001c-5.33301 -16 -9.83301 -35.5 -13.5 -58.5s-5.5 -48.833 -5.5 -77.5c0 -54 3.66699 -106.167 11 -156.5s18.666 -102.833 33.999 -157.5h436v-129h-401
c9.33301 -38 16.833 -73.833 22.5 -107.5s8.5 -67.834 8.5 -102.501c0 -35.333 -2.33301 -68 -7 -98s-9.66699 -56 -15 -78c-6.66699 -26 -13.667 -49.333 -21 -70h408l83 193l104 -22l-25 -300h-841z" />
    <glyph glyph-name="currency" unicode="&#xa4;" horiz-adv-x="1271" 
d="M185 191l141 168.999c-25.333 32 -45.166 67.167 -59.499 105.5s-21.5 79.166 -21.5 122.499c0 40.667 6.5 79.334 19.5 116.001s31.167 70.334 54.5 101.001l-139 165l128 107l138 -165c28 15.333 58 27 90 35s65.333 12 100 12c34 0 66.833 -4 98.5 -12
s61.5 -19.333 89.5 -34l138 164l129 -109l-138 -164c23.333 -30.667 41.5 -64.334 54.5 -101.001s19.5 -75 19.5 -115c0 -43.333 -7.33301 -84.333 -22 -123s-35 -74 -61 -106l144 -170l-128 -107l-148 175c-54.667 -26.667 -113.334 -40 -176.001 -40
c-32 0 -62.667 3.33301 -92 10s-57.333 16.334 -84 29.001l-146 -174zM421 587.999c0 -37.333 5.66699 -70 17 -98s26.666 -51.667 45.999 -71s42.166 -33.833 68.499 -43.5s54.166 -14.5 83.499 -14.5s57 4.83301 83 14.5s48.667 24.167 68 43.5s34.666 43 45.999 71
s17 60.667 17 98c0 36.667 -5.66699 69.167 -17 97.5s-26.666 52.166 -45.999 71.499s-42 33.833 -68 43.5s-53.667 14.5 -83 14.5s-57.166 -4.83301 -83.499 -14.5s-49.166 -24.167 -68.499 -43.5s-34.666 -43.166 -45.999 -71.499s-17 -60.833 -17 -97.5z" />
    <glyph glyph-name="yen" unicode="&#xa5;" horiz-adv-x="1122" 
d="M187 635h254l-379 591l-114 28l20 99h410l20 -99l-131 -28l323 -504h10l306 504l-124 28l20 99h352l20 -99l-111 -28l-360 -591h247v-127h-282v-128h282v-127h-282v-121l152 -34l-20 -98h-455l-20 98l153 34v121h-291v127h291v128h-291v127z" />
    <glyph glyph-name="brokenbar" unicode="&#xa6;" horiz-adv-x="658" 
d="M270 320h118v-857h-118v857zM270 1670h118v-857h-118v857z" />
    <glyph glyph-name="section" unicode="&#xa7;" horiz-adv-x="1169" 
d="M696 980c56 -30 106.335 -59.165 151.002 -87.498s82.834 -58 114.501 -89s55.834 -64.333 72.501 -100s25 -75.834 25 -120.501c0 -58 -13.833 -107.833 -41.5 -149.5s-63.167 -77.167 -106.5 -106.5c26 -26 45.667 -53.667 59 -83s20 -62.666 20 -99.999
c0 -47.333 -9 -88.166 -27 -122.499s-44.333 -62.5 -79 -84.5s-77.5 -38.333 -128.5 -49s-109.167 -16 -174.5 -16c-56.667 0 -107.334 3.5 -152.001 10.5s-83 15.167 -115 24.5c-36.667 10 -69.334 21.667 -98.001 35l22 260h110l25 -187
c15.333 -4.66699 33.333 -8.66699 54 -12c17.333 -3.33301 38.333 -6 63 -8s52.667 -3 84 -3c34.667 0 66.334 1.5 95.001 4.5s53.667 6.16699 75 9.5c24.667 4 46.667 9 66 15c4 8 7.33301 17 10 27c2.66699 8.66699 5 19 7 31s3 25.333 3 40
c0 21.333 -7 42.166 -21 62.499s-36.333 42 -67 65s-70.334 48.167 -119.001 75.5s-107.334 58.333 -176.001 93c-50 25.333 -94.667 50.5 -134 75.5s-72.5 51.667 -99.5 80s-47.667 59.166 -62 92.499s-21.5 71.333 -21.5 114c0 59.333 13.667 110.666 41 153.999
s62 81 104 113c-21.333 22.667 -37.666 46.834 -48.999 72.501s-17 54.5 -17 86.5c0 38.667 6.66699 75 20 109s35.666 63.667 66.999 89s73.166 45.5 125.499 60.5s117.5 22.5 195.5 22.5c53.333 0 100.833 -3.5 142.5 -10.5s76.834 -14.833 105.501 -23.5
c33.333 -10 62.666 -21.333 87.999 -34l-24 -260h-111l-24 187c-14.667 4 -31 7.33301 -49 10c-15.333 2.66699 -33.5 5.16699 -54.5 7.5s-44.167 3.5 -69.5 3.5c-36 0 -68 -1.33301 -96 -4s-52 -5.66699 -72 -9c-23.333 -4 -44 -8.33301 -62 -13
c-4.66699 -7.33301 -8.33398 -16 -11.001 -26c-3.33301 -8.66699 -6 -18.834 -8 -30.501s-3 -24.834 -3 -39.501c0 -21.333 5.66699 -40.833 17 -58.5s29.833 -36.167 55.5 -55.5s59.334 -40.666 101.001 -63.999zM565.002 545.002l142.004 -76.998
c42.667 -23.333 80.667 -46.333 114 -69c25.333 21.333 44.666 45.333 57.999 72s20 57 20 91c0 27.333 -6.16699 52.166 -18.5 74.499s-31.5 44.166 -57.5 65.499s-59.167 43.833 -99.5 67.5s-88.5 50.5 -144.5 80.5l-119.5 65c-36.333 20 -69.5 40 -99.5 60
c-25.333 -23.333 -43.333 -47.5 -54 -72.5s-16 -55.167 -16 -90.5c0 -25.333 4.66699 -48.333 14 -69s24.666 -41.167 45.999 -61.5s49.666 -41.333 84.999 -63s78.666 -46.167 129.999 -73.5z" />
    <glyph glyph-name="dieresis" unicode="&#xa8;" horiz-adv-x="1013" 
d="M200 1384c0 16.667 2.33105 32.667 6.99805 48s11.167 28.833 19.5 40.5s17.833 20.834 28.5 27.501s22 10 34 10c17.333 0 33.666 -2.33301 48.999 -7s28.5 -11.167 39.5 -19.5s19.667 -18 26 -29s9.5 -22.5 9.5 -34.5c0 -16.667 -2.33301 -32.5 -7 -47.5
s-11 -28.333 -19 -40s-17.333 -20.834 -28 -27.501s-22 -10 -34 -10c-17.333 0 -33.666 2.33301 -48.999 7s-28.666 11.167 -39.999 19.5s-20.166 17.833 -26.499 28.5s-9.5 22 -9.5 34zM599.998 1384c0 16.667 2.33496 32.667 7.00195 48s11 28.833 19 40.5
s17.333 20.834 28 27.501s22 10 34 10c17.333 0 33.666 -2.33301 48.999 -7s28.666 -11.167 39.999 -19.5s20.166 -18 26.499 -29s9.5 -22.5 9.5 -34.5c0 -16.667 -2.33301 -32.5 -7 -47.5s-11.167 -28.333 -19.5 -40s-17.833 -20.834 -28.5 -27.501s-22 -10 -34 -10
c-17.333 0 -33.666 2.33301 -48.999 7s-28.5 11.167 -39.5 19.5s-19.667 17.833 -26 28.5s-9.5 22 -9.5 34z" />
    <glyph glyph-name="copyright" unicode="&#xa9;" horiz-adv-x="1467" 
d="M455 919c0 64.667 6.99805 121.166 20.998 169.499s34 88.5 60 120.5s57.333 56 94 72s77.667 24 123 24c29.333 0 55.666 -2 78.999 -6s43.333 -8.33301 60 -13c19.333 -6 36.666 -12.333 51.999 -19l12 -193l-68 -14l-44 137c-7.33301 2 -15.666 4 -24.999 6
c-8 1.33301 -17.667 2.66602 -29 3.99902s-24 2 -38 2c-19.333 0 -36.666 -1.5 -51.999 -4.5s-28.333 -6.16699 -39 -9.5c-12.667 -4 -23.667 -8.66699 -33 -14c-4.66699 -18 -8.66699 -38.333 -12 -61c-3.33301 -19.333 -6 -42.833 -8 -70.5s-3 -58.5 -3 -92.5v-68
c0 -34 4.83301 -63.333 14.5 -88s22.334 -45.167 38.001 -61.5s33 -28.333 52 -36s38.167 -11.5 57.5 -11.5c24 0 47 2.33301 69 7s41.667 10 59 16c20 6.66699 39 14.334 57 23.001v-84c-18.667 -11.333 -39 -21.333 -61 -30c-19.333 -7.33301 -42.166 -14 -68.499 -20
s-55.5 -9 -87.5 -9c-40.667 0 -78.167 5.33301 -112.5 16s-63.833 26.834 -88.5 48.501s-44 49.167 -58 82.5s-21 73 -21 119v58zM258.998 948.999c0 -66 12.333 -127.833 37 -185.5s58.5 -108 101.5 -151s93.333 -76.833 151 -101.5s119.5 -37 185.5 -37
s127.833 12.333 185.5 37s108 58.5 151 101.5s76.833 93.333 101.5 151s37 119.5 37 185.5s-12.333 127.833 -37 185.5s-58.5 108 -101.5 151s-93.333 76.833 -151 101.5s-119.5 37 -185.5 37s-127.833 -12.333 -185.5 -37s-108 -58.5 -151 -101.5
s-76.833 -93.333 -101.5 -151s-37 -119.5 -37 -185.5zM119.998 948.999c0 84.667 16.166 164.335 48.499 239.002s76.166 139.667 131.499 195s120.333 99 195 131s154.334 48 239.001 48s164.334 -16 239.001 -48s139.667 -75.667 195 -131s99 -120.333 131 -195
s48 -154.334 48 -239.001s-16 -164.334 -48 -239.001s-75.667 -139.667 -131 -195s-120.333 -99.166 -195 -131.499s-154.334 -48.5 -239.001 -48.5c-56.667 0 -111.167 7.33301 -163.5 22s-101.166 35.334 -146.499 62.001s-86.666 58.667 -123.999 96
s-69.333 78.666 -96 123.999s-47.334 94.166 -62.001 146.499s-22 106.833 -22 163.5z" />
    <glyph glyph-name="ordfeminine" unicode="&#xaa;" horiz-adv-x="627" 
d="M495 907l91.9971 -17.0039l-10 -69l-168 -11l-27 82c-6 -7.33301 -14.5 -15.666 -25.5 -24.999s-24.5 -18.166 -40.5 -26.499s-34.167 -15.5 -54.5 -21.5s-42.833 -9 -67.5 -9c-48 0 -85.667 11.167 -113 33.5s-41 54.5 -41 96.5c0 64 26.167 113.167 78.5 147.5
s136.166 51.5 251.499 51.5v33c0 16.667 -1.16699 31.5 -3.5 44.5s-4.83301 24.167 -7.5 33.5c-2.66699 10.667 -6 20.334 -10 29.001c-13.333 4.66699 -26.166 8.5 -38.499 11.5s-30.166 4.5 -53.499 4.5c-11.333 0 -22.166 -0.333008 -32.499 -1
s-19.166 -1.66699 -26.499 -3c-9.33301 -1.33301 -17.666 -2.66602 -24.999 -3.99902l-30 -116l-69 5v172c15.333 4.66699 32.666 9 51.999 13c16.667 3.33301 36.167 6.5 58.5 9.5s47.5 4.5 75.5 4.5c74 0 131.667 -14 173 -42s62 -76 62 -144v-282zM369.997 1059
c-34 0 -63.166 -1.99902 -87.499 -5.99902s-44.5 -8.33301 -60.5 -13c-18.667 -6 -34 -12.333 -46 -19c-2 -4.66699 -4 -10.334 -6 -17.001c-3.33301 -12 -5 -27.333 -5 -46c0 -24.667 7.5 -42.167 22.5 -52.5s33.833 -15.5 56.5 -15.5c16.667 0 32.667 3.33301 48 10
s28.666 14 39.999 22c13.333 9.33301 26 20 38 32v105z" />
    <glyph glyph-name="guillemotleft" unicode="&#xab;" horiz-adv-x="1063" 
d="M545 115l-395 421v60l395 421h85v-22l-300 -419v-20l300 -419v-22h-85zM808 159l-266 389v36l266 389h85v-22l-167 -385l167 -385v-22h-85z" />
    <glyph glyph-name="logicalnot" unicode="&#xac;" horiz-adv-x="1193" 
d="M140 769h893v-464h-147v317h-746v147z" />
    <glyph glyph-name="uni00AD" unicode="&#xad;" horiz-adv-x="969" 
d="M230 665l589 41l-30 -149l-589 -41z" />
    <glyph glyph-name="registered" unicode="&#xae;" horiz-adv-x="1467" 
d="M120 949c0 84.667 16.166 164.335 48.499 239.002s76.166 139.667 131.499 195s120.333 99 195 131s154.334 48 239.001 48s164.334 -16 239.001 -48s139.667 -75.667 195 -131s99 -120.333 131 -195s48 -154.334 48 -239.001s-16 -164.334 -48 -239.001
s-75.667 -139.667 -131 -195s-120.333 -99.166 -195 -131.499s-154.334 -48.5 -239.001 -48.5c-56.667 0 -111.167 7.33301 -163.5 22s-101.166 35.334 -146.499 62.001s-86.666 58.667 -123.999 96s-69.333 78.666 -96 123.999s-47.334 94.166 -62.001 146.499
s-22 106.833 -22 163.5zM258.999 949.001c0 -66 12.333 -127.833 37 -185.5s58.5 -108 101.5 -151s93.333 -76.833 151 -101.5s119.5 -37 185.5 -37s127.833 12.333 185.5 37s108 58.5 151 101.5s76.833 93.333 101.5 151s37 119.5 37 185.5s-12.333 127.833 -37 185.5
s-58.5 108 -101.5 151s-93.333 76.833 -151 101.5s-119.5 37 -185.5 37s-127.833 -12.333 -185.5 -37s-108 -58.5 -151 -101.5s-76.833 -93.333 -101.5 -151s-37 -119.5 -37 -185.5zM546.999 1199l-70 17l9 55h261c68.667 0 120.667 -13.5 156 -40.5s53 -69.5 53 -127.5
c0 -44.667 -10 -80.667 -30 -108s-44.667 -50 -74 -68v-6l124 -207l72 -14l-9 -55h-156l-155 266h-59v-196l70 -15l-9 -55h-244l-9 55l70 15v484zM668.999 1187l0.000976562 -191.999h56c14.667 0 27.667 0.833008 39 2.5s21 3.5 29 5.5
c9.33301 2.66699 17.666 5.66699 24.999 9l7 23l4.5 26c1.66699 10 2.5 21 2.5 33c0 25.333 -9 47.166 -27 65.499s-48 27.5 -90 27.5h-46z" />
    <glyph glyph-name="macron" unicode="&#xaf;" horiz-adv-x="1030" 
d="M169 1473h711l-20 -120h-710z" />
    <glyph glyph-name="degree" unicode="&#xb0;" horiz-adv-x="614" 
d="M80 1305c0 35.333 6.66699 68.666 20 99.999s31.666 58.666 54.999 81.999s50.666 41.666 81.999 54.999s64.666 20 99.999 20s68.666 -6.66699 99.999 -20s58.666 -31.666 81.999 -54.999s41.666 -50.666 54.999 -81.999s20 -64.666 20 -99.999
s-6.66699 -68.666 -20 -99.999s-31.666 -58.666 -54.999 -81.999s-50.666 -41.666 -81.999 -54.999s-64.666 -20 -99.999 -20s-68.666 6.66699 -99.999 20s-58.666 31.666 -81.999 54.999s-41.666 50.666 -54.999 81.999s-20 64.666 -20 99.999zM209 1305
c0 -24 3.33301 -45.167 10 -63.5s15.834 -33.833 27.501 -46.5s25.167 -22.167 40.5 -28.5s32 -9.5 50 -9.5s34.667 3.16699 50 9.5s28.833 15.833 40.5 28.5s20.834 28.167 27.501 46.5s10 39.5 10 63.5s-3.33301 45.167 -10 63.5s-15.834 33.833 -27.501 46.5
s-25.167 22.167 -40.5 28.5s-32 9.5 -50 9.5s-34.667 -3.16699 -50 -9.5s-28.833 -15.833 -40.5 -28.5s-20.834 -28.167 -27.501 -46.5s-10 -39.5 -10 -63.5z" />
    <glyph glyph-name="plusminus" unicode="&#xb1;" horiz-adv-x="1063" 
d="M605 1085v-318h298v-147h-298v-318h-147v318h-298v147h298v318h147zM187 147h693v-147h-693v147z" />
    <glyph glyph-name="twosuperior" unicode="&#xb2;" horiz-adv-x="581" 
d="M375 1589c0 18.667 -2.83008 34.3291 -8.49707 46.9961s-13.334 22.834 -23.001 30.501s-21 13.167 -34 16.5s-26.833 5 -41.5 5c-13.333 0 -25.833 -1.16699 -37.5 -3.5s-22.167 -5.16602 -31.5 -8.49902c-10.667 -3.33301 -20.667 -7.33301 -30 -12l-28 -110l-75 5v156
c19.333 10.667 41 20 65 28c20.667 7.33301 44.667 14 72 20s57 9 89 9c31.333 0 60.166 -3.5 86.499 -10.5s48.833 -17.5 67.5 -31.5s33.167 -31.5 43.5 -52.5s15.5 -45.833 15.5 -74.5c0 -31.333 -7.5 -63.166 -22.5 -95.499s-35.167 -65.5 -60.5 -99.5
s-54.5 -68.833 -87.5 -104.5l-102.5 -108.5l2 -5h178l41 106l72 -11l-11 -200h-466v82l130 130.5c40 40.333 74.667 77.833 104 112.5s52.166 66.834 68.499 96.501s24.5 57.167 24.5 82.5z" />
    <glyph glyph-name="threesuperior" unicode="&#xb3;" horiz-adv-x="548" 
d="M244 1073c-27.333 0 -52.8291 2.00195 -76.4961 6.00195s-44.834 8.66699 -63.501 14c-22 6 -42 13 -60 21v165l73 6l26 -106c9.33301 -4.66699 20 -8.33398 32 -11.001c10 -2.66699 21.333 -5 34 -7s26.334 -3 41.001 -3c15.333 0 30 2.5 44 7.5s26.5 12.167 37.5 21.5
s19.667 21.166 26 35.499s9.5 31.166 9.5 50.499c0 22.667 -3.33301 42 -10 58s-15.667 29 -27 39s-24.833 17.333 -40.5 22s-32.834 7 -51.501 7h-44v84h46c34.667 0 60.5 9.5 77.5 28.5s25.5 45.5 25.5 79.5c0 36.667 -9.5 61.834 -28.5 75.501s-43.5 20.5 -73.5 20.5
c-11.333 0 -22 -0.833008 -32 -2.5s-19 -3.5 -27 -5.5c-9.33301 -2.66699 -18 -5.33398 -26 -8.00098l-26 -106l-73 6v164c16.667 6.66699 35.667 12.667 57 18c17.333 4.66699 38.166 9 62.499 13s50.5 6 78.5 6c72.667 0 127.167 -14.167 163.5 -42.5
s54.5 -68.166 54.5 -119.499c0 -24 -3.5 -44.833 -10.5 -62.5s-15.833 -33 -26.5 -46s-22.167 -23.833 -34.5 -32.5s-23.833 -16 -34.5 -22c16 -5.33301 31.667 -12.5 47 -21.5s29.166 -20 41.499 -33s22.166 -28.167 29.499 -45.5s11 -37.333 11 -60
c0 -36 -6.33301 -67.333 -19 -94s-30.167 -49 -52.5 -67s-49 -31.333 -80 -40s-64.5 -13 -100.5 -13z" />
    <glyph glyph-name="acute" unicode="&#xb4;" horiz-adv-x="1052" 
d="M397 1307l203 363l182 -10v-66l-280 -329l-105 10v32z" />
    <glyph glyph-name="uni00B5" unicode="&#xb5;" horiz-adv-x="1254" 
d="M1055 132l152.997 -34l-20 -98c-12.667 -4.66699 -25.667 -8.33398 -39 -11.001c-11.333 -3.33301 -24.5 -6 -39.5 -8s-30.167 -3 -45.5 -3c-25.333 0 -47.166 5.5 -65.499 16.5s-34.166 25.167 -47.499 42.5s-24.5 36.5 -33.5 57.5s-16.5 41.5 -22.5 61.5
c-16 -19.333 -34.333 -39.5 -55 -60.5s-44.667 -40.167 -72 -57.5s-58.333 -31.666 -93 -42.999s-74 -17 -118 -17c-30 0 -56.5 2.83301 -79.5 8.5s-43.167 13 -60.5 22s-32 18.667 -44 29s-21.667 20.166 -29 29.499l-10 -6l49 -496l-180 -22v1410l-153 34l20 98l313 22
v-704c0 -61.333 5.5 -111.666 16.5 -150.999s26.667 -70.333 47 -93s44.833 -38.5 73.5 -47.5s60.334 -13.5 95.001 -13.5c38 0 72.833 6.5 104.5 19.5s59.167 27.5 82.5 43.5c26.667 18.667 51 40 73 64v728l-183 34l20 98l343 22v-975z" />
    <glyph glyph-name="paragraph" unicode="&#xb6;" horiz-adv-x="1152" 
d="M525 485c-56 0 -110 8.00098 -162 24.001s-98.333 41 -139 75s-73.167 77.667 -97.5 131s-36.5 117.666 -36.5 192.999c0 74.667 11.167 140 33.5 196s53.5 102.333 93.5 139s87.333 64.167 142 82.5s114.334 27.5 179.001 27.5h514l20 -98l-152 -34v-1093
c0 -69.333 -10.333 -130.666 -31 -183.999s-47.834 -98.333 -81.501 -135s-72.167 -64.334 -115.5 -83.001s-87.666 -28 -132.999 -28c-42.667 0 -80.334 2.33301 -113.001 7s-60.667 10 -84 16c-26.667 7.33301 -50.334 15.333 -71.001 24v112
c19.333 -6 41.333 -11.333 66 -16c20.667 -4 45.167 -7.5 73.5 -10.5s59.5 -4.5 93.5 -4.5c32 0 60.667 5.33301 86 16s46.833 28.167 64.5 52.5s31.334 56 41.001 95s14.5 86.833 14.5 143.5v1091h-140v-739h-65z" />
    <glyph glyph-name="periodcentered" unicode="&#xb7;" horiz-adv-x="584" 
d="M180 654c0 20.667 2.33301 40.332 7 58.999s11.167 35 19.5 49s18 25.167 29 33.5s22.5 12.5 34.5 12.5c22 0 42.333 -2.33301 61 -7s34.834 -11.167 48.501 -19.5s24.5 -18.166 32.5 -29.499s12 -23.333 12 -36c0 -20 -2.33301 -39.333 -7 -58s-11.167 -35 -19.5 -49
s-18 -25.167 -29 -33.5s-22.833 -12.5 -35.5 -12.5c-21.333 0 -41.333 2.33301 -60 7s-34.834 11.167 -48.501 19.5s-24.5 18 -32.5 29s-12 22.833 -12 35.5z" />
    <glyph glyph-name="cedilla" unicode="&#xb8;" horiz-adv-x="818" 
d="M475 37l-48.9971 -134.999c28 -7.33301 53.667 -15.666 77 -24.999s43.5 -20.833 60.5 -34.5s30.333 -30 40 -49s14.5 -41.833 14.5 -68.5s-5.16699 -51.167 -15.5 -73.5s-25.333 -41.5 -45 -57.5s-43.667 -28.5 -72 -37.5s-60.166 -13.5 -95.499 -13.5
c-26.667 0 -51.334 2.33301 -74.001 7s-42.667 10 -60 16c-20 7.33301 -38.667 15.333 -56 24v93c18 -7.33301 37 -14 57 -20c17.333 -5.33301 36.666 -10 57.999 -14s43 -6 65 -6c13.333 0 25.166 0.666992 35.499 2s19.166 2.66602 26.499 3.99902c8 2 15 4.33301 21 7
l7 17c1.33301 5.33301 2.83301 11.666 4.5 18.999s2.5 15 2.5 23c0 26 -12.833 47.333 -38.5 64s-66.5 31.667 -122.5 45l-34 55l61 158h132z" />
    <glyph glyph-name="onesuperior" unicode="&#xb9;" horiz-adv-x="446" 
d="M66 1154l102 17v487h-113l-5 47l182 57h66v-591l101 -17l-10 -69h-313z" />
    <glyph glyph-name="ordmasculine" unicode="&#xba;" horiz-adv-x="581" 
d="M286 810c-82.667 0 -144.333 20.002 -185 60.002s-61 93.667 -61 161v46c0 48.667 6.33301 91.5 19 128.5s30.167 68 52.5 93s48.833 44 79.5 57s64 19.5 100 19.5c36.667 0 70.334 -4.5 101.001 -13.5s57 -22.667 79 -41s39.167 -41.833 51.5 -70.5
s18.5 -62.334 18.5 -101.001v-47c0 -40.667 -5.33301 -78.834 -16 -114.501s-26.667 -66.667 -48 -93s-47.833 -47 -79.5 -62s-68.834 -22.5 -111.501 -22.5zM416.001 1132c0 31.333 -4 57.5 -12 78.5s-18.333 37.667 -31 50s-27.167 21.166 -43.5 26.499s-32.5 8 -48.5 8
c-12 0 -23.333 -1.66699 -34 -5s-19.667 -6.66602 -27 -9.99902c-9.33301 -4.66699 -17.666 -9.66699 -24.999 -15c-6 -10.667 -11 -24 -15 -40c-4 -13.333 -7.5 -30 -10.5 -50s-4.5 -42.667 -4.5 -68v-59c0 -28 3.83301 -52 11.5 -72s18 -36.333 31 -49s27.5 -22 43.5 -28
s32.667 -9 50 -9c11.333 0 22 1.5 32 4.5s19 6.5 27 10.5c9.33301 4 18 9 26 15c5.33301 10 10.333 22.333 15 37c3.33301 12.667 6.66602 28.5 9.99902 47.5s5 41.833 5 68.5v59z" />
    <glyph glyph-name="guillemotright" unicode="&#xbb;" horiz-adv-x="1063" 
d="M433 115v22l300 419v20l-300 419v22h85l395 -421v-60l-395 -421h-85zM170 159v22l167 385l-167 385v22h85l266 -389v-36l-266 -389h-85z" />
    <glyph glyph-name="onequarter" unicode="&#xbc;" horiz-adv-x="1374" 
d="M106 745l102 17v487h-113l-5 47l182 57h66v-591l101 -17l-10 -69h-313zM1103 1353h105v-20l-979 -1333h-105v20zM920 69l116 17v75h-264l-12 63l270 453h127l-265 -431h144v148h130v-148h86l12 -70l-98 -17v-73l96 -17l-10 -69h-322z" />
    <glyph glyph-name="onehalf" unicode="&#xbd;" horiz-adv-x="1433" 
d="M126 745l102 17v487h-113l-5 47l182 57h66v-591l101 -17l-10 -69h-313zM1123 1353h105v-20l-979 -1333h-105v20zM1173 504c0 18.667 -2.83008 34.3291 -8.49707 46.9961s-13.334 22.834 -23.001 30.501s-21 13.167 -34 16.5s-26.833 5 -41.5 5
c-13.333 0 -25.833 -1.16699 -37.5 -3.5s-22.167 -5.16602 -31.5 -8.49902c-10.667 -3.33301 -20.667 -7.33301 -30 -12l-28 -110l-75 5v156c19.333 10.667 41 20 65 28c20.667 7.33301 44.667 14 72 20s57 9 89 9c31.333 0 60.166 -3.5 86.499 -10.5
s48.833 -17.5 67.5 -31.5s33.167 -31.5 43.5 -52.5s15.5 -45.833 15.5 -74.5c0 -31.333 -7.5 -63.166 -22.5 -95.499s-35.167 -65.5 -60.5 -99.5s-54.5 -68.833 -87.5 -104.5l-102.5 -108.5l2 -5h178l41 106l72 -11l-11 -200h-466v82l130 130.5
c40 40.333 74.667 77.833 104 112.5s52.166 66.834 68.499 96.501s24.5 57.167 24.5 82.5z" />
    <glyph glyph-name="threequarters" unicode="&#xbe;" horiz-adv-x="1423" 
d="M310 676c-27.333 0 -52.8291 2.00195 -76.4961 6.00195s-44.834 8.66699 -63.501 14c-22 6 -42 13 -60 21v165l73 6l26 -106c9.33301 -4.66699 20 -8.33398 32 -11.001c10 -2.66699 21.333 -5 34 -7s26.334 -3 41.001 -3c15.333 0 30 2.5 44 7.5s26.5 12.167 37.5 21.5
s19.667 21.166 26 35.499s9.5 31.166 9.5 50.499c0 22.667 -3.33301 42 -10 58s-15.667 29 -27 39s-24.833 17.333 -40.5 22s-32.834 7 -51.501 7h-44v84h46c34.667 0 60.5 9.5 77.5 28.5s25.5 45.5 25.5 79.5c0 36.667 -9.5 61.834 -28.5 75.501s-43.5 20.5 -73.5 20.5
c-11.333 0 -22 -0.833008 -32 -2.5s-19 -3.5 -27 -5.5c-9.33301 -2.66699 -18 -5.33398 -26 -8.00098l-26 -106l-73 6v164c16.667 6.66699 35.667 12.667 57 18c17.333 4.66699 38.166 9 62.499 13s50.5 6 78.5 6c72.667 0 127.167 -14.167 163.5 -42.5
s54.5 -68.166 54.5 -119.499c0 -24 -3.5 -44.833 -10.5 -62.5s-15.833 -33 -26.5 -46s-22.167 -23.833 -34.5 -32.5s-23.833 -16 -34.5 -22c16 -5.33301 31.667 -12.5 47 -21.5s29.166 -20 41.499 -33s22.166 -28.167 29.499 -45.5s11 -37.333 11 -60
c0 -36 -6.33301 -67.333 -19 -94s-30.167 -49 -52.5 -67s-49 -31.333 -80 -40s-64.5 -13 -100.5 -13zM1152 1353h105v-20l-979 -1333h-105v20zM969.004 69.002l116 17v75h-264l-12 63l270 453h127l-265 -431h144v148h130v-148h86l12 -70l-98 -17v-73l96 -17l-10 -69h-322z
" />
    <glyph glyph-name="questiondown" unicode="&#xbf;" horiz-adv-x="979" 
d="M473 327c41.333 37.333 71.5029 70.6689 90.5029 100.002s28.5 58.666 28.5 87.999c0 25.333 -8 44 -24 56s-38.667 18 -68 18c-19.333 0 -37.333 -1.66699 -54 -5s-31.334 -7 -44.001 -11c-14.667 -4.66699 -28.334 -9.66699 -41.001 -15v101
c14.667 9.33301 31.334 17.666 50.001 24.999c16 6 35.167 11.667 57.5 17s47.5 8 75.5 8c30 0 58.667 -4 86 -12s51.5 -20 72.5 -36s37.833 -36.167 50.5 -60.5s19 -52.5 19 -84.5c0 -26 -3 -51 -9 -75s-16 -48.167 -30 -72.5s-32.167 -49.666 -54.5 -75.999
s-49.833 -54.5 -82.5 -84.5l-152 -140c-30 -28 -55.5 -53.333 -76.5 -76s-38 -44 -51 -64s-22.333 -39.333 -28 -58s-8.5 -38 -8.5 -58c0 -20.667 4.66699 -40 14 -58s24.166 -33.833 44.499 -47.5s46.666 -24.334 78.999 -32.001s71.833 -11.5 118.5 -11.5
c29.333 0 55 1.5 77 4.5s40.667 6.16699 56 9.5c17.333 4 33 8.66699 47 14l71 229l112 -17v-277c-30.667 -16 -66 -30 -106 -42c-34 -10.667 -75 -20.167 -123 -28.5s-101.667 -12.5 -161 -12.5c-132 0 -233.167 23 -303.5 69s-105.5 114 -105.5 204
c0 34.667 4.33301 67.167 13 97.5s22 60 40 89s41 58.5 69 88.5s61.333 62.667 100 98zM723.003 1006c0 -23.333 -2.66504 -45.332 -7.99805 -65.999s-12.5 -38.834 -21.5 -54.501s-19.667 -28.167 -32 -37.5s-25.5 -14 -39.5 -14c-24 0 -46.333 2.66699 -67 8
s-38.834 12.833 -54.501 22.5s-27.834 20.667 -36.501 33s-13 25.5 -13 39.5c0 22.667 2.66699 44.167 8 64.5s12.5 38.333 21.5 54s19.833 28.167 32.5 37.5s26 14 40 14c24 0 46.333 -2.66699 67 -8s38.667 -12.5 54 -21.5s27.333 -19.667 36 -32s13 -25.5 13 -39.5z" />
    <glyph glyph-name="Agrave" unicode="&#xc0;" horiz-adv-x="1218" 
d="M-8 98l108 29l440 1226h149l429 -1226l108 -29l-20 -98h-385l-20 98l128 29l-94 279h-491l-96 -279l128 -29l-20 -98h-344zM389 535h402l-194 569h-10zM794 1471l-115 -11l-375 248v66l192 10l298 -281v-32z" />
    <glyph glyph-name="Aacute" unicode="&#xc1;" horiz-adv-x="1218" 
d="M-8 98l108 29l440 1226h149l429 -1226l108 -29l-20 -98h-385l-20 98l128 29l-94 279h-491l-96 -279l128 -29l-20 -98h-344zM389 535h402l-194 569h-10zM472 1503l298 281l192 -10v-66l-375 -248l-115 11v32z" />
    <glyph glyph-name="Acircumflex" unicode="&#xc2;" horiz-adv-x="1218" 
d="M-8 98l108 29l440 1226h149l429 -1226l108 -29l-20 -98h-385l-20 98l128 29l-94 279h-491l-96 -279l128 -29l-20 -98h-344zM389 535h402l-194 569h-10zM970 1470l-125 -10l-238 192l-231 -192l-95 10v32l283 292l133 -10l273 -282v-32z" />
    <glyph glyph-name="Atilde" unicode="&#xc3;" horiz-adv-x="1218" 
d="M-8 98l108 29l440 1226h149l429 -1226l108 -29l-20 -98h-385l-20 98l128 29l-94 279h-491l-96 -279l128 -29l-20 -98h-344zM389 535h402l-194 569h-10zM214 1520c0 75.333 19.5 132.332 58.5 170.999s92.833 58 161.5 58c36 0 72.5 -6.83301 109.5 -20.5
s72.333 -28.834 106 -45.501l93.5 -45.5c28.667 -13.667 52.667 -20.5 72 -20.5c25.333 0 45.5 9.83301 60.5 29.5s22.5 49.834 22.5 90.501l117 10v-47c0 -70.667 -17.833 -126.5 -53.5 -167.5s-87.167 -61.5 -154.5 -61.5c-32.667 0 -68.167 6.83301 -106.5 20.5
s-76 28.834 -113 45.501l-102.5 45.5c-31.333 13.667 -56.333 20.5 -75 20.5c-13.333 0 -25.5 -1.33301 -36.5 -4s-20.167 -7.66699 -27.5 -15s-13 -17.333 -17 -30s-6 -29 -6 -49l-109 -10v25z" />
    <glyph glyph-name="Adieresis" unicode="&#xc4;" horiz-adv-x="1218" 
d="M-8 98l108 29l440 1226h149l429 -1226l108 -29l-20 -98h-385l-20 98l128 29l-94 279h-491l-96 -279l128 -29l-20 -98h-344zM389 535h402l-194 569h-10zM277 1581c0 16.667 2.33105 32.667 6.99805 48s11.167 28.833 19.5 40.5s17.833 20.834 28.5 27.501s22 10 34 10
c17.333 0 33.666 -2.33301 48.999 -7s28.5 -11 39.5 -19s19.667 -17.5 26 -28.5s9.5 -22.833 9.5 -35.5c0 -16.667 -2.33301 -32.5 -7 -47.5s-11 -28.333 -19 -40s-17.333 -20.834 -28 -27.501s-22 -10 -34 -10c-17.333 0 -33.666 2.33301 -48.999 7
s-28.666 11.167 -39.999 19.5s-20.166 17.833 -26.499 28.5s-9.5 22 -9.5 34zM736.998 1581c0 16.667 2.33496 32.667 7.00195 48s11 28.833 19 40.5s17.333 20.834 28 27.501s22 10 34 10c17.333 0 33.666 -2.33301 48.999 -7s28.666 -11 39.999 -19
s20.166 -17.5 26.499 -28.5s9.5 -22.833 9.5 -35.5c0 -16.667 -2.33301 -32.5 -7 -47.5s-11.167 -28.333 -19.5 -40s-17.833 -20.834 -28.5 -27.501s-22 -10 -34 -10c-17.333 0 -33.666 2.33301 -48.999 7s-28.5 11.167 -39.5 19.5s-19.667 17.833 -26 28.5s-9.5 22 -9.5 34
z" />
    <glyph glyph-name="Aring" unicode="&#xc5;" horiz-adv-x="1218" 
d="M-8 98l108 29l440 1226h149l429 -1226l108 -29l-20 -98h-385l-20 98l128 29l-94 279h-491l-96 -279l128 -29l-20 -98h-344zM389 535h402l-194 569h-10zM431 1570c0 34.667 5.33398 65.334 16.001 92.001s25 49 43 67s39 31.667 63 41s49.667 14 77 14
c24 0 46.833 -3 68.5 -9s40.667 -15.167 57 -27.5s29.166 -28 38.499 -47s14 -41.167 14 -66.5c0 -36.667 -5.16699 -68.5 -15.5 -95.5s-24.5 -49.167 -42.5 -66.5s-39 -30.333 -63 -39s-49.667 -13 -77 -13c-24.667 0 -47.834 3.16699 -69.501 9.5
s-40.667 15.666 -57 27.999s-29.166 27.833 -38.499 46.5s-14 40.667 -14 66zM531.001 1602c0 -32 8.83203 -57.333 26.499 -76s38.5 -28 62.5 -28c11.333 0 21.833 0.833008 31.5 2.5s18.167 3.83398 25.5 6.50098c8 2.66699 15.667 6 23 10
c1.33301 6.66699 2.66602 14.334 3.99902 23.001c1.33301 7.33301 2.5 16.166 3.5 26.499s1.5 22.166 1.5 35.499c0 32.667 -8.83301 58.334 -26.5 77.001s-38.5 28 -62.5 28c-11.333 0 -21.666 -1 -30.999 -3s-17.666 -4.33301 -24.999 -7
c-8.66699 -2.66699 -16.667 -5.66699 -24 -9c-2 -4.66699 -3.66699 -10.667 -5 -18c-1.33301 -6.66699 -2.33301 -15.334 -3 -26.001s-1 -24.667 -1 -42z" />
    <glyph glyph-name="AE" unicode="&#xc6;" horiz-adv-x="1782" 
d="M-12 98l130 31l638 1224h868l24 -300l-103 -22l-83 193h-452v-452h357l34 122l99 -20v-334l-99 -20l-34 123h-357v-514h481l83 193l104 -23l-24 -299h-967l-20 98l153 34v274h-392l-144 -281l108 -27l-20 -98h-364zM820 535v634l-326 -634h326z" />
    <glyph glyph-name="Ccedilla" unicode="&#xc7;" horiz-adv-x="1176" 
d="M100 604c0 254 51.335 446 154.002 576s253 195 451 195c63.333 0 127.333 -5 192 -15s121.667 -24.667 171 -44l21 -270l-105 -22l-83 195c-25.333 8 -57.666 14.5 -96.999 19.5s-81.333 7.5 -126 7.5c-57.333 0 -111.833 -7.66699 -163.5 -23s-96.834 -37 -135.501 -65
c-26.667 -61.333 -48.167 -134.666 -64.5 -219.999s-24.5 -170.333 -24.5 -255v-133c0 -142.667 39.167 -252.167 117.5 -328.5s183.5 -114.5 315.5 -114.5c62.667 0 126.834 9.83301 192.501 29.5s124.5 44.5 176.5 74.5v-106c-62 -40 -130.667 -71.333 -206 -94
c-55.333 -16 -110.333 -26 -165 -30l-28 -79c28 -7.33301 53.667 -15.666 77 -24.999s43.5 -20.833 60.5 -34.5s30.333 -30 40 -49s14.5 -41.833 14.5 -68.5s-5.16699 -51.167 -15.5 -73.5s-25.333 -41.5 -45 -57.5s-43.667 -28.5 -72 -37.5s-60.166 -13.5 -95.499 -13.5
c-26.667 0 -51.334 2.33301 -74.001 7s-42.667 10 -60 16c-20 7.33301 -38.667 15.333 -56 24v93c18 -7.33301 37 -14 57 -20c17.333 -5.33301 36.666 -10 57.999 -14s43 -6 65 -6c13.333 0 25.166 0.666992 35.499 2s19.166 2.66602 26.499 3.99902c8 2 15 4.33301 21 7
l7 17c1.33301 5.33301 2.83301 11.666 4.5 18.999s2.5 15 2.5 23c0 26 -12.833 47.333 -38.5 64s-66.5 31.667 -122.5 45l-34 55l39 102c-148.667 10.667 -264 54.334 -346 131.001c-94.667 89.333 -142 223.666 -142 402.999v89z" />
    <glyph glyph-name="Egrave" unicode="&#xc8;" horiz-adv-x="1191" 
d="M419 643v-514h481l83 193l104 -23l-24 -299h-967l-20 98l153 34v1089l-153 34l20 98h937l24 -300l-103 -22l-83 193h-452v-452h357l34 122l99 -20v-334l-99 -20l-34 123h-357zM769 1471l-115 -11l-375 248v66l192 10l298 -281v-32z" />
    <glyph glyph-name="Eacute" unicode="&#xc9;" horiz-adv-x="1191" 
d="M419 643v-514h481l83 193l104 -23l-24 -299h-967l-20 98l153 34v1089l-153 34l20 98h937l24 -300l-103 -22l-83 193h-452v-452h357l34 122l99 -20v-334l-99 -20l-34 123h-357zM447 1503l298 281l192 -10v-66l-375 -248l-115 11v32z" />
    <glyph glyph-name="Ecircumflex" unicode="&#xca;" horiz-adv-x="1191" 
d="M419 643v-514h481l83 193l104 -23l-24 -299h-967l-20 98l153 34v1089l-153 34l20 98h937l24 -300l-103 -22l-83 193h-452v-452h357l34 122l99 -20v-334l-99 -20l-34 123h-357zM945 1470l-125 -10l-238 192l-231 -192l-95 10v32l283 292l133 -10l273 -282v-32z" />
    <glyph glyph-name="Edieresis" unicode="&#xcb;" horiz-adv-x="1191" 
d="M419 643v-514h481l83 193l104 -23l-24 -299h-967l-20 98l153 34v1089l-153 34l20 98h937l24 -300l-103 -22l-83 193h-452v-452h357l34 122l99 -20v-334l-99 -20l-34 123h-357zM252 1581c0 16.667 2.33105 32.667 6.99805 48s11.167 28.833 19.5 40.5
s17.833 20.834 28.5 27.501s22 10 34 10c17.333 0 33.666 -2.33301 48.999 -7s28.5 -11 39.5 -19s19.667 -17.5 26 -28.5s9.5 -22.833 9.5 -35.5c0 -16.667 -2.33301 -32.5 -7 -47.5s-11 -28.333 -19 -40s-17.333 -20.834 -28 -27.501s-22 -10 -34 -10
c-17.333 0 -33.666 2.33301 -48.999 7s-28.666 11.167 -39.999 19.5s-20.166 17.833 -26.499 28.5s-9.5 22 -9.5 34zM711.998 1581c0 16.667 2.33496 32.667 7.00195 48s11 28.833 19 40.5s17.333 20.834 28 27.501s22 10 34 10c17.333 0 33.666 -2.33301 48.999 -7
s28.666 -11 39.999 -19s20.166 -17.5 26.499 -28.5s9.5 -22.833 9.5 -35.5c0 -16.667 -2.33301 -32.5 -7 -47.5s-11.167 -28.333 -19.5 -40s-17.833 -20.834 -28.5 -27.501s-22 -10 -34 -10c-17.333 0 -33.666 2.33301 -48.999 7s-28.5 11.167 -39.5 19.5
s-19.667 17.833 -26 28.5s-9.5 22 -9.5 34z" />
    <glyph glyph-name="Igrave" unicode="&#xcc;" horiz-adv-x="643" 
d="M225 1221l-153 34l20 98h455l20 -98l-152 -34v-1089l152 -34l-20 -98h-455l-20 98l153 34v1089zM499 1471l-115 -11l-375 248v66l192 10l298 -281v-32z" />
    <glyph glyph-name="Iacute" unicode="&#xcd;" horiz-adv-x="643" 
d="M225 1221l-153 34l20 98h455l20 -98l-152 -34v-1089l152 -34l-20 -98h-455l-20 98l153 34v1089zM176 1503l298 281l192 -10v-66l-375 -248l-115 11v32z" />
    <glyph glyph-name="Icircumflex" unicode="&#xce;" horiz-adv-x="643" 
d="M225 1221l-153 34l20 98h455l20 -98l-152 -34v-1089l152 -34l-20 -98h-455l-20 98l153 34v1089zM674 1470l-125 -10l-238 192l-231 -192l-95 10v32l283 292l133 -10l273 -282v-32z" />
    <glyph glyph-name="Idieresis" unicode="&#xcf;" horiz-adv-x="643" 
d="M225 1221l-153 34l20 98h455l20 -98l-152 -34v-1089l152 -34l-20 -98h-455l-20 98l153 34v1089zM-19 1581c0 16.667 2.33105 32.667 6.99805 48s11.167 28.833 19.5 40.5s17.833 20.834 28.5 27.501s22 10 34 10c17.333 0 33.666 -2.33301 48.999 -7s28.5 -11 39.5 -19
s19.667 -17.5 26 -28.5s9.5 -22.833 9.5 -35.5c0 -16.667 -2.33301 -32.5 -7 -47.5s-11 -28.333 -19 -40s-17.333 -20.834 -28 -27.501s-22 -10 -34 -10c-17.333 0 -33.666 2.33301 -48.999 7s-28.666 11.167 -39.999 19.5s-20.166 17.833 -26.499 28.5s-9.5 22 -9.5 34z
M440.998 1581c0 16.667 2.33496 32.667 7.00195 48s11 28.833 19 40.5s17.333 20.834 28 27.501s22 10 34 10c17.333 0 33.666 -2.33301 48.999 -7s28.666 -11 39.999 -19s20.166 -17.5 26.499 -28.5s9.5 -22.833 9.5 -35.5c0 -16.667 -2.33301 -32.5 -7 -47.5
s-11.167 -28.333 -19.5 -40s-17.833 -20.834 -28.5 -27.501s-22 -10 -34 -10c-17.333 0 -33.666 2.33301 -48.999 7s-28.5 11.167 -39.5 19.5s-19.667 17.833 -26 28.5s-9.5 22 -9.5 34z" />
    <glyph glyph-name="Eth" unicode="&#xd0;" horiz-adv-x="1362" 
d="M78 758l153.001 0.000976562v463l-153 34l20 98h540c102.667 0 192.167 -13.167 268.5 -39.5s139.666 -64.666 189.999 -114.999s87.833 -112 112.5 -185s37 -155.833 37 -248.5v-78c0 -104.667 -13.167 -199.334 -39.5 -284.001s-64.5 -156.834 -114.5 -216.501
s-111.167 -105.667 -183.5 -138s-154.833 -48.5 -247.5 -48.5h-563l-20 98l153 34v497h-153v129zM421.001 1224v-466h290v-129h-290v-500h211c40 0 77 2.5 111 7.5s63.333 10.5 88 16.5c28.667 7.33301 55 15.666 79 24.999c26.667 34.667 51 74.667 73 120
c18 38.667 34.667 85.167 50 139.5s23 115.833 23 184.5v94c0 78.667 -9.33301 149.334 -28 212.001s-46.834 116 -84.501 160s-85.167 77.667 -142.5 101s-124.666 35 -201.999 35h-178z" />
    <glyph glyph-name="Ntilde" unicode="&#xd1;" horiz-adv-x="1532" 
d="M225 1221l-153 34l20 98h420l655 -1217h16v1085l-154 34l20 98h407l20 -98l-152 -34v-1221h-287l-656 1218h-16v-1086l152 -34l-20 -98h-405l-20 98l153 34v1089zM374 1520c0 75.333 19.5 132.332 58.5 170.999s92.833 58 161.5 58c36 0 72.5 -6.83301 109.5 -20.5
s72.333 -28.834 106 -45.501l93.5 -45.5c28.667 -13.667 52.667 -20.5 72 -20.5c25.333 0 45.5 9.83301 60.5 29.5s22.5 49.834 22.5 90.501l117 10v-47c0 -70.667 -17.833 -126.5 -53.5 -167.5s-87.167 -61.5 -154.5 -61.5c-32.667 0 -68.167 6.83301 -106.5 20.5
s-76 28.834 -113 45.501l-102.5 45.5c-31.333 13.667 -56.333 20.5 -75 20.5c-13.333 0 -25.5 -1.33301 -36.5 -4s-20.167 -7.66699 -27.5 -15s-13 -17.333 -17 -30s-6 -29 -6 -49l-109 -10v25z" />
    <glyph glyph-name="Ograve" unicode="&#xd2;" horiz-adv-x="1345" 
d="M663 -22c-186 0 -326 45.833 -420 137.5s-141 228.167 -141 409.5v79c0 259.333 49.333 452.666 148 579.999s243 191 433 191c185.333 0 325 -45.5 419 -136.5s141 -228.167 141 -411.5v-78c0 -251.333 -48 -442.666 -144 -573.999s-241.333 -197 -436 -197zM1053 783
c0 157.333 -34.835 273.831 -104.502 349.498s-168.167 113.5 -295.5 113.5c-59.333 0 -115.333 -9.16699 -168 -27.5s-94 -38.5 -124 -60.5c-20 -61.333 -36.5 -130.166 -49.5 -206.499s-19.5 -159.166 -19.5 -248.499v-133c0 -147.333 37.5 -261.333 112.5 -342
s171.167 -121 288.5 -121c58.667 0 113.834 8.83301 165.501 26.5s93.834 38.5 126.501 62.5c21.333 66.667 38 140 50 220s18 158 18 234v133zM843.998 1471l-115 -11l-375 248v66l192 10l298 -281v-32z" />
    <glyph glyph-name="Oacute" unicode="&#xd3;" horiz-adv-x="1345" 
d="M663 -22c-186 0 -326 45.833 -420 137.5s-141 228.167 -141 409.5v79c0 259.333 49.333 452.666 148 579.999s243 191 433 191c185.333 0 325 -45.5 419 -136.5s141 -228.167 141 -411.5v-78c0 -251.333 -48 -442.666 -144 -573.999s-241.333 -197 -436 -197zM1053 783
c0 157.333 -34.835 273.831 -104.502 349.498s-168.167 113.5 -295.5 113.5c-59.333 0 -115.333 -9.16699 -168 -27.5s-94 -38.5 -124 -60.5c-20 -61.333 -36.5 -130.166 -49.5 -206.499s-19.5 -159.166 -19.5 -248.499v-133c0 -147.333 37.5 -261.333 112.5 -342
s171.167 -121 288.5 -121c58.667 0 113.834 8.83301 165.501 26.5s93.834 38.5 126.501 62.5c21.333 66.667 38 140 50 220s18 158 18 234v133zM521.998 1503l298 281l192 -10v-66l-375 -248l-115 11v32z" />
    <glyph glyph-name="Ocircumflex" unicode="&#xd4;" horiz-adv-x="1345" 
d="M663 -22c-186 0 -326 45.833 -420 137.5s-141 228.167 -141 409.5v79c0 259.333 49.333 452.666 148 579.999s243 191 433 191c185.333 0 325 -45.5 419 -136.5s141 -228.167 141 -411.5v-78c0 -251.333 -48 -442.666 -144 -573.999s-241.333 -197 -436 -197zM1053 783
c0 157.333 -34.835 273.831 -104.502 349.498s-168.167 113.5 -295.5 113.5c-59.333 0 -115.333 -9.16699 -168 -27.5s-94 -38.5 -124 -60.5c-20 -61.333 -36.5 -130.166 -49.5 -206.499s-19.5 -159.166 -19.5 -248.499v-133c0 -147.333 37.5 -261.333 112.5 -342
s171.167 -121 288.5 -121c58.667 0 113.834 8.83301 165.501 26.5s93.834 38.5 126.501 62.5c21.333 66.667 38 140 50 220s18 158 18 234v133zM1020 1470l-125 -10l-238 192l-231 -192l-95 10v32l283 292l133 -10l273 -282v-32z" />
    <glyph glyph-name="Otilde" unicode="&#xd5;" horiz-adv-x="1345" 
d="M663 -22c-186 0 -326 45.833 -420 137.5s-141 228.167 -141 409.5v79c0 259.333 49.333 452.666 148 579.999s243 191 433 191c185.333 0 325 -45.5 419 -136.5s141 -228.167 141 -411.5v-78c0 -251.333 -48 -442.666 -144 -573.999s-241.333 -197 -436 -197zM1053 783
c0 157.333 -34.835 273.831 -104.502 349.498s-168.167 113.5 -295.5 113.5c-59.333 0 -115.333 -9.16699 -168 -27.5s-94 -38.5 -124 -60.5c-20 -61.333 -36.5 -130.166 -49.5 -206.499s-19.5 -159.166 -19.5 -248.499v-133c0 -147.333 37.5 -261.333 112.5 -342
s171.167 -121 288.5 -121c58.667 0 113.834 8.83301 165.501 26.5s93.834 38.5 126.501 62.5c21.333 66.667 38 140 50 220s18 158 18 234v133zM252.998 1520c0 75.333 19.5 132.332 58.5 170.999s92.833 58 161.5 58c36 0 72.5 -6.83301 109.5 -20.5
s72.333 -28.834 106 -45.501l93.5 -45.5c28.667 -13.667 52.667 -20.5 72 -20.5c25.333 0 45.5 9.83301 60.5 29.5s22.5 49.834 22.5 90.501l117 10v-47c0 -70.667 -17.833 -126.5 -53.5 -167.5s-87.167 -61.5 -154.5 -61.5c-32.667 0 -68.167 6.83301 -106.5 20.5
s-76 28.834 -113 45.501l-102.5 45.5c-31.333 13.667 -56.333 20.5 -75 20.5c-13.333 0 -25.5 -1.33301 -36.5 -4s-20.167 -7.66699 -27.5 -15s-13 -17.333 -17 -30s-6 -29 -6 -49l-109 -10v25z" />
    <glyph glyph-name="Odieresis" unicode="&#xd6;" horiz-adv-x="1345" 
d="M663 -22c-186 0 -326 45.833 -420 137.5s-141 228.167 -141 409.5v79c0 259.333 49.333 452.666 148 579.999s243 191 433 191c185.333 0 325 -45.5 419 -136.5s141 -228.167 141 -411.5v-78c0 -251.333 -48 -442.666 -144 -573.999s-241.333 -197 -436 -197zM1053 783
c0 157.333 -34.835 273.831 -104.502 349.498s-168.167 113.5 -295.5 113.5c-59.333 0 -115.333 -9.16699 -168 -27.5s-94 -38.5 -124 -60.5c-20 -61.333 -36.5 -130.166 -49.5 -206.499s-19.5 -159.166 -19.5 -248.499v-133c0 -147.333 37.5 -261.333 112.5 -342
s171.167 -121 288.5 -121c58.667 0 113.834 8.83301 165.501 26.5s93.834 38.5 126.501 62.5c21.333 66.667 38 140 50 220s18 158 18 234v133zM326.998 1581c0 16.667 2.33105 32.667 6.99805 48s11.167 28.833 19.5 40.5s17.833 20.834 28.5 27.501s22 10 34 10
c17.333 0 33.666 -2.33301 48.999 -7s28.5 -11 39.5 -19s19.667 -17.5 26 -28.5s9.5 -22.833 9.5 -35.5c0 -16.667 -2.33301 -32.5 -7 -47.5s-11 -28.333 -19 -40s-17.333 -20.834 -28 -27.501s-22 -10 -34 -10c-17.333 0 -33.666 2.33301 -48.999 7
s-28.666 11.167 -39.999 19.5s-20.166 17.833 -26.499 28.5s-9.5 22 -9.5 34zM786.996 1581c0 16.667 2.33496 32.667 7.00195 48s11 28.833 19 40.5s17.333 20.834 28 27.501s22 10 34 10c17.333 0 33.666 -2.33301 48.999 -7s28.666 -11 39.999 -19
s20.166 -17.5 26.499 -28.5s9.5 -22.833 9.5 -35.5c0 -16.667 -2.33301 -32.5 -7 -47.5s-11.167 -28.333 -19.5 -40s-17.833 -20.834 -28.5 -27.501s-22 -10 -34 -10c-17.333 0 -33.666 2.33301 -48.999 7s-28.5 11.167 -39.5 19.5s-19.667 17.833 -26 28.5s-9.5 22 -9.5 34
z" />
    <glyph glyph-name="multiply" unicode="&#xd7;" horiz-adv-x="1021" 
d="M264 944l246 -247l247 247l104 -104l-247 -247l247 -246l-104 -104l-247 246l-246 -246l-104 104l246 246l-246 247z" />
    <glyph glyph-name="Oslash" unicode="&#xd8;" horiz-adv-x="1345" 
d="M663 -22c-44.667 0 -86.666 2.66699 -125.999 8l-67 -216h-140v20l71 228c-62.667 22.667 -115.334 55 -158.001 97c-94 92 -141 228.667 -141 410v79c0 259.333 49.333 452.666 148 579.999s243 191 433 191c50 0 96.667 -3.33301 140 -10l55 175h140v-20l-60 -191
c56 -22 104 -52.333 144 -91c94 -90.667 141 -227.667 141 -411v-78c0 -251.333 -48 -442.666 -144 -573.999s-241.333 -197 -436 -197zM653.001 1246c-59.333 0 -115.331 -9.16895 -167.998 -27.502s-94 -38.5 -124 -60.5c-20 -61.333 -36.5 -130.166 -49.5 -206.499
s-19.5 -159.166 -19.5 -248.499v-133c0 -147.333 37.333 -261.333 112 -342c15.333 -16.667 31.666 -31.667 48.999 -45l328 1047c-38.667 10.667 -81.334 16 -128.001 16zM1053 782.998c0 157.333 -35.002 273.667 -105.002 349c-12 14 -25.333 26.333 -40 37l-328 -1048
c35.333 -9.33301 73 -14 113 -14c58.667 0 113.834 8.83301 165.501 26.5s93.834 38.5 126.501 62.5c21.333 66.667 38 140 50 220s18 158 18 234v133z" />
    <glyph glyph-name="Ugrave" unicode="&#xd9;" horiz-adv-x="1358" 
d="M360 546c0 -148.667 31.332 -259.001 93.999 -331.001s149 -108 259 -108c52.667 0 102 7.66699 148 23s82.667 33 110 53c22.667 41.333 41.334 91.333 56.001 150s22 121.334 22 188.001v700l-153 34l20 98h406l20 -98l-152 -34v-677
c0 -194 -42.333 -336.833 -127 -428.5s-214.667 -137.5 -390 -137.5c-166 0 -291.333 41.5 -376 124.5s-127 212.5 -127 388.5v730l-154 34l20 98h456l20 -98l-152 -34v-675zM885.999 1471l-115 -11l-375 248v66l192 10l298 -281v-32z" />
    <glyph glyph-name="Uacute" unicode="&#xda;" horiz-adv-x="1358" 
d="M360 546c0 -148.667 31.332 -259.001 93.999 -331.001s149 -108 259 -108c52.667 0 102 7.66699 148 23s82.667 33 110 53c22.667 41.333 41.334 91.333 56.001 150s22 121.334 22 188.001v700l-153 34l20 98h406l20 -98l-152 -34v-677
c0 -194 -42.333 -336.833 -127 -428.5s-214.667 -137.5 -390 -137.5c-166 0 -291.333 41.5 -376 124.5s-127 212.5 -127 388.5v730l-154 34l20 98h456l20 -98l-152 -34v-675zM563.999 1503l298 281l192 -10v-66l-375 -248l-115 11v32z" />
    <glyph glyph-name="Ucircumflex" unicode="&#xdb;" horiz-adv-x="1358" 
d="M360 546c0 -148.667 31.332 -259.001 93.999 -331.001s149 -108 259 -108c52.667 0 102 7.66699 148 23s82.667 33 110 53c22.667 41.333 41.334 91.333 56.001 150s22 121.334 22 188.001v700l-153 34l20 98h406l20 -98l-152 -34v-677
c0 -194 -42.333 -336.833 -127 -428.5s-214.667 -137.5 -390 -137.5c-166 0 -291.333 41.5 -376 124.5s-127 212.5 -127 388.5v730l-154 34l20 98h456l20 -98l-152 -34v-675zM1062 1470l-125 -10l-238 192l-231 -192l-95 10v32l283 292l133 -10l273 -282v-32z" />
    <glyph glyph-name="Udieresis" unicode="&#xdc;" horiz-adv-x="1358" 
d="M360 546c0 -148.667 31.332 -259.001 93.999 -331.001s149 -108 259 -108c52.667 0 102 7.66699 148 23s82.667 33 110 53c22.667 41.333 41.334 91.333 56.001 150s22 121.334 22 188.001v700l-153 34l20 98h406l20 -98l-152 -34v-677
c0 -194 -42.333 -336.833 -127 -428.5s-214.667 -137.5 -390 -137.5c-166 0 -291.333 41.5 -376 124.5s-127 212.5 -127 388.5v730l-154 34l20 98h456l20 -98l-152 -34v-675zM368.999 1581c0 16.667 2.33105 32.667 6.99805 48s11.167 28.833 19.5 40.5
s17.833 20.834 28.5 27.501s22 10 34 10c17.333 0 33.666 -2.33301 48.999 -7s28.5 -11 39.5 -19s19.667 -17.5 26 -28.5s9.5 -22.833 9.5 -35.5c0 -16.667 -2.33301 -32.5 -7 -47.5s-11 -28.333 -19 -40s-17.333 -20.834 -28 -27.501s-22 -10 -34 -10
c-17.333 0 -33.666 2.33301 -48.999 7s-28.666 11.167 -39.999 19.5s-20.166 17.833 -26.499 28.5s-9.5 22 -9.5 34zM828.997 1581c0 16.667 2.33496 32.667 7.00195 48s11 28.833 19 40.5s17.333 20.834 28 27.501s22 10 34 10c17.333 0 33.666 -2.33301 48.999 -7
s28.666 -11 39.999 -19s20.166 -17.5 26.499 -28.5s9.5 -22.833 9.5 -35.5c0 -16.667 -2.33301 -32.5 -7 -47.5s-11.167 -28.333 -19.5 -40s-17.833 -20.834 -28.5 -27.501s-22 -10 -34 -10c-17.333 0 -33.666 2.33301 -48.999 7s-28.5 11.167 -39.5 19.5
s-19.667 17.833 -26 28.5s-9.5 22 -9.5 34z" />
    <glyph glyph-name="Yacute" unicode="&#xdd;" horiz-adv-x="1122" 
d="M478 578l-416 648l-114 28l20 99h410l20 -99l-132 -28l321 -504h16l304 504l-125 28l20 99h352l20 -99l-111 -28l-395 -650v-444l152 -34l-20 -98h-455l-20 98l153 34v446zM453 1503l298 281l192 -10v-66l-375 -248l-115 11v32z" />
    <glyph glyph-name="Thorn" unicode="&#xde;" horiz-adv-x="1098" 
d="M225 1221l-153 34.001l20 98h455l20 -98l-152 -34v-149h168c142 0 250.333 -26.167 325 -78.5s112 -134.5 112 -246.5c0 -63.333 -11.167 -119 -33.5 -167s-52.333 -88.333 -90 -121s-81.5 -57.334 -131.5 -74.001s-103 -25 -159 -25h-191v-228l212 -34l-20 -98h-515
l-20 98l153 34v1089zM415 943.001v-454.001h150c34.667 0 66.167 1.83301 94.5 5.5s52.5 8.16699 72.5 13.5c23.333 5.33301 44.333 11.666 63 18.999c5.33301 16.667 10.333 34.667 15 54c4 16.667 7.66699 35.834 11 57.501s5 44.5 5 68.5
c0 34.667 -5.16699 66.5 -15.5 95.5s-27 53.833 -50 74.5s-53 36.834 -90 48.501s-82.167 17.5 -135.5 17.5h-120z" />
    <glyph glyph-name="germandbls" unicode="&#xdf;" horiz-adv-x="1289" 
d="M259 953l-162.994 33.9961l20 98h143v64c0 63.333 8.66699 120.5 26 171.5s43.666 94.333 78.999 130s80 63.167 134 82.5s117.667 29 191 29c50 0 97.167 -5.66699 141.5 -17s83 -29.666 116 -54.999s59.167 -58.5 78.5 -99.5s29 -91.167 29 -150.5
c0 -48 -5.83301 -91.667 -17.5 -131s-27.834 -76.166 -48.501 -110.499s-45.334 -67 -74.001 -98s-60 -61.5 -94 -91.5c18 -10.667 36.667 -22.334 56 -35.001l55.5 -38.5c20.333 -14.333 40.833 -30.166 61.5 -47.499c35.333 -30 66.166 -59.167 92.499 -87.5
s48.333 -57.333 66 -87s30.834 -60.667 39.501 -93s13 -67.833 13 -106.5c0 -52.667 -8.66699 -99.834 -26 -141.501s-41.666 -76.834 -72.999 -105.501s-68.5 -50.667 -111.5 -66s-89.833 -23 -140.5 -23c-48.667 0 -92.167 3.5 -130.5 10.5s-71.166 15.167 -98.499 24.5
c-32 10 -60 21.667 -84 35v231l111 10l46 -168c10.667 -4.66699 23.667 -8.66699 39 -12c13.333 -3.33301 29.333 -6 48 -8s40.667 -3 66 -3s47.666 1.66699 66.999 5s35.333 7.33301 48 12c14.667 4.66699 27 10.334 37 17.001c4 9.33301 7.66699 20 11 32
c2.66699 10.667 5.16699 23.834 7.5 39.501s3.5 34.167 3.5 55.5c0 24.667 -2.83301 49.334 -8.5 74.001s-15.834 50 -30.501 76s-34.5 53.333 -59.5 82s-56.833 59.334 -95.5 92.001c-24 20 -47.833 38.5 -71.5 55.5s-45.167 31.833 -64.5 44.5c-22 14.667 -43 28 -63 40
v65c40.667 36 76.167 71 106.5 105s55.666 68.333 75.999 103s35.5 70 45.5 106s15 73.667 15 113c0 78.667 -18.333 136.167 -55 172.5s-90 54.5 -160 54.5c-33.333 0 -62.333 -2.5 -87 -7.5s-45.334 -10.5 -62.001 -16.5c-19.333 -7.33301 -36 -15 -50 -23
c-4.66699 -18 -8.33398 -40 -11.001 -66c-2.66699 -22 -5 -49.167 -7 -81.5s-3 -69.833 -3 -112.5v-1135h-313l-20 98l153 34v821z" />
    <glyph glyph-name="agrave" unicode="&#xe0;" horiz-adv-x="1150" 
d="M939 132l172.999 -34.001l-20 -98l-255 -22l-58 177c-52 -63.333 -107.667 -108.666 -167 -135.999s-123.666 -41 -192.999 -41c-93.333 0 -168.5 23.333 -225.5 70s-85.5 109.667 -85.5 189c0 122 54 214.167 162 276.5s271 93.5 489 93.5v95
c0 100 -18.167 172.5 -54.5 217.5s-99.833 67.5 -190.5 67.5c-21.333 0 -45.833 -1.33301 -73.5 -4s-53.167 -6.33398 -76.5 -11.001l-60 -212l-98 10v283c40 14 89.5 26.5 148.5 37.5s118.5 16.5 178.5 16.5c136.667 0 238.5 -30.167 305.5 -90.5
s100.5 -154.166 100.5 -281.499v-603zM758.999 486.999c-100 0 -188.667 -6.50098 -266 -19.501s-136.333 -30.5 -177 -52.5c-8 -18.667 -14.667 -40 -20 -64s-8 -49.333 -8 -76c0 -55.333 18.333 -98.666 55 -129.999s84.667 -47 144 -47c50 0 99.333 12.5 148 37.5
s90 54.833 124 89.5v262zM654.999 1275l-118 -10l-290 329v66l175 10l233 -363v-32z" />
    <glyph glyph-name="aacute" unicode="&#xe1;" horiz-adv-x="1150" 
d="M939 132l172.999 -34.001l-20 -98l-255 -22l-58 177c-52 -63.333 -107.667 -108.666 -167 -135.999s-123.666 -41 -192.999 -41c-93.333 0 -168.5 23.333 -225.5 70s-85.5 109.667 -85.5 189c0 122 54 214.167 162 276.5s271 93.5 489 93.5v95
c0 100 -18.167 172.5 -54.5 217.5s-99.833 67.5 -190.5 67.5c-21.333 0 -45.833 -1.33301 -73.5 -4s-53.167 -6.33398 -76.5 -11.001l-60 -212l-98 10v283c40 14 89.5 26.5 148.5 37.5s118.5 16.5 178.5 16.5c136.667 0 238.5 -30.167 305.5 -90.5
s100.5 -154.166 100.5 -281.499v-603zM758.999 486.999c-100 0 -188.667 -6.50098 -266 -19.501s-136.333 -30.5 -177 -52.5c-8 -18.667 -14.667 -40 -20 -64s-8 -49.333 -8 -76c0 -55.333 18.333 -98.666 55 -129.999s84.667 -47 144 -47c50 0 99.333 12.5 148 37.5
s90 54.833 124 89.5v262zM469.999 1307l203 363l182 -10v-66l-280 -329l-105 10v32z" />
    <glyph glyph-name="acircumflex" unicode="&#xe2;" horiz-adv-x="1150" 
d="M939 132l172.999 -34.001l-20 -98l-255 -22l-58 177c-52 -63.333 -107.667 -108.666 -167 -135.999s-123.666 -41 -192.999 -41c-93.333 0 -168.5 23.333 -225.5 70s-85.5 109.667 -85.5 189c0 122 54 214.167 162 276.5s271 93.5 489 93.5v95
c0 100 -18.167 172.5 -54.5 217.5s-99.833 67.5 -190.5 67.5c-21.333 0 -45.833 -1.33301 -73.5 -4s-53.167 -6.33398 -76.5 -11.001l-60 -212l-98 10v283c40 14 89.5 26.5 148.5 37.5s118.5 16.5 178.5 16.5c136.667 0 238.5 -30.167 305.5 -90.5
s100.5 -154.166 100.5 -281.499v-603zM758.999 486.999c-100 0 -188.667 -6.50098 -266 -19.501s-136.333 -30.5 -177 -52.5c-8 -18.667 -14.667 -40 -20 -64s-8 -49.333 -8 -76c0 -55.333 18.333 -98.666 55 -129.999s84.667 -47 144 -47c50 0 99.333 12.5 148 37.5
s90 54.833 124 89.5v262zM851.999 1275l-125 -10l-193 252l-186 -252l-95 10v32l233 373l133 -10l233 -363v-32z" />
    <glyph glyph-name="atilde" unicode="&#xe3;" horiz-adv-x="1150" 
d="M939 132l172.999 -34.001l-20 -98l-255 -22l-58 177c-52 -63.333 -107.667 -108.666 -167 -135.999s-123.666 -41 -192.999 -41c-93.333 0 -168.5 23.333 -225.5 70s-85.5 109.667 -85.5 189c0 122 54 214.167 162 276.5s271 93.5 489 93.5v95
c0 100 -18.167 172.5 -54.5 217.5s-99.833 67.5 -190.5 67.5c-21.333 0 -45.833 -1.33301 -73.5 -4s-53.167 -6.33398 -76.5 -11.001l-60 -212l-98 10v283c40 14 89.5 26.5 148.5 37.5s118.5 16.5 178.5 16.5c136.667 0 238.5 -30.167 305.5 -90.5
s100.5 -154.166 100.5 -281.499v-603zM758.999 486.999c-100 0 -188.667 -6.50098 -266 -19.501s-136.333 -30.5 -177 -52.5c-8 -18.667 -14.667 -40 -20 -64s-8 -49.333 -8 -76c0 -55.333 18.333 -98.666 55 -129.999s84.667 -47 144 -47c50 0 99.333 12.5 148 37.5
s90 54.833 124 89.5v262zM149.999 1307c0 75.333 19.5 132.332 58.5 170.999s92.833 58 161.5 58c36 0 72.5 -6.83301 109.5 -20.5s72.333 -28.834 106 -45.501l93.5 -45.5c28.667 -13.667 52.667 -20.5 72 -20.5c25.333 0 45.5 9.83301 60.5 29.5s22.5 49.834 22.5 90.501
l117 10v-47c0 -70.667 -17.833 -126.5 -53.5 -167.5s-87.167 -61.5 -154.5 -61.5c-32.667 0 -68.167 6.83301 -106.5 20.5s-76 28.834 -113 45.501l-102.5 45.5c-31.333 13.667 -56.333 20.5 -75 20.5c-13.333 0 -25.5 -1.33301 -36.5 -4s-20.167 -7.66699 -27.5 -15
s-13 -17.333 -17 -30s-6 -29 -6 -49l-109 -10v25z" />
    <glyph glyph-name="adieresis" unicode="&#xe4;" horiz-adv-x="1150" 
d="M939 132l172.999 -34.001l-20 -98l-255 -22l-58 177c-52 -63.333 -107.667 -108.666 -167 -135.999s-123.666 -41 -192.999 -41c-93.333 0 -168.5 23.333 -225.5 70s-85.5 109.667 -85.5 189c0 122 54 214.167 162 276.5s271 93.5 489 93.5v95
c0 100 -18.167 172.5 -54.5 217.5s-99.833 67.5 -190.5 67.5c-21.333 0 -45.833 -1.33301 -73.5 -4s-53.167 -6.33398 -76.5 -11.001l-60 -212l-98 10v283c40 14 89.5 26.5 148.5 37.5s118.5 16.5 178.5 16.5c136.667 0 238.5 -30.167 305.5 -90.5
s100.5 -154.166 100.5 -281.499v-603zM758.999 486.999c-100 0 -188.667 -6.50098 -266 -19.501s-136.333 -30.5 -177 -52.5c-8 -18.667 -14.667 -40 -20 -64s-8 -49.333 -8 -76c0 -55.333 18.333 -98.666 55 -129.999s84.667 -47 144 -47c50 0 99.333 12.5 148 37.5
s90 54.833 124 89.5v262zM231.999 1384c0 16.667 2.33105 32.667 6.99805 48s11.167 28.833 19.5 40.5s17.833 20.834 28.5 27.501s22 10 34 10c17.333 0 33.666 -2.33301 48.999 -7s28.5 -11.167 39.5 -19.5s19.667 -18 26 -29s9.5 -22.5 9.5 -34.5
c0 -16.667 -2.33301 -32.5 -7 -47.5s-11 -28.333 -19 -40s-17.333 -20.834 -28 -27.501s-22 -10 -34 -10c-17.333 0 -33.666 2.33301 -48.999 7s-28.666 11.167 -39.999 19.5s-20.166 17.833 -26.499 28.5s-9.5 22 -9.5 34zM631.997 1384
c0 16.667 2.33496 32.667 7.00195 48s11 28.833 19 40.5s17.333 20.834 28 27.501s22 10 34 10c17.333 0 33.666 -2.33301 48.999 -7s28.666 -11.167 39.999 -19.5s20.166 -18 26.499 -29s9.5 -22.5 9.5 -34.5c0 -16.667 -2.33301 -32.5 -7 -47.5s-11.167 -28.333 -19.5 -40
s-17.833 -20.834 -28.5 -27.501s-22 -10 -34 -10c-17.333 0 -33.666 2.33301 -48.999 7s-28.5 11.167 -39.5 19.5s-19.667 17.833 -26 28.5s-9.5 22 -9.5 34z" />
    <glyph glyph-name="aring" unicode="&#xe5;" horiz-adv-x="1150" 
d="M939 132l172.999 -34.001l-20 -98l-255 -22l-58 177c-52 -63.333 -107.667 -108.666 -167 -135.999s-123.666 -41 -192.999 -41c-93.333 0 -168.5 23.333 -225.5 70s-85.5 109.667 -85.5 189c0 122 54 214.167 162 276.5s271 93.5 489 93.5v95
c0 100 -18.167 172.5 -54.5 217.5s-99.833 67.5 -190.5 67.5c-21.333 0 -45.833 -1.33301 -73.5 -4s-53.167 -6.33398 -76.5 -11.001l-60 -212l-98 10v283c40 14 89.5 26.5 148.5 37.5s118.5 16.5 178.5 16.5c136.667 0 238.5 -30.167 305.5 -90.5
s100.5 -154.166 100.5 -281.499v-603zM758.999 486.999c-100 0 -188.667 -6.50098 -266 -19.501s-136.333 -30.5 -177 -52.5c-8 -18.667 -14.667 -40 -20 -64s-8 -49.333 -8 -76c0 -55.333 18.333 -98.666 55 -129.999s84.667 -47 144 -47c50 0 99.333 12.5 148 37.5
s90 54.833 124 89.5v262zM366.999 1436c0 39.333 5.66699 73.6689 17 103.002s26.5 53.666 45.5 72.999s41.167 33.833 66.5 43.5s52 14.5 80 14.5c25.333 0 49.5 -3.33301 72.5 -10s43 -16.834 60 -30.501s30.5 -31.167 40.5 -52.5s15 -47 15 -77
c0 -41.333 -5.33301 -76.833 -16 -106.5s-25.5 -54 -44.5 -73s-41.167 -33 -66.5 -42s-52.333 -13.5 -81 -13.5c-26 0 -50.5 3.33301 -73.5 10s-43 17 -60 31s-30.5 31.833 -40.5 53.5s-15 47.167 -15 76.5zM471.999 1468c0 -20 2.66895 -38.166 8.00195 -54.499
s12.333 -30 21 -41s18.667 -19.5 30 -25.5s23 -9 35 -9c11.333 0 22.333 0.833008 33 2.5s19.667 3.83398 27 6.50098c8.66699 2.66699 17 6 25 10c1.33301 7.33301 2.66602 16.666 3.99902 27.999c1.33301 9.33301 2.5 21 3.5 35s1.5 30 1.5 48
c0 20 -2.66699 38.167 -8 54.5s-12.333 30 -21 41s-18.667 19.5 -30 25.5s-23 9 -35 9c-9.33301 0 -18.5 -1 -27.5 -3s-17.167 -4.33301 -24.5 -7c-8 -2.66699 -15.667 -5.66699 -23 -9c-4 -6.66699 -7.33301 -15.334 -10 -26.001
c-2.66699 -9.33301 -4.83398 -21 -6.50098 -35s-2.5 -30.667 -2.5 -50z" />
    <glyph glyph-name="ae" unicode="&#xe6;" horiz-adv-x="1621" 
d="M98 237c0 57.333 12 108.832 36 154.499s61.833 84.5 113.5 116.5s118 56.5 199 73.5s178.5 25.5 292.5 25.5v95c0 38.667 -2.33301 73.667 -7 105s-9.66699 58 -15 80c-6.66699 26 -13.667 48.667 -21 68c-25.333 9.33301 -54.166 17 -86.499 23s-71.166 9 -116.499 9
c-18.667 0 -36.167 -0.833008 -52.5 -2.5s-31.166 -3.5 -44.499 -5.5c-15.333 -2.66699 -29.333 -5 -42 -7l-60 -212l-98 10v283c24.667 10 53 19 85 27c26.667 6.66699 58.5 12.834 95.5 18.501s77.833 8.5 122.5 8.5c88 0 162.167 -12.333 222.5 -37
s107.166 -65.334 140.499 -122.001c40 52.667 88 92.334 144 119.001s118.667 40 188 40c70 0 128.167 -9.66699 174.5 -29s83.5 -48.333 111.5 -87s47.833 -87 59.5 -145s17.5 -125.667 17.5 -203v-120h-638v-76c0 -66 9.66699 -121.167 29 -165.5
s43.5 -80.166 72.5 -107.499s60.667 -46.833 95 -58.5s66.5 -17.5 96.5 -17.5c39.333 0 76.333 3.33301 111 10s65.667 14 93 22c31.333 9.33301 60.666 20.333 87.999 33v-96c-28.667 -17.333 -61.334 -32.333 -98.001 -45c-31.333 -11.333 -68.5 -21.5 -111.5 -30.5
s-90.5 -13.5 -142.5 -13.5c-41.333 0 -80.333 3.83301 -117 11.5s-70.667 19.667 -102 36s-59.5 37 -84.5 62s-45.833 55.167 -62.5 90.5c-11.333 -16.667 -27.333 -36.5 -48 -59.5s-46.667 -44.833 -78 -65.5s-68.5 -38.334 -111.5 -53.001s-92.833 -22 -149.5 -22
c-43.333 0 -83.333 5.66699 -120 17s-68.5 28 -95.5 50s-48 49 -63 81s-22.5 69 -22.5 111zM467 97.999c38 0 73.665 6.49805 106.998 19.498s62.833 28 88.5 45s47 33.667 64 50s28.167 27.5 33.5 33.5c-14 48.667 -21 104.667 -21 168v73
c-82 0 -150.5 -3.66699 -205.5 -11s-99.5 -15.666 -133.5 -24.999c-40 -10.667 -71.333 -22.667 -94 -36c-5.33301 -11.333 -10 -24 -14 -38c-3.33301 -12 -6.5 -26.667 -9.5 -44s-4.5 -36.666 -4.5 -57.999c0 -32 5.33301 -59.167 16 -81.5s24.834 -40.5 42.501 -54.5
s37.834 -24.333 60.501 -31s46 -10 70 -10zM978.998 926.997c-8.66699 -22 -16.666 -47 -23.999 -75c-6.66699 -24.667 -13 -54.334 -19 -89.001s-10.667 -74.667 -14 -120h445c0 57.333 -3.5 107.5 -10.5 150.5s-18.333 78.833 -34 107.5s-36.334 50.167 -62.001 64.5
s-57.167 21.5 -94.5 21.5c-28 0 -53.333 -3.16699 -76 -9.5s-42.334 -13.166 -59.001 -20.499c-19.333 -8.66699 -36.666 -18.667 -51.999 -30z" />
    <glyph glyph-name="ccedilla" unicode="&#xe7;" horiz-adv-x="972" 
d="M96 492c0 197.333 42.1709 349.167 126.504 455.5s200.833 159.5 349.5 159.5c50.667 0 101.5 -5 152.5 -15s101.833 -26 152.5 -48l19 -234l-110 -23l-69 179c-22.667 6.66699 -46 11.834 -70 15.501s-50 5.5 -78 5.5c-41.333 0 -81.833 -5 -121.5 -15
s-76.834 -25 -111.501 -45c-14.667 -40 -28.334 -93.167 -41.001 -159.5s-19 -138.166 -19 -215.499v-109c0 -106.667 31 -190.834 93 -252.501s136.667 -92.5 224 -92.5c48 0 96.5 6.16699 145.5 18.5s98.833 30.5 149.5 54.5v-96c-46 -28.667 -99 -52 -159 -70
c-40 -12 -81 -20 -123 -24l-28 -79c28 -7.33301 53.667 -15.666 77 -24.999s43.5 -20.833 60.5 -34.5s30.333 -30 40 -49s14.5 -41.833 14.5 -68.5s-5.16699 -51.167 -15.5 -73.5s-25.333 -41.5 -45 -57.5s-43.667 -28.5 -72 -37.5s-60.166 -13.5 -95.499 -13.5
c-26.667 0 -51.334 2.33301 -74.001 7s-42.667 10 -60 16c-20 7.33301 -38.667 15.333 -56 24v93c18 -7.33301 37 -14 57 -20c17.333 -5.33301 36.666 -10 57.999 -14s43 -6 65 -6c13.333 0 25.166 0.666992 35.499 2s19.166 2.66602 26.499 3.99902c8 2 15 4.33301 21 7
l7 17c1.33301 5.33301 2.83301 11.666 4.5 18.999s2.5 15 2.5 23c0 26 -12.833 47.333 -38.5 64s-66.5 31.667 -122.5 45l-34 55l39 103c-107.333 10 -193.666 44.667 -258.999 104c-78.667 72.667 -118 177 -118 313v93z" />
    <glyph glyph-name="egrave" unicode="&#xe8;" horiz-adv-x="1034" 
d="M276 523l0.00195312 -76c0 -112 30.833 -198.167 92.5 -258.5s135.167 -90.5 220.5 -90.5c55.333 0 109.666 6 162.999 18s103 27.667 149 47v-96c-58 -30.667 -118.833 -53.167 -182.5 -67.5s-126.834 -21.5 -189.501 -21.5c-137.333 0 -243.833 37.333 -319.5 112
s-113.5 182.667 -113.5 324v83c0 191.333 42.5 340.833 127.5 448.5s200.833 161.5 347.5 161.5c135.333 0 233 -34.5 293 -103.5s90 -189.167 90 -360.5v-120h-678zM336.002 927c-14.667 -37.333 -27.167 -82.668 -37.5 -136.001s-16.833 -102.666 -19.5 -147.999h485
c0 121.333 -17.5 209 -52.5 263s-91.167 81 -168.5 81c-39.333 0 -78 -6 -116 -18s-68.333 -26 -91 -42zM677.002 1275l-118 -10l-290 329v66l175 10l233 -363v-32z" />
    <glyph glyph-name="eacute" unicode="&#xe9;" horiz-adv-x="1034" 
d="M276 523l0.00195312 -76c0 -112 30.833 -198.167 92.5 -258.5s135.167 -90.5 220.5 -90.5c55.333 0 109.666 6 162.999 18s103 27.667 149 47v-96c-58 -30.667 -118.833 -53.167 -182.5 -67.5s-126.834 -21.5 -189.501 -21.5c-137.333 0 -243.833 37.333 -319.5 112
s-113.5 182.667 -113.5 324v83c0 191.333 42.5 340.833 127.5 448.5s200.833 161.5 347.5 161.5c135.333 0 233 -34.5 293 -103.5s90 -189.167 90 -360.5v-120h-678zM336.002 927c-14.667 -37.333 -27.167 -82.668 -37.5 -136.001s-16.833 -102.666 -19.5 -147.999h485
c0 121.333 -17.5 209 -52.5 263s-91.167 81 -168.5 81c-39.333 0 -78 -6 -116 -18s-68.333 -26 -91 -42zM492.002 1307l203 363l182 -10v-66l-280 -329l-105 10v32z" />
    <glyph glyph-name="ecircumflex" unicode="&#xea;" horiz-adv-x="1034" 
d="M276 523l0.00195312 -76c0 -112 30.833 -198.167 92.5 -258.5s135.167 -90.5 220.5 -90.5c55.333 0 109.666 6 162.999 18s103 27.667 149 47v-96c-58 -30.667 -118.833 -53.167 -182.5 -67.5s-126.834 -21.5 -189.501 -21.5c-137.333 0 -243.833 37.333 -319.5 112
s-113.5 182.667 -113.5 324v83c0 191.333 42.5 340.833 127.5 448.5s200.833 161.5 347.5 161.5c135.333 0 233 -34.5 293 -103.5s90 -189.167 90 -360.5v-120h-678zM336.002 927c-14.667 -37.333 -27.167 -82.668 -37.5 -136.001s-16.833 -102.666 -19.5 -147.999h485
c0 121.333 -17.5 209 -52.5 263s-91.167 81 -168.5 81c-39.333 0 -78 -6 -116 -18s-68.333 -26 -91 -42zM874.002 1275l-125 -10l-193 252l-186 -252l-95 10v32l233 373l133 -10l233 -363v-32z" />
    <glyph glyph-name="edieresis" unicode="&#xeb;" horiz-adv-x="1034" 
d="M276 523l0.00195312 -76c0 -112 30.833 -198.167 92.5 -258.5s135.167 -90.5 220.5 -90.5c55.333 0 109.666 6 162.999 18s103 27.667 149 47v-96c-58 -30.667 -118.833 -53.167 -182.5 -67.5s-126.834 -21.5 -189.501 -21.5c-137.333 0 -243.833 37.333 -319.5 112
s-113.5 182.667 -113.5 324v83c0 191.333 42.5 340.833 127.5 448.5s200.833 161.5 347.5 161.5c135.333 0 233 -34.5 293 -103.5s90 -189.167 90 -360.5v-120h-678zM336.002 927c-14.667 -37.333 -27.167 -82.668 -37.5 -136.001s-16.833 -102.666 -19.5 -147.999h485
c0 121.333 -17.5 209 -52.5 263s-91.167 81 -168.5 81c-39.333 0 -78 -6 -116 -18s-68.333 -26 -91 -42zM254.002 1384c0 16.667 2.33105 32.667 6.99805 48s11.167 28.833 19.5 40.5s17.833 20.834 28.5 27.501s22 10 34 10c17.333 0 33.666 -2.33301 48.999 -7
s28.5 -11.167 39.5 -19.5s19.667 -18 26 -29s9.5 -22.5 9.5 -34.5c0 -16.667 -2.33301 -32.5 -7 -47.5s-11 -28.333 -19 -40s-17.333 -20.834 -28 -27.501s-22 -10 -34 -10c-17.333 0 -33.666 2.33301 -48.999 7s-28.666 11.167 -39.999 19.5s-20.166 17.833 -26.499 28.5
s-9.5 22 -9.5 34zM654 1384c0 16.667 2.33496 32.667 7.00195 48s11 28.833 19 40.5s17.333 20.834 28 27.501s22 10 34 10c17.333 0 33.666 -2.33301 48.999 -7s28.666 -11.167 39.999 -19.5s20.166 -18 26.499 -29s9.5 -22.5 9.5 -34.5c0 -16.667 -2.33301 -32.5 -7 -47.5
s-11.167 -28.333 -19.5 -40s-17.833 -20.834 -28.5 -27.501s-22 -10 -34 -10c-17.333 0 -33.666 2.33301 -48.999 7s-28.5 11.167 -39.5 19.5s-19.667 17.833 -26 28.5s-9.5 22 -9.5 34z" />
    <glyph glyph-name="igrave" unicode="&#xec;" horiz-adv-x="660" 
d="M439 132l153 -34l-20 -98h-446l-20 98l153 34v821l-153 34l20 98l313 22v-975zM420 1275l-118 -10l-290 329v66l175 10l233 -363v-32z" />
    <glyph glyph-name="iacute" unicode="&#xed;" horiz-adv-x="660" 
d="M439 132l153 -34l-20 -98h-446l-20 98l153 34v821l-153 34l20 98l313 22v-975zM235 1307l203 363l182 -10v-66l-280 -329l-105 10v32z" />
    <glyph glyph-name="icircumflex" unicode="&#xee;" horiz-adv-x="660" 
d="M439 132l153 -34l-20 -98h-446l-20 98l153 34v821l-153 34l20 98l313 22v-975zM617 1275l-125 -10l-193 252l-186 -252l-95 10v32l233 373l133 -10l233 -363v-32z" />
    <glyph glyph-name="idieresis" unicode="&#xef;" horiz-adv-x="660" 
d="M439 132l153 -34l-20 -98h-446l-20 98l153 34v821l-153 34l20 98l313 22v-975zM-3 1384c0 16.667 2.33105 32.667 6.99805 48s11.167 28.833 19.5 40.5s17.833 20.834 28.5 27.501s22 10 34 10c17.333 0 33.666 -2.33301 48.999 -7s28.5 -11.167 39.5 -19.5
s19.667 -18 26 -29s9.5 -22.5 9.5 -34.5c0 -16.667 -2.33301 -32.5 -7 -47.5s-11 -28.333 -19 -40s-17.333 -20.834 -28 -27.501s-22 -10 -34 -10c-17.333 0 -33.666 2.33301 -48.999 7s-28.666 11.167 -39.999 19.5s-20.166 17.833 -26.499 28.5s-9.5 22 -9.5 34z
M396.998 1384c0 16.667 2.33496 32.667 7.00195 48s11 28.833 19 40.5s17.333 20.834 28 27.501s22 10 34 10c17.333 0 33.666 -2.33301 48.999 -7s28.666 -11.167 39.999 -19.5s20.166 -18 26.499 -29s9.5 -22.5 9.5 -34.5c0 -16.667 -2.33301 -32.5 -7 -47.5
s-11.167 -28.333 -19.5 -40s-17.833 -20.834 -28.5 -27.501s-22 -10 -34 -10c-17.333 0 -33.666 2.33301 -48.999 7s-28.5 11.167 -39.5 19.5s-19.667 17.833 -26 28.5s-9.5 22 -9.5 34z" />
    <glyph glyph-name="eth" unicode="&#xf0;" horiz-adv-x="1114" 
d="M294 1259l223.999 105.995c-33.333 32 -68.833 62.667 -106.5 92s-77.167 57 -118.5 83l149 22c74.667 -36 144.334 -80.667 209.001 -134l235 112l39 -83l-201 -96c68.667 -69.333 126.667 -147.166 174 -233.499s80.666 -179.166 99.999 -278.499
c2 -11.333 4.16699 -25.166 6.5 -41.499s4.5 -33.166 6.5 -50.499s3.66699 -34.833 5 -52.5s2 -33.834 2 -48.501v-94c0 -82 -9.83301 -158.5 -29.5 -229.5s-49.167 -132.667 -88.5 -185s-88.5 -93.666 -147.5 -123.999s-127.5 -45.5 -205.5 -45.5
c-75.333 0 -141.166 10.333 -197.499 31s-103.333 50.334 -141 89.001s-65.834 85 -84.501 139s-28 114.667 -28 182v93c0 96.667 11.667 182 35 256s55.5 136.167 96.5 186.5s89.667 88.333 146 114s117.5 38.5 183.5 38.5c30 0 61 -4.33301 93 -13s60.333 -21.667 85 -39
c-16 41.333 -36.667 82 -62 122s-54.666 79.333 -87.999 118l-252 -120zM837.999 621.995c0 72 -9.00098 131.667 -27.001 179s-41.5 84.666 -70.5 111.999s-61.333 46.5 -97 57.5s-71.167 16.5 -106.5 16.5c-30 0 -57.333 -3.16699 -82 -9.5s-45.667 -13.166 -63 -20.499
c-21.333 -8.66699 -40 -18.667 -56 -30c-11.333 -24.667 -21.333 -54.667 -30 -90c-7.33301 -30 -14.166 -67 -20.499 -111s-9.5 -95.333 -9.5 -154v-119c0 -62.667 8.66699 -116.5 26 -161.5s40.333 -81.833 69 -110.5s60.834 -49.667 96.501 -63s72.167 -20 109.5 -20
c28 0 54.167 3.16699 78.5 9.5s45.5 13.166 63.5 20.499c21.333 8.66699 41 18.667 59 30c11.333 22.667 21.333 50.667 30 84c7.33301 28.667 14.166 64.334 20.499 107.001s9.5 94 9.5 154v119z" />
    <glyph glyph-name="ntilde" unicode="&#xf1;" horiz-adv-x="1346" 
d="M106 98l153 33.999v821l-153 34l20 98l235 22l58 -178c49.333 56 105 99.667 167 131s127.333 47 196 47c119.333 0 207.333 -31.167 264 -93.5s85 -158.166 85 -287.499v-594l153 -34l-20 -98h-446l-20 98l153 34v550c0 102 -16.5 178.333 -49.5 229s-92.5 76 -178.5 76
c-44.667 0 -91.5 -11 -140.5 -33s-96.833 -54 -143.5 -96v-726l153 -34l-20 -98h-446zM307 1307c0 75.333 19.5 132.332 58.5 170.999s92.833 58 161.5 58c36 0 72.5 -6.83301 109.5 -20.5s72.333 -28.834 106 -45.501l93.5 -45.5c28.667 -13.667 52.667 -20.5 72 -20.5
c25.333 0 45.5 9.83301 60.5 29.5s22.5 49.834 22.5 90.501l117 10v-47c0 -70.667 -17.833 -126.5 -53.5 -167.5s-87.167 -61.5 -154.5 -61.5c-32.667 0 -68.167 6.83301 -106.5 20.5s-76 28.834 -113 45.501l-102.5 45.5c-31.333 13.667 -56.333 20.5 -75 20.5
c-13.333 0 -25.5 -1.33301 -36.5 -4s-20.167 -7.66699 -27.5 -15s-13 -17.333 -17 -30s-6 -29 -6 -49l-109 -10v25z" />
    <glyph glyph-name="ograve" unicode="&#xf2;" horiz-adv-x="1114" 
d="M547 -22c-145.333 0 -256.833 38.832 -334.5 116.499s-116.5 185.834 -116.5 324.501v93c0 184 42.167 329.167 126.5 435.5s195.833 159.5 334.5 159.5c145.333 0 258.5 -38.833 339.5 -116.5s121.5 -189.167 121.5 -334.5v-94c0 -176.667 -42 -318.167 -126 -424.5
s-199 -159.5 -345 -159.5zM838 621.999c0 114 -26.167 202.833 -78.5 266.5s-126.5 96.5 -222.5 98.5c-36.667 0 -73.334 -5.83301 -110.001 -17.5s-67 -25.834 -91 -42.501c-17.333 -39.333 -31.666 -90.333 -42.999 -153s-17 -130 -17 -202v-119
c0 -112 28.833 -199.167 86.5 -261.5s129.167 -93.5 214.5 -93.5c33.333 0 67.666 5.33301 102.999 16s68 25.334 98 44.001c20.667 43.333 35.834 95 45.501 155s14.5 123.333 14.5 190v119zM671 1275l-118 -10l-290 329v66l175 10l233 -363v-32z" />
    <glyph glyph-name="oacute" unicode="&#xf3;" horiz-adv-x="1114" 
d="M547 -22c-145.333 0 -256.833 38.832 -334.5 116.499s-116.5 185.834 -116.5 324.501v93c0 184 42.167 329.167 126.5 435.5s195.833 159.5 334.5 159.5c145.333 0 258.5 -38.833 339.5 -116.5s121.5 -189.167 121.5 -334.5v-94c0 -176.667 -42 -318.167 -126 -424.5
s-199 -159.5 -345 -159.5zM838 621.999c0 114 -26.167 202.833 -78.5 266.5s-126.5 96.5 -222.5 98.5c-36.667 0 -73.334 -5.83301 -110.001 -17.5s-67 -25.834 -91 -42.501c-17.333 -39.333 -31.666 -90.333 -42.999 -153s-17 -130 -17 -202v-119
c0 -112 28.833 -199.167 86.5 -261.5s129.167 -93.5 214.5 -93.5c33.333 0 67.666 5.33301 102.999 16s68 25.334 98 44.001c20.667 43.333 35.834 95 45.501 155s14.5 123.333 14.5 190v119zM486 1307l203 363l182 -10v-66l-280 -329l-105 10v32z" />
    <glyph glyph-name="ocircumflex" unicode="&#xf4;" horiz-adv-x="1114" 
d="M547 -22c-145.333 0 -256.833 38.832 -334.5 116.499s-116.5 185.834 -116.5 324.501v93c0 184 42.167 329.167 126.5 435.5s195.833 159.5 334.5 159.5c145.333 0 258.5 -38.833 339.5 -116.5s121.5 -189.167 121.5 -334.5v-94c0 -176.667 -42 -318.167 -126 -424.5
s-199 -159.5 -345 -159.5zM838 621.999c0 114 -26.167 202.833 -78.5 266.5s-126.5 96.5 -222.5 98.5c-36.667 0 -73.334 -5.83301 -110.001 -17.5s-67 -25.834 -91 -42.501c-17.333 -39.333 -31.666 -90.333 -42.999 -153s-17 -130 -17 -202v-119
c0 -112 28.833 -199.167 86.5 -261.5s129.167 -93.5 214.5 -93.5c33.333 0 67.666 5.33301 102.999 16s68 25.334 98 44.001c20.667 43.333 35.834 95 45.501 155s14.5 123.333 14.5 190v119zM868 1275l-125 -10l-193 252l-186 -252l-95 10v32l233 373l133 -10l233 -363v-32
z" />
    <glyph glyph-name="otilde" unicode="&#xf5;" horiz-adv-x="1114" 
d="M547 -22c-145.333 0 -256.833 38.832 -334.5 116.499s-116.5 185.834 -116.5 324.501v93c0 184 42.167 329.167 126.5 435.5s195.833 159.5 334.5 159.5c145.333 0 258.5 -38.833 339.5 -116.5s121.5 -189.167 121.5 -334.5v-94c0 -176.667 -42 -318.167 -126 -424.5
s-199 -159.5 -345 -159.5zM838 621.999c0 114 -26.167 202.833 -78.5 266.5s-126.5 96.5 -222.5 98.5c-36.667 0 -73.334 -5.83301 -110.001 -17.5s-67 -25.834 -91 -42.501c-17.333 -39.333 -31.666 -90.333 -42.999 -153s-17 -130 -17 -202v-119
c0 -112 28.833 -199.167 86.5 -261.5s129.167 -93.5 214.5 -93.5c33.333 0 67.666 5.33301 102.999 16s68 25.334 98 44.001c20.667 43.333 35.834 95 45.501 155s14.5 123.333 14.5 190v119zM165 1307c0 75.333 19.5 132.332 58.5 170.999s92.833 58 161.5 58
c36 0 72.5 -6.83301 109.5 -20.5s72.333 -28.834 106 -45.501l93.5 -45.5c28.667 -13.667 52.667 -20.5 72 -20.5c25.333 0 45.5 9.83301 60.5 29.5s22.5 49.834 22.5 90.501l117 10v-47c0 -70.667 -17.833 -126.5 -53.5 -167.5s-87.167 -61.5 -154.5 -61.5
c-32.667 0 -68.167 6.83301 -106.5 20.5s-76 28.834 -113 45.501l-102.5 45.5c-31.333 13.667 -56.333 20.5 -75 20.5c-13.333 0 -25.5 -1.33301 -36.5 -4s-20.167 -7.66699 -27.5 -15s-13 -17.333 -17 -30s-6 -29 -6 -49l-109 -10v25z" />
    <glyph glyph-name="odieresis" unicode="&#xf6;" horiz-adv-x="1114" 
d="M547 -22c-145.333 0 -256.833 38.832 -334.5 116.499s-116.5 185.834 -116.5 324.501v93c0 184 42.167 329.167 126.5 435.5s195.833 159.5 334.5 159.5c145.333 0 258.5 -38.833 339.5 -116.5s121.5 -189.167 121.5 -334.5v-94c0 -176.667 -42 -318.167 -126 -424.5
s-199 -159.5 -345 -159.5zM838 621.999c0 114 -26.167 202.833 -78.5 266.5s-126.5 96.5 -222.5 98.5c-36.667 0 -73.334 -5.83301 -110.001 -17.5s-67 -25.834 -91 -42.501c-17.333 -39.333 -31.666 -90.333 -42.999 -153s-17 -130 -17 -202v-119
c0 -112 28.833 -199.167 86.5 -261.5s129.167 -93.5 214.5 -93.5c33.333 0 67.666 5.33301 102.999 16s68 25.334 98 44.001c20.667 43.333 35.834 95 45.501 155s14.5 123.333 14.5 190v119zM248 1384c0 16.667 2.33105 32.667 6.99805 48s11.167 28.833 19.5 40.5
s17.833 20.834 28.5 27.501s22 10 34 10c17.333 0 33.666 -2.33301 48.999 -7s28.5 -11.167 39.5 -19.5s19.667 -18 26 -29s9.5 -22.5 9.5 -34.5c0 -16.667 -2.33301 -32.5 -7 -47.5s-11 -28.333 -19 -40s-17.333 -20.834 -28 -27.501s-22 -10 -34 -10
c-17.333 0 -33.666 2.33301 -48.999 7s-28.666 11.167 -39.999 19.5s-20.166 17.833 -26.499 28.5s-9.5 22 -9.5 34zM647.998 1384c0 16.667 2.33496 32.667 7.00195 48s11 28.833 19 40.5s17.333 20.834 28 27.501s22 10 34 10c17.333 0 33.666 -2.33301 48.999 -7
s28.666 -11.167 39.999 -19.5s20.166 -18 26.499 -29s9.5 -22.5 9.5 -34.5c0 -16.667 -2.33301 -32.5 -7 -47.5s-11.167 -28.333 -19.5 -40s-17.833 -20.834 -28.5 -27.501s-22 -10 -34 -10c-17.333 0 -33.666 2.33301 -48.999 7s-28.5 11.167 -39.5 19.5
s-19.667 17.833 -26 28.5s-9.5 22 -9.5 34z" />
    <glyph glyph-name="divide" unicode="&#xf7;" horiz-adv-x="1173" 
d="M160 667h853v-147h-853v147zM487 182c0 18.667 2.16504 36.333 6.49805 53s10.166 31.334 17.499 44.001s15.833 22.667 25.5 30s20.167 11 31.5 11c19.333 0 37.333 -2.16699 54 -6.5s31.167 -10.333 43.5 -18s22 -16.5 29 -26.5s10.5 -20.667 10.5 -32
c0 -18 -2.16699 -35.167 -6.5 -51.5s-10.166 -30.833 -17.499 -43.5s-16 -22.667 -26 -30s-20.667 -11 -32 -11c-19.333 0 -37.166 2.16699 -53.499 6.5s-30.666 10.166 -42.999 17.499s-22 15.833 -29 25.5s-10.5 20.167 -10.5 31.5zM486.998 946.999
c0 18.667 2.16504 36.333 6.49805 53s10.166 31.334 17.499 44.001s15.833 22.667 25.5 30s20.167 11 31.5 11c19.333 0 37.333 -2.16699 54 -6.5s31.167 -10.333 43.5 -18s22 -16.5 29 -26.5s10.5 -20.667 10.5 -32c0 -18 -2.16699 -35.167 -6.5 -51.5
s-10.166 -30.833 -17.499 -43.5s-16 -22.667 -26 -30s-20.667 -11 -32 -11c-19.333 0 -37.166 2.16699 -53.499 6.5s-30.666 10.166 -42.999 17.499s-22 15.833 -29 25.5s-10.5 20.167 -10.5 31.5z" />
    <glyph glyph-name="oslash" unicode="&#xf8;" horiz-adv-x="1114" 
d="M547 -22c-38.667 0 -74.666 2.66602 -107.999 7.99902l-66 -212h-125v20l71 227c-40.667 18.667 -76.334 43 -107.001 73c-77.333 78 -116 186.333 -116 325v93c0 184 42.167 329.167 126.5 435.5s195.833 159.5 334.5 159.5c34.667 0 67.667 -2.33301 99 -7l66 211h125
v-20l-70 -223c45.333 -19.333 85 -45.333 119 -78c81.333 -77.333 122 -188.666 122 -333.999v-94c0 -176.667 -42 -318.167 -126 -424.5s-199 -159.5 -345 -159.5zM838.001 621.999c0 114 -26.332 202.666 -78.999 265.999c-8.66699 11.333 -18.334 21.333 -29.001 30
l-251 -805c30 -10 62.667 -15 98 -15c33.333 0 67.666 5.33301 102.999 16s68 25.334 98 44.001c20.667 43.333 35.834 95 45.501 155s14.5 123.333 14.5 190v119zM537.002 986.998c-36.667 0 -73.333 -5.83203 -110 -17.499s-67 -25.834 -91 -42.501
c-17.333 -39.333 -31.666 -90.333 -42.999 -153s-17 -130 -17 -202v-119c0 -112 28.667 -199.333 86 -262l8 -8l247 794c-24.667 6 -51.334 9.33301 -80.001 10z" />
    <glyph glyph-name="ugrave" unicode="&#xf9;" horiz-adv-x="1262" 
d="M371 403c0 -104 18.334 -180.832 55.001 -230.499s99 -74.5 187 -74.5c48 0 95.667 11.333 143 34s89.666 53.667 126.999 93v728l-183 34l20 98l343 22v-975l153 -34l-20 -98l-235 -22l-58 178c-54 -63.333 -111.167 -108.833 -171.5 -136.5
s-126.833 -41.5 -199.5 -41.5c-112 0 -196.833 31.667 -254.5 95s-86.5 158.666 -86.5 285.999v594l-153 34l20 98l313 22v-704zM712.001 1275l-118 -10l-290 329v66l175 10l233 -363v-32z" />
    <glyph glyph-name="uacute" unicode="&#xfa;" horiz-adv-x="1262" 
d="M371 403c0 -104 18.334 -180.832 55.001 -230.499s99 -74.5 187 -74.5c48 0 95.667 11.333 143 34s89.666 53.667 126.999 93v728l-183 34l20 98l343 22v-975l153 -34l-20 -98l-235 -22l-58 178c-54 -63.333 -111.167 -108.833 -171.5 -136.5
s-126.833 -41.5 -199.5 -41.5c-112 0 -196.833 31.667 -254.5 95s-86.5 158.666 -86.5 285.999v594l-153 34l20 98l313 22v-704zM527.001 1307l203 363l182 -10v-66l-280 -329l-105 10v32z" />
    <glyph glyph-name="ucircumflex" unicode="&#xfb;" horiz-adv-x="1262" 
d="M371 403c0 -104 18.334 -180.832 55.001 -230.499s99 -74.5 187 -74.5c48 0 95.667 11.333 143 34s89.666 53.667 126.999 93v728l-183 34l20 98l343 22v-975l153 -34l-20 -98l-235 -22l-58 178c-54 -63.333 -111.167 -108.833 -171.5 -136.5
s-126.833 -41.5 -199.5 -41.5c-112 0 -196.833 31.667 -254.5 95s-86.5 158.666 -86.5 285.999v594l-153 34l20 98l313 22v-704zM909.001 1275l-125 -10l-193 252l-186 -252l-95 10v32l233 373l133 -10l233 -363v-32z" />
    <glyph glyph-name="udieresis" unicode="&#xfc;" horiz-adv-x="1262" 
d="M371 403c0 -104 18.334 -180.832 55.001 -230.499s99 -74.5 187 -74.5c48 0 95.667 11.333 143 34s89.666 53.667 126.999 93v728l-183 34l20 98l343 22v-975l153 -34l-20 -98l-235 -22l-58 178c-54 -63.333 -111.167 -108.833 -171.5 -136.5
s-126.833 -41.5 -199.5 -41.5c-112 0 -196.833 31.667 -254.5 95s-86.5 158.666 -86.5 285.999v594l-153 34l20 98l313 22v-704zM289.001 1384c0 16.667 2.33105 32.667 6.99805 48s11.167 28.833 19.5 40.5s17.833 20.834 28.5 27.501s22 10 34 10
c17.333 0 33.666 -2.33301 48.999 -7s28.5 -11.167 39.5 -19.5s19.667 -18 26 -29s9.5 -22.5 9.5 -34.5c0 -16.667 -2.33301 -32.5 -7 -47.5s-11 -28.333 -19 -40s-17.333 -20.834 -28 -27.501s-22 -10 -34 -10c-17.333 0 -33.666 2.33301 -48.999 7
s-28.666 11.167 -39.999 19.5s-20.166 17.833 -26.499 28.5s-9.5 22 -9.5 34zM688.999 1384c0 16.667 2.33496 32.667 7.00195 48s11 28.833 19 40.5s17.333 20.834 28 27.501s22 10 34 10c17.333 0 33.666 -2.33301 48.999 -7s28.666 -11.167 39.999 -19.5
s20.166 -18 26.499 -29s9.5 -22.5 9.5 -34.5c0 -16.667 -2.33301 -32.5 -7 -47.5s-11.167 -28.333 -19.5 -40s-17.833 -20.834 -28.5 -27.501s-22 -10 -34 -10c-17.333 0 -33.666 2.33301 -48.999 7s-28.5 11.167 -39.5 19.5s-19.667 17.833 -26 28.5s-9.5 22 -9.5 34z" />
    <glyph glyph-name="yacute" unicode="&#xfd;" horiz-adv-x="1106" 
d="M777 1085l325.002 -0.000976562l20 -98l-97 -19l-357 -966c-60 -166 -119.167 -284 -177.5 -354s-133.5 -105 -225.5 -105c-39.333 0 -79 5 -119 15s-72.667 20.667 -98 32l36 131c36.667 -13.333 79.667 -25.166 129 -35.499s96.333 -15.5 141 -15.5
c25.333 17.333 50.166 42.5 74.499 75.5s46.166 76.167 65.499 129.5l-407 1093l-97 19l20 98h370l20 -98l-125 -19l295 -836h16l296 836l-125 19zM508.002 1307l203 363l182 -10v-66l-280 -329l-105 10v32z" />
    <glyph glyph-name="thorn" unicode="&#xfe;" horiz-adv-x="1134" 
d="M4 -336l152.999 34.001v1710l-153 34l20 98l313 22v-610c14.667 16 32.167 33 52.5 51s44 34.833 71 50.5s57.5 28.5 91.5 38.5s71.667 15 113 15c56 0 107 -8.5 153 -25.5s85.167 -43.833 117.5 -80.5s57.5 -83.334 75.5 -140.001s27 -125 27 -205v-94
c0 -88 -10.167 -168 -30.5 -240s-50 -133.5 -89 -184.5s-87 -90.333 -144 -118s-121.833 -41.5 -194.5 -41.5c-41.333 0 -82.166 2.33301 -122.499 7s-80.5 10.667 -120.5 18v-305l153 -34l-20 -99h-446zM857.999 622.001c0 69.333 -6.83496 127.335 -20.502 174.002
s-32.167 84.167 -55.5 112.5s-50.666 48.5 -81.999 60.5s-64.333 18 -99 18s-67.667 -6.83301 -99 -20.5s-59.333 -28.5 -84 -44.5c-28.667 -18.667 -55.667 -40 -81 -64v-733c13.333 -3.33301 29.333 -6.5 48 -9.5s38.334 -5.83301 59.001 -8.5
s41.834 -4.83398 63.501 -6.50098s42.5 -2.5 62.5 -2.5c35.333 0 67.166 3.16699 95.499 9.5s52.5 13.166 72.5 20.499c23.333 8.66699 44.333 18.667 63 30c10.667 29.333 20 62.333 28 99c7.33301 31.333 14 67.833 20 109.5s9 87.167 9 136.5v119z" />
    <glyph glyph-name="ydieresis" unicode="&#xff;" horiz-adv-x="1106" 
d="M777 1085l325.002 -0.000976562l20 -98l-97 -19l-357 -966c-60 -166 -119.167 -284 -177.5 -354s-133.5 -105 -225.5 -105c-39.333 0 -79 5 -119 15s-72.667 20.667 -98 32l36 131c36.667 -13.333 79.667 -25.166 129 -35.499s96.333 -15.5 141 -15.5
c25.333 17.333 50.166 42.5 74.499 75.5s46.166 76.167 65.499 129.5l-407 1093l-97 19l20 98h370l20 -98l-125 -19l295 -836h16l296 836l-125 19zM270.002 1384c0 16.667 2.33105 32.667 6.99805 48s11.167 28.833 19.5 40.5s17.833 20.834 28.5 27.501s22 10 34 10
c17.333 0 33.666 -2.33301 48.999 -7s28.5 -11.167 39.5 -19.5s19.667 -18 26 -29s9.5 -22.5 9.5 -34.5c0 -16.667 -2.33301 -32.5 -7 -47.5s-11 -28.333 -19 -40s-17.333 -20.834 -28 -27.501s-22 -10 -34 -10c-17.333 0 -33.666 2.33301 -48.999 7
s-28.666 11.167 -39.999 19.5s-20.166 17.833 -26.499 28.5s-9.5 22 -9.5 34zM670 1384c0 16.667 2.33496 32.667 7.00195 48s11 28.833 19 40.5s17.333 20.834 28 27.501s22 10 34 10c17.333 0 33.666 -2.33301 48.999 -7s28.666 -11.167 39.999 -19.5
s20.166 -18 26.499 -29s9.5 -22.5 9.5 -34.5c0 -16.667 -2.33301 -32.5 -7 -47.5s-11.167 -28.333 -19.5 -40s-17.833 -20.834 -28.5 -27.501s-22 -10 -34 -10c-17.333 0 -33.666 2.33301 -48.999 7s-28.5 11.167 -39.5 19.5s-19.667 17.833 -26 28.5s-9.5 22 -9.5 34z" />
    <glyph glyph-name="Amacron" unicode="&#x100;" horiz-adv-x="1218" 
d="M-8 98l108 29l440 1226h149l429 -1226l108 -29l-20 -98h-385l-20 98l128 29l-94 279h-491l-96 -279l128 -29l-20 -98h-344zM389 535h402l-194 569h-10zM254 1660h771l-20 -120h-770z" />
    <glyph glyph-name="amacron" unicode="&#x101;" horiz-adv-x="1150" 
d="M939 132l172.999 -34.001l-20 -98l-255 -22l-58 177c-52 -63.333 -107.667 -108.666 -167 -135.999s-123.666 -41 -192.999 -41c-93.333 0 -168.5 23.333 -225.5 70s-85.5 109.667 -85.5 189c0 122 54 214.167 162 276.5s271 93.5 489 93.5v95
c0 100 -18.167 172.5 -54.5 217.5s-99.833 67.5 -190.5 67.5c-21.333 0 -45.833 -1.33301 -73.5 -4s-53.167 -6.33398 -76.5 -11.001l-60 -212l-98 10v283c40 14 89.5 26.5 148.5 37.5s118.5 16.5 178.5 16.5c136.667 0 238.5 -30.167 305.5 -90.5
s100.5 -154.166 100.5 -281.499v-603zM758.999 486.999c-100 0 -188.667 -6.50098 -266 -19.501s-136.333 -30.5 -177 -52.5c-8 -18.667 -14.667 -40 -20 -64s-8 -49.333 -8 -76c0 -55.333 18.333 -98.666 55 -129.999s84.667 -47 144 -47c50 0 99.333 12.5 148 37.5
s90 54.833 124 89.5v262zM215.999 1473h711l-20 -120h-710z" />
    <glyph glyph-name="Abreve" unicode="&#x102;" horiz-adv-x="1218" 
d="M-8 98l108 29l440 1226h149l429 -1226l108 -29l-20 -98h-385l-20 98l128 29l-94 279h-491l-96 -279l128 -29l-20 -98h-344zM389 535h402l-194 569h-10zM948 1749c0 -33.333 -7.66309 -66.5 -22.9961 -99.5s-37.333 -62.667 -66 -89s-63.834 -47.666 -105.501 -63.999
s-88.834 -24.5 -141.501 -24.5s-99.834 8.16699 -141.501 24.5s-76.834 37.666 -105.501 63.999s-50.667 56 -66 89s-23 66.167 -23 99.5l97 10c0 -9.33301 4 -22.833 12 -40.5s21.167 -35.167 39.5 -52.5s42.833 -32.333 73.5 -45s68.667 -19 114 -19
s83.333 6.33301 114 19s55.167 27.667 73.5 45s31.5 34.833 39.5 52.5s12 31.167 12 40.5z" />
    <glyph glyph-name="abreve" unicode="&#x103;" horiz-adv-x="1150" 
d="M939 132l172.999 -34.001l-20 -98l-255 -22l-58 177c-52 -63.333 -107.667 -108.666 -167 -135.999s-123.666 -41 -192.999 -41c-93.333 0 -168.5 23.333 -225.5 70s-85.5 109.667 -85.5 189c0 122 54 214.167 162 276.5s271 93.5 489 93.5v95
c0 100 -18.167 172.5 -54.5 217.5s-99.833 67.5 -190.5 67.5c-21.333 0 -45.833 -1.33301 -73.5 -4s-53.167 -6.33398 -76.5 -11.001l-60 -212l-98 10v283c40 14 89.5 26.5 148.5 37.5s118.5 16.5 178.5 16.5c136.667 0 238.5 -30.167 305.5 -90.5
s100.5 -154.166 100.5 -281.499v-603zM758.999 486.999c-100 0 -188.667 -6.50098 -266 -19.501s-136.333 -30.5 -177 -52.5c-8 -18.667 -14.667 -40 -20 -64s-8 -49.333 -8 -76c0 -55.333 18.333 -98.666 55 -129.999s84.667 -47 144 -47c50 0 99.333 12.5 148 37.5
s90 54.833 124 89.5v262zM852.999 1592c0 -36 -7.16309 -71.667 -21.4961 -107s-34.833 -67 -61.5 -95s-58.834 -50.833 -96.501 -68.5s-79.834 -26.5 -126.501 -26.5s-88.834 8.83301 -126.501 26.5s-69.834 40.5 -96.501 68.5s-47.167 59.667 -61.5 95s-21.5 71 -21.5 107
l97 10c0 -10.667 4 -25.834 12 -45.501s20.5 -39.334 37.5 -59.001s38.667 -36.667 65 -51s57.833 -21.5 94.5 -21.5s68.167 7.16699 94.5 21.5s48 31.333 65 51s29.5 39.334 37.5 59.001s12 34.834 12 45.501z" />
    <glyph glyph-name="Aogonek" unicode="&#x104;" horiz-adv-x="1218" 
d="M973 0c-28 -20 -53.165 -42.168 -75.498 -66.501s-41.5 -49.333 -57.5 -75s-28.167 -51.5 -36.5 -77.5s-12.5 -50.333 -12.5 -73c0 -25.333 6 -42.5 18 -51.5s28.333 -13.5 49 -13.5c19.333 0 38.333 4.16699 57 12.5s35.667 17.5 51 27.5
c17.333 12 34.666 25.333 51.999 40v-93c-16 -16.667 -35 -31.334 -57 -44.001c-18.667 -11.333 -40.834 -21.333 -66.501 -30s-54.5 -13 -86.5 -13c-52.667 0 -92.167 9.66699 -118.5 29s-39.5 54 -39.5 104c0 42.667 9 84.334 27 125.001s42 79.5 72 116.5
s64.333 72.167 103 105.5c29.333 24.667 59 48.334 89 71.001l-106 312h-491l-96 -279l128 -29l-20 -98h-344l-20 98l108 29l440 1226h149l429 -1226l108 -29l-20 -98h-233zM389.002 534.999h402l-194 569h-10z" />
    <glyph glyph-name="aogonek" unicode="&#x105;" horiz-adv-x="1150" 
d="M939 132l173.001 -34l-20 -98c-28 -20 -53.167 -42.167 -75.5 -66.5s-41.5 -49.333 -57.5 -75s-28.167 -51.5 -36.5 -77.5s-12.5 -50.333 -12.5 -73c0 -25.333 6 -42.5 18 -51.5s28.333 -13.5 49 -13.5c19.333 0 38.333 4.16699 57 12.5s35.667 17.5 51 27.5
c17.333 12 34.666 25.333 51.999 40v-93c-16 -16.667 -35 -31.334 -57 -44.001c-18.667 -11.333 -40.834 -21.333 -66.501 -30s-54.5 -13 -86.5 -13c-52.667 0 -92.167 9.66699 -118.5 29s-39.5 54 -39.5 104c0 42.667 9 84 27 124s42.667 77.667 74 113
c24 27.333 49.667 52.333 77 75l-110 -10l-58 177c-52 -63.333 -107.667 -108.666 -167 -135.999s-123.666 -41 -192.999 -41c-93.333 0 -168.5 23.333 -225.5 70s-85.5 109.667 -85.5 189c0 122 54 214.167 162 276.5s271 93.5 489 93.5v95
c0 100 -18.167 172.5 -54.5 217.5s-99.833 67.5 -190.5 67.5c-21.333 0 -45.833 -1.33301 -73.5 -4s-53.167 -6.33398 -76.5 -11.001l-60 -212l-98 10v283c40 14 89.5 26.5 148.5 37.5s118.5 16.5 178.5 16.5c136.667 0 238.5 -30.167 305.5 -90.5
s100.5 -154.166 100.5 -281.499v-603zM759.001 487c-100 0 -188.667 -6.50098 -266 -19.501s-136.333 -30.5 -177 -52.5c-8 -18.667 -14.667 -40 -20 -64s-8 -49.333 -8 -76c0 -55.333 18.333 -98.666 55 -129.999s84.667 -47 144 -47c50 0 99.333 12.5 148 37.5
s90 54.833 124 89.5v262z" />
    <glyph glyph-name="Cacute" unicode="&#x106;" horiz-adv-x="1176" 
d="M100 604c0 254 51.3311 446 153.998 576s253 195 451 195c63.333 0 127.333 -5 192 -15s121.667 -24.667 171 -44l21 -270l-105 -22l-83 195c-25.333 8 -57.666 14.5 -96.999 19.5s-81.333 7.5 -126 7.5c-57.333 0 -111.833 -7.66699 -163.5 -23
s-96.834 -37 -135.501 -65c-26.667 -61.333 -48.167 -134.666 -64.5 -219.999s-24.5 -170.333 -24.5 -255v-133c0 -142.667 39.167 -252.167 117.5 -328.5s183.5 -114.5 315.5 -114.5c62.667 0 126.834 9.83301 192.501 29.5s124.5 44.5 176.5 74.5v-106
c-62 -40 -130.667 -71.167 -206 -93.5s-149.666 -33.5 -222.999 -33.5c-185.333 0 -325.5 44.667 -420.5 134s-142.5 223.666 -142.5 402.999v89zM536.998 1503l298 281l192 -10v-66l-375 -248l-115 11v32z" />
    <glyph glyph-name="cacute" unicode="&#x107;" horiz-adv-x="972" 
d="M96 492c0 197.333 42.1689 349.166 126.502 455.499s200.833 159.5 349.5 159.5c50.667 0 101.5 -5 152.5 -15s101.833 -26 152.5 -48l19 -234l-110 -23l-69 179c-22.667 6.66699 -46 11.834 -70 15.501s-50 5.5 -78 5.5c-41.333 0 -81.833 -5 -121.5 -15
s-76.834 -25 -111.501 -45c-14.667 -40 -28.334 -93.167 -41.001 -159.5s-19 -138.166 -19 -215.499v-109c0 -106.667 31 -190.834 93 -252.501s136.667 -92.5 224 -92.5c48 0 96.5 6.16699 145.5 18.5s98.833 30.5 149.5 54.5v-96c-46 -28.667 -98.833 -52 -158.5 -70
s-121.5 -27 -185.5 -27c-140.667 0 -250.5 36.167 -329.5 108.5s-118.5 176.5 -118.5 312.5v93zM495.002 1307l203 363l182 -10v-66l-280 -329l-105 10v32z" />
    <glyph glyph-name="Ccircumflex" unicode="&#x108;" horiz-adv-x="1176" 
d="M100 604c0 254 51.3311 446 153.998 576s253 195 451 195c63.333 0 127.333 -5 192 -15s121.667 -24.667 171 -44l21 -270l-105 -22l-83 195c-25.333 8 -57.666 14.5 -96.999 19.5s-81.333 7.5 -126 7.5c-57.333 0 -111.833 -7.66699 -163.5 -23
s-96.834 -37 -135.501 -65c-26.667 -61.333 -48.167 -134.666 -64.5 -219.999s-24.5 -170.333 -24.5 -255v-133c0 -142.667 39.167 -252.167 117.5 -328.5s183.5 -114.5 315.5 -114.5c62.667 0 126.834 9.83301 192.501 29.5s124.5 44.5 176.5 74.5v-106
c-62 -40 -130.667 -71.167 -206 -93.5s-149.666 -33.5 -222.999 -33.5c-185.333 0 -325.5 44.667 -420.5 134s-142.5 223.666 -142.5 402.999v89zM1035 1470l-125 -10l-238 192l-231 -192l-95 10v32l283 292l133 -10l273 -282v-32z" />
    <glyph glyph-name="ccircumflex" unicode="&#x109;" horiz-adv-x="972" 
d="M96 492c0 197.333 42.1689 349.166 126.502 455.499s200.833 159.5 349.5 159.5c50.667 0 101.5 -5 152.5 -15s101.833 -26 152.5 -48l19 -234l-110 -23l-69 179c-22.667 6.66699 -46 11.834 -70 15.501s-50 5.5 -78 5.5c-41.333 0 -81.833 -5 -121.5 -15
s-76.834 -25 -111.501 -45c-14.667 -40 -28.334 -93.167 -41.001 -159.5s-19 -138.166 -19 -215.499v-109c0 -106.667 31 -190.834 93 -252.501s136.667 -92.5 224 -92.5c48 0 96.5 6.16699 145.5 18.5s98.833 30.5 149.5 54.5v-96c-46 -28.667 -98.833 -52 -158.5 -70
s-121.5 -27 -185.5 -27c-140.667 0 -250.5 36.167 -329.5 108.5s-118.5 176.5 -118.5 312.5v93zM877.002 1275l-125 -10l-193 252l-186 -252l-95 10v32l233 373l133 -10l233 -363v-32z" />
    <glyph glyph-name="Cdotaccent" unicode="&#x10a;" horiz-adv-x="1176" 
d="M100 604c0 254 51.3311 446 153.998 576s253 195 451 195c63.333 0 127.333 -5 192 -15s121.667 -24.667 171 -44l21 -270l-105 -22l-83 195c-25.333 8 -57.666 14.5 -96.999 19.5s-81.333 7.5 -126 7.5c-57.333 0 -111.833 -7.66699 -163.5 -23
s-96.834 -37 -135.501 -65c-26.667 -61.333 -48.167 -134.666 -64.5 -219.999s-24.5 -170.333 -24.5 -255v-133c0 -142.667 39.167 -252.167 117.5 -328.5s183.5 -114.5 315.5 -114.5c62.667 0 126.834 9.83301 192.501 29.5s124.5 44.5 176.5 74.5v-106
c-62 -40 -130.667 -71.167 -206 -93.5s-149.666 -33.5 -222.999 -33.5c-185.333 0 -325.5 44.667 -420.5 134s-142.5 223.666 -142.5 402.999v89zM568.998 1598c0 18.667 2.66699 36.502 8 53.502s12.5 31.833 21.5 44.5s19.333 22.667 31 30s24.167 11 37.5 11
c19.333 0 37.333 -2.5 54 -7.5s31.334 -12 44.001 -21s22.5 -19.5 29.5 -31.5s10.5 -25 10.5 -39c0 -18.667 -2.66699 -36.334 -8 -53.001s-12.5 -31.334 -21.5 -44.001s-19.333 -22.667 -31 -30s-24.167 -11 -37.5 -11c-19.333 0 -37.333 2.66699 -54 8
s-31.334 12.5 -44.001 21.5s-22.5 19.333 -29.5 31s-10.5 24.167 -10.5 37.5z" />
    <glyph glyph-name="cdotaccent" unicode="&#x10b;" horiz-adv-x="972" 
d="M96 492c0 197.333 42.1689 349.166 126.502 455.499s200.833 159.5 349.5 159.5c50.667 0 101.5 -5 152.5 -15s101.833 -26 152.5 -48l19 -234l-110 -23l-69 179c-22.667 6.66699 -46 11.834 -70 15.501s-50 5.5 -78 5.5c-41.333 0 -81.833 -5 -121.5 -15
s-76.834 -25 -111.501 -45c-14.667 -40 -28.334 -93.167 -41.001 -159.5s-19 -138.166 -19 -215.499v-109c0 -106.667 31 -190.834 93 -252.501s136.667 -92.5 224 -92.5c48 0 96.5 6.16699 145.5 18.5s98.833 30.5 149.5 54.5v-96c-46 -28.667 -98.833 -52 -158.5 -70
s-121.5 -27 -185.5 -27c-140.667 0 -250.5 36.167 -329.5 108.5s-118.5 176.5 -118.5 312.5v93zM469.002 1401c0 18.667 2.66699 36.502 8 53.502s12.5 31.833 21.5 44.5s19.333 22.667 31 30s24.167 11 37.5 11c19.333 0 37.333 -2.5 54 -7.5s31.334 -12 44.001 -21
s22.5 -19.5 29.5 -31.5s10.5 -25 10.5 -39c0 -18.667 -2.66699 -36.334 -8 -53.001s-12.5 -31.334 -21.5 -44.001s-19.333 -22.667 -31 -30s-24.167 -11 -37.5 -11c-19.333 0 -37.333 2.66699 -54 8s-31.334 12.5 -44.001 21.5s-22.5 19.333 -29.5 31
s-10.5 24.167 -10.5 37.5z" />
    <glyph glyph-name="Ccaron" unicode="&#x10c;" horiz-adv-x="1176" 
d="M100 604c0 254 51.3311 446 153.998 576s253 195 451 195c63.333 0 127.333 -5 192 -15s121.667 -24.667 171 -44l21 -270l-105 -22l-83 195c-25.333 8 -57.666 14.5 -96.999 19.5s-81.333 7.5 -126 7.5c-57.333 0 -111.833 -7.66699 -163.5 -23
s-96.834 -37 -135.501 -65c-26.667 -61.333 -48.167 -134.666 -64.5 -219.999s-24.5 -170.333 -24.5 -255v-133c0 -142.667 39.167 -252.167 117.5 -328.5s183.5 -114.5 315.5 -114.5c62.667 0 126.834 9.83301 192.501 29.5s124.5 44.5 176.5 74.5v-106
c-62 -40 -130.667 -71.167 -206 -93.5s-149.666 -33.5 -222.999 -33.5c-185.333 0 -325.5 44.667 -420.5 134s-142.5 223.666 -142.5 402.999v89zM335.998 1784l125 10l238 -192l231 192l95 -10v-32l-283 -292l-133 10l-273 282v32z" />
    <glyph glyph-name="ccaron" unicode="&#x10d;" horiz-adv-x="972" 
d="M96 492c0 197.333 42.1689 349.166 126.502 455.499s200.833 159.5 349.5 159.5c50.667 0 101.5 -5 152.5 -15s101.833 -26 152.5 -48l19 -234l-110 -23l-69 179c-22.667 6.66699 -46 11.834 -70 15.501s-50 5.5 -78 5.5c-41.333 0 -81.833 -5 -121.5 -15
s-76.834 -25 -111.501 -45c-14.667 -40 -28.334 -93.167 -41.001 -159.5s-19 -138.166 -19 -215.499v-109c0 -106.667 31 -190.834 93 -252.501s136.667 -92.5 224 -92.5c48 0 96.5 6.16699 145.5 18.5s98.833 30.5 149.5 54.5v-96c-46 -28.667 -98.833 -52 -158.5 -70
s-121.5 -27 -185.5 -27c-140.667 0 -250.5 36.167 -329.5 108.5s-118.5 176.5 -118.5 312.5v93zM281.002 1660l125 10l193 -252l186 252l95 -10v-32l-233 -373l-133 10l-233 363v32z" />
    <glyph glyph-name="Dcaron" unicode="&#x10e;" horiz-adv-x="1362" 
d="M231 1221l-153.001 34l20 98h540c201.333 0 353 -50.5 455 -151.5s153 -246.5 153 -436.5v-78c0 -212 -51.667 -379.5 -155 -502.5s-246.666 -184.5 -429.999 -184.5h-563l-20 98l153 34v1089zM420.999 1224v-1095h211c52 0 101.333 4.16699 148 12.5s90 20.5 130 36.5
c41.333 51.333 76 116.333 104 195s42 161.667 42 249v94c0 160.667 -38.5 285.5 -115.5 374.5s-190.833 133.5 -341.5 133.5h-178zM233.999 1784l125 10l238 -192l231 192l95 -10v-32l-283 -292l-133 10l-273 282v32z" />
    <glyph glyph-name="dcaron" unicode="&#x10f;" horiz-adv-x="1186" 
d="M979 132l153.001 -33.999l-20 -98l-235 -22l-58 177c-48.667 -63.333 -101.834 -109 -159.501 -137s-117.5 -41.333 -179.5 -40c-119.333 0 -212.833 37.5 -280.5 112.5s-101.5 182.5 -101.5 322.5v93c0 187.333 42.167 334.333 126.5 441s201.5 160 351.5 160
c28 0 60.167 -1.83301 96.5 -5.5s78.5 -9.83398 126.5 -18.501v325l-153 34l20 98l313 22v-1430zM278.001 434.001c0 -108.667 23.334 -191.833 70.001 -249.5s109 -86.5 187 -86.5c48.667 0 97.167 13.167 145.5 39.5s87.833 55.5 118.5 87.5v735
c-38.667 8 -79.334 14.5 -122.001 19.5s-83 7.5 -121 7.5c-43.333 0 -85 -6.16699 -125 -18.5s-74.333 -28.5 -103 -48.5c-16 -52 -28.333 -109.167 -37 -171.5s-13 -127.5 -13 -195.5v-119zM1123 1540h166v-42l-63 -341h-103v383z" />
    <glyph glyph-name="Dcroat" unicode="&#x110;" horiz-adv-x="1362" 
d="M78 758l153.001 0.000976562v463l-153 34l20 98h540c102.667 0 192.167 -13.167 268.5 -39.5s139.666 -64.666 189.999 -114.999s87.833 -112 112.5 -185s37 -155.833 37 -248.5v-78c0 -104.667 -13.167 -199.334 -39.5 -284.001s-64.5 -156.834 -114.5 -216.501
s-111.167 -105.667 -183.5 -138s-154.833 -48.5 -247.5 -48.5h-563l-20 98l153 34v497h-153v129zM421.001 1224v-466h290v-129h-290v-500h211c40 0 77 2.5 111 7.5s63.333 10.5 88 16.5c28.667 7.33301 55 15.666 79 24.999c26.667 34.667 51 74.667 73 120
c18 38.667 34.667 85.167 50 139.5s23 115.833 23 184.5v94c0 78.667 -9.33301 149.334 -28 212.001s-46.834 116 -84.501 160s-85.167 77.667 -142.5 101s-124.666 35 -201.999 35h-178z" />
    <glyph glyph-name="dcroat" unicode="&#x111;" horiz-adv-x="1186" 
d="M979 1333l153.003 0.00390625v-100h-153v-1101l153 -34l-20 -98l-235 -22l-58 177c-14 -18 -31 -37.333 -51 -58s-43.667 -39.834 -71 -57.501s-58.833 -32.334 -94.5 -44.001s-76.5 -17.5 -122.5 -17.5c-56.667 0 -108.334 8.83301 -155.001 26.5
s-86.834 44.5 -120.501 80.5s-59.834 81.167 -78.501 135.5s-28 118.5 -28 192.5v93c0 91.333 10.333 174 31 248s51 137.167 91 189.5s89.833 92.666 149.5 120.999s128.5 42.5 206.5 42.5c35.333 0 72.333 -2.33301 111 -7s76 -10.334 112 -17.001v150h-360v100h360v75
l-153 34l20 98l313 22v-229zM278.003 434.004c0 -62.667 7.16602 -115.333 21.499 -158s33.5 -77.167 57.5 -103.5s51.5 -45.333 82.5 -57s62.833 -17.5 95.5 -17.5c36 0 70 6.5 102 19.5s60 27.5 84 43.5c28 18.667 54 40 78 64v735c-28.667 6 -64.334 12 -107.001 18
s-88 9 -136 9c-36 0 -68.167 -3.5 -96.5 -10.5s-52.166 -14.833 -71.499 -23.5c-22.667 -10 -42.667 -21 -60 -33c-9.33301 -29.333 -17.666 -62.666 -24.999 -99.999c-6.66699 -32 -12.5 -70.333 -17.5 -115s-7.5 -95.334 -7.5 -152.001v-119z" />
    <glyph glyph-name="Emacron" unicode="&#x112;" horiz-adv-x="1191" 
d="M419 643v-514h481l83 193l104 -23l-24 -299h-967l-20 98l153 34v1089l-153 34l20 98h937l24 -300l-103 -22l-83 193h-452v-452h357l34 122l99 -20v-334l-99 -20l-34 123h-357zM229 1660h771l-20 -120h-770z" />
    <glyph glyph-name="emacron" unicode="&#x113;" horiz-adv-x="1034" 
d="M276 523l0.00195312 -76c0 -112 30.833 -198.167 92.5 -258.5s135.167 -90.5 220.5 -90.5c55.333 0 109.666 6 162.999 18s103 27.667 149 47v-96c-58 -30.667 -118.833 -53.167 -182.5 -67.5s-126.834 -21.5 -189.501 -21.5c-137.333 0 -243.833 37.333 -319.5 112
s-113.5 182.667 -113.5 324v83c0 191.333 42.5 340.833 127.5 448.5s200.833 161.5 347.5 161.5c135.333 0 233 -34.5 293 -103.5s90 -189.167 90 -360.5v-120h-678zM336.002 927c-14.667 -37.333 -27.167 -82.668 -37.5 -136.001s-16.833 -102.666 -19.5 -147.999h485
c0 121.333 -17.5 209 -52.5 263s-91.167 81 -168.5 81c-39.333 0 -78 -6 -116 -18s-68.333 -26 -91 -42zM238.002 1473h711l-20 -120h-710z" />
    <glyph glyph-name="Ebreve" unicode="&#x114;" horiz-adv-x="1191" 
d="M419 643v-514h481l83 193l104 -23l-24 -299h-967l-20 98l153 34v1089l-153 34l20 98h937l24 -300l-103 -22l-83 193h-452v-452h357l34 122l99 -20v-334l-99 -20l-34 123h-357zM923 1749c0 -33.333 -7.66309 -66.5 -22.9961 -99.5s-37.333 -62.667 -66 -89
s-63.834 -47.666 -105.501 -63.999s-88.834 -24.5 -141.501 -24.5s-99.834 8.16699 -141.501 24.5s-76.834 37.666 -105.501 63.999s-50.667 56 -66 89s-23 66.167 -23 99.5l97 10c0 -9.33301 4 -22.833 12 -40.5s21.167 -35.167 39.5 -52.5s42.833 -32.333 73.5 -45
s68.667 -19 114 -19s83.333 6.33301 114 19s55.167 27.667 73.5 45s31.5 34.833 39.5 52.5s12 31.167 12 40.5z" />
    <glyph glyph-name="ebreve" unicode="&#x115;" horiz-adv-x="1034" 
d="M276 523l0.00195312 -76c0 -112 30.833 -198.167 92.5 -258.5s135.167 -90.5 220.5 -90.5c55.333 0 109.666 6 162.999 18s103 27.667 149 47v-96c-58 -30.667 -118.833 -53.167 -182.5 -67.5s-126.834 -21.5 -189.501 -21.5c-137.333 0 -243.833 37.333 -319.5 112
s-113.5 182.667 -113.5 324v83c0 191.333 42.5 340.833 127.5 448.5s200.833 161.5 347.5 161.5c135.333 0 233 -34.5 293 -103.5s90 -189.167 90 -360.5v-120h-678zM336.002 927c-14.667 -37.333 -27.167 -82.668 -37.5 -136.001s-16.833 -102.666 -19.5 -147.999h485
c0 121.333 -17.5 209 -52.5 263s-91.167 81 -168.5 81c-39.333 0 -78 -6 -116 -18s-68.333 -26 -91 -42zM875.002 1592c0 -36 -7.16309 -71.667 -21.4961 -107s-34.833 -67 -61.5 -95s-58.834 -50.833 -96.501 -68.5s-79.834 -26.5 -126.501 -26.5
s-88.834 8.83301 -126.501 26.5s-69.834 40.5 -96.501 68.5s-47.167 59.667 -61.5 95s-21.5 71 -21.5 107l97 10c0 -10.667 4 -25.834 12 -45.501s20.5 -39.334 37.5 -59.001s38.667 -36.667 65 -51s57.833 -21.5 94.5 -21.5s68.167 7.16699 94.5 21.5s48 31.333 65 51
s29.5 39.334 37.5 59.001s12 34.834 12 45.501z" />
    <glyph glyph-name="Edotaccent" unicode="&#x116;" horiz-adv-x="1191" 
d="M419 643v-514h481l83 193l104 -23l-24 -299h-967l-20 98l153 34v1089l-153 34l20 98h937l24 -300l-103 -22l-83 193h-452v-452h357l34 122l99 -20v-334l-99 -20l-34 123h-357zM479 1598c0 18.667 2.66699 36.502 8 53.502s12.5 31.833 21.5 44.5s19.333 22.667 31 30
s24.167 11 37.5 11c19.333 0 37.333 -2.5 54 -7.5s31.334 -12 44.001 -21s22.5 -19.5 29.5 -31.5s10.5 -25 10.5 -39c0 -18.667 -2.66699 -36.334 -8 -53.001s-12.5 -31.334 -21.5 -44.001s-19.333 -22.667 -31 -30s-24.167 -11 -37.5 -11c-19.333 0 -37.333 2.66699 -54 8
s-31.334 12.5 -44.001 21.5s-22.5 19.333 -29.5 31s-10.5 24.167 -10.5 37.5z" />
    <glyph glyph-name="edotaccent" unicode="&#x117;" horiz-adv-x="1034" 
d="M276 523l0.00195312 -76c0 -112 30.833 -198.167 92.5 -258.5s135.167 -90.5 220.5 -90.5c55.333 0 109.666 6 162.999 18s103 27.667 149 47v-96c-58 -30.667 -118.833 -53.167 -182.5 -67.5s-126.834 -21.5 -189.501 -21.5c-137.333 0 -243.833 37.333 -319.5 112
s-113.5 182.667 -113.5 324v83c0 191.333 42.5 340.833 127.5 448.5s200.833 161.5 347.5 161.5c135.333 0 233 -34.5 293 -103.5s90 -189.167 90 -360.5v-120h-678zM336.002 927c-14.667 -37.333 -27.167 -82.668 -37.5 -136.001s-16.833 -102.666 -19.5 -147.999h485
c0 121.333 -17.5 209 -52.5 263s-91.167 81 -168.5 81c-39.333 0 -78 -6 -116 -18s-68.333 -26 -91 -42zM466.002 1401c0 18.667 2.66699 36.502 8 53.502s12.5 31.833 21.5 44.5s19.333 22.667 31 30s24.167 11 37.5 11c19.333 0 37.333 -2.5 54 -7.5
s31.334 -12 44.001 -21s22.5 -19.5 29.5 -31.5s10.5 -25 10.5 -39c0 -18.667 -2.66699 -36.334 -8 -53.001s-12.5 -31.334 -21.5 -44.001s-19.333 -22.667 -31 -30s-24.167 -11 -37.5 -11c-19.333 0 -37.333 2.66699 -54 8s-31.334 12.5 -44.001 21.5s-22.5 19.333 -29.5 31
s-10.5 24.167 -10.5 37.5z" />
    <glyph glyph-name="Eogonek" unicode="&#x118;" horiz-adv-x="1191" 
d="M1063 0c-28 -20 -53.166 -42.167 -75.499 -66.5s-41.5 -49.333 -57.5 -75s-28.167 -51.5 -36.5 -77.5s-12.5 -50.333 -12.5 -73c0 -25.333 6 -42.5 18 -51.5s28.333 -13.5 49 -13.5c19.333 0 38.333 4.16699 57 12.5s35.667 17.5 51 27.5
c17.333 12 34.666 25.333 51.999 40v-93c-16 -16.667 -35 -31.334 -57 -44.001c-18.667 -11.333 -40.834 -21.333 -66.501 -30s-54.5 -13 -86.5 -13c-52.667 0 -92.167 9.66699 -118.5 29s-39.5 54 -39.5 104c0 42.667 9 84.334 27 125.001s42 79.667 72 117
c22.667 28 48.334 55.333 77.001 82h-820l-20 98l153 34v1089l-153 34l20 98h937l24 -300l-103 -22l-83 193h-452v-452h357l34 122l99 -20v-334l-99 -20l-34 123h-357v-514h481l83 193l104 -23z" />
    <glyph glyph-name="eogonek" unicode="&#x119;" horiz-adv-x="1034" 
d="M276 523l0.00292969 -75.9971c0 -112 30.833 -198.167 92.5 -258.5s135.167 -90.5 220.5 -90.5c55.333 0 109.666 6 162.999 18s103 27.667 149 47v-96c-35.333 -21.333 -67.333 -47.333 -96 -78s-53 -62.834 -73 -96.501s-35.5 -66.667 -46.5 -99
s-16.5 -60.833 -16.5 -85.5c0 -25.333 6 -42.5 18 -51.5s28.333 -13.5 49 -13.5c19.333 0 38.333 4.16699 57 12.5s35.667 17.5 51 27.5c17.333 12 34.666 25.333 51.999 40v-93c-16 -16.667 -35 -31.334 -57 -44.001c-18.667 -11.333 -40.834 -21.333 -66.501 -30
s-54.5 -13 -86.5 -13c-52.667 0 -92.167 9.66699 -118.5 29s-39.5 54 -39.5 104c0 42.667 10.5 86.667 31.5 132s48.833 89.666 83.5 132.999c14.667 18 30 35.667 46 53c-54 -10.667 -107.333 -16 -160 -16c-137.333 0 -243.833 37.333 -319.5 112
s-113.5 182.667 -113.5 324v83c0 191.333 42.5 340.833 127.5 448.5s200.833 161.5 347.5 161.5c135.333 0 233 -34.5 293 -103.5s90 -189.167 90 -360.5v-120h-678zM336.003 927.003c-14.667 -37.333 -27.167 -82.668 -37.5 -136.001s-16.833 -102.666 -19.5 -147.999h485
c0 121.333 -17.5 209 -52.5 263s-91.167 81 -168.5 81c-39.333 0 -78 -6 -116 -18s-68.333 -26 -91 -42z" />
    <glyph glyph-name="Ecaron" unicode="&#x11a;" horiz-adv-x="1191" 
d="M419 643v-514h481l83 193l104 -23l-24 -299h-967l-20 98l153 34v1089l-153 34l20 98h937l24 -300l-103 -22l-83 193h-452v-452h357l34 122l99 -20v-334l-99 -20l-34 123h-357zM246 1784l125 10l238 -192l231 192l95 -10v-32l-283 -292l-133 10l-273 282v32z" />
    <glyph glyph-name="ecaron" unicode="&#x11b;" horiz-adv-x="1034" 
d="M276 523l0.00195312 -76c0 -112 30.833 -198.167 92.5 -258.5s135.167 -90.5 220.5 -90.5c55.333 0 109.666 6 162.999 18s103 27.667 149 47v-96c-58 -30.667 -118.833 -53.167 -182.5 -67.5s-126.834 -21.5 -189.501 -21.5c-137.333 0 -243.833 37.333 -319.5 112
s-113.5 182.667 -113.5 324v83c0 191.333 42.5 340.833 127.5 448.5s200.833 161.5 347.5 161.5c135.333 0 233 -34.5 293 -103.5s90 -189.167 90 -360.5v-120h-678zM336.002 927c-14.667 -37.333 -27.167 -82.668 -37.5 -136.001s-16.833 -102.666 -19.5 -147.999h485
c0 121.333 -17.5 209 -52.5 263s-91.167 81 -168.5 81c-39.333 0 -78 -6 -116 -18s-68.333 -26 -91 -42zM278.002 1660l125 10l193 -252l186 252l95 -10v-32l-233 -373l-133 10l-233 363v32z" />
    <glyph glyph-name="Gcircumflex" unicode="&#x11c;" horiz-adv-x="1300" 
d="M1092 105c-64 -39.333 -134.334 -70.333 -211.001 -93s-152.667 -34 -228 -34c-174.667 0 -310.167 45 -406.5 135s-144.5 220.667 -144.5 392v89c0 252 52.5 445.167 157.5 579.5s256.5 201.5 454.5 201.5c65.333 0 130.333 -5 195 -15s120.667 -24 168 -42l21 -270
l-105 -22l-82 193c-25.333 7.33301 -58 13.666 -98 18.999s-80.667 8 -122 8c-58 0 -113.167 -7.83301 -165.5 -23.5s-97.166 -37.167 -134.499 -64.5c-30.667 -62 -54.834 -134.167 -72.501 -216.5s-26.5 -168.5 -26.5 -258.5v-133c0 -140.667 40.333 -249.667 121 -327
s177.334 -116 290.001 -116c34.667 0 69 3.33301 103 10s66 15.334 96 26.001v361l-153 34l20 108h455l20 -108l-152 -34v-399zM1051 1470l-125 -10l-238 192l-231 -192l-95 10v32l283 292l133 -10l273 -282v-32z" />
    <glyph glyph-name="gcircumflex" unicode="&#x11d;" horiz-adv-x="1075" 
d="M824 978l-4 -9.99609c28.667 -19.333 53.667 -48.333 75 -87s32 -79 32 -121v-25c0 -112 -36.5 -201.167 -109.5 -267.5s-169.833 -99.5 -290.5 -99.5c-43.333 0 -83 4 -119 12c-36 -33.333 -65.167 -64.833 -87.5 -94.5s-33.5 -53.5 -33.5 -71.5
c0 -17.333 6.16699 -30.666 18.5 -39.999s29.833 -14 52.5 -14h224c158.667 0 277.5 -23 356.5 -69s118.5 -118.333 118.5 -217c0 -108 -46.167 -190.167 -138.5 -246.5s-223.5 -84.5 -393.5 -84.5c-148 0 -257.167 15.667 -327.5 47s-105.5 81.666 -105.5 150.999
c0 44.667 18.167 89.667 54.5 135s87.833 89.666 154.5 132.999c-48 9.33301 -85.667 26.666 -113 51.999s-41 58.666 -41 99.999c0 39.333 15.833 80.666 47.5 123.999s73.5 84.666 125.5 123.999c-57.333 27.333 -100.5 64.333 -129.5 111s-43.5 96.667 -43.5 150v26
c0 130.667 36.333 231.834 109 303.501s169.667 107.5 291 107.5c19.333 0 43.833 -2.16699 73.5 -6.5s56.167 -9.5 79.5 -15.5h314l18 -107h-208zM411 0.00390625c-46.667 -34.667 -84.832 -70.999 -114.499 -108.999s-44.5 -73.333 -44.5 -106
c0 -47.333 24.5 -79.5 73.5 -96.5s135.5 -25.5 259.5 -25.5c51.333 0 103.166 4.16699 155.499 12.5s98.833 21.166 139.5 38.499c11.333 16 20.333 35.167 27 57.5s10 44.833 10 67.5c0 60.667 -24.167 102.667 -72.5 126s-131.833 35 -250.5 35h-183zM747.002 764.005
c0 70 -22.001 124.667 -66.001 164s-96.667 59 -158 59c-30.667 0 -59.667 -2.83301 -87 -8.5s-50.333 -12.834 -69 -21.501c-14 -36 -24.167 -72.667 -30.5 -110s-9.5 -71.666 -9.5 -102.999v-38c0 -64.667 23.667 -117.167 71 -157.5s98.333 -60.5 153 -60.5
c32 0 60.833 2.5 86.5 7.5s48.834 12.5 69.501 22.5c11.333 21.333 20.833 50.5 28.5 87.5s11.5 77.167 11.5 120.5v38zM854.001 1275l-125 -10l-193 252l-186 -252l-95 10v32l233 373l133 -10l233 -363v-32z" />
    <glyph glyph-name="Gbreve" unicode="&#x11e;" horiz-adv-x="1300" 
d="M1092 105c-64 -39.333 -134.334 -70.333 -211.001 -93s-152.667 -34 -228 -34c-174.667 0 -310.167 45 -406.5 135s-144.5 220.667 -144.5 392v89c0 252 52.5 445.167 157.5 579.5s256.5 201.5 454.5 201.5c65.333 0 130.333 -5 195 -15s120.667 -24 168 -42l21 -270
l-105 -22l-82 193c-25.333 7.33301 -58 13.666 -98 18.999s-80.667 8 -122 8c-58 0 -113.167 -7.83301 -165.5 -23.5s-97.166 -37.167 -134.499 -64.5c-30.667 -62 -54.834 -134.167 -72.501 -216.5s-26.5 -168.5 -26.5 -258.5v-133c0 -140.667 40.333 -249.667 121 -327
s177.334 -116 290.001 -116c34.667 0 69 3.33301 103 10s66 15.334 96 26.001v361l-153 34l20 108h455l20 -108l-152 -34v-399zM1029 1749c0 -33.333 -7.66309 -66.5 -22.9961 -99.5s-37.333 -62.667 -66 -89s-63.834 -47.666 -105.501 -63.999
s-88.834 -24.5 -141.501 -24.5s-99.834 8.16699 -141.501 24.5s-76.834 37.666 -105.501 63.999s-50.667 56 -66 89s-23 66.167 -23 99.5l97 10c0 -9.33301 4 -22.833 12 -40.5s21.167 -35.167 39.5 -52.5s42.833 -32.333 73.5 -45s68.667 -19 114 -19
s83.333 6.33301 114 19s55.167 27.667 73.5 45s31.5 34.833 39.5 52.5s12 31.167 12 40.5z" />
    <glyph glyph-name="gbreve" unicode="&#x11f;" horiz-adv-x="1075" 
d="M824 978l-4 -9.99609c28.667 -19.333 53.667 -48.333 75 -87s32 -79 32 -121v-25c0 -112 -36.5 -201.167 -109.5 -267.5s-169.833 -99.5 -290.5 -99.5c-43.333 0 -83 4 -119 12c-36 -33.333 -65.167 -64.833 -87.5 -94.5s-33.5 -53.5 -33.5 -71.5
c0 -17.333 6.16699 -30.666 18.5 -39.999s29.833 -14 52.5 -14h224c158.667 0 277.5 -23 356.5 -69s118.5 -118.333 118.5 -217c0 -108 -46.167 -190.167 -138.5 -246.5s-223.5 -84.5 -393.5 -84.5c-148 0 -257.167 15.667 -327.5 47s-105.5 81.666 -105.5 150.999
c0 44.667 18.167 89.667 54.5 135s87.833 89.666 154.5 132.999c-48 9.33301 -85.667 26.666 -113 51.999s-41 58.666 -41 99.999c0 39.333 15.833 80.666 47.5 123.999s73.5 84.666 125.5 123.999c-57.333 27.333 -100.5 64.333 -129.5 111s-43.5 96.667 -43.5 150v26
c0 130.667 36.333 231.834 109 303.501s169.667 107.5 291 107.5c19.333 0 43.833 -2.16699 73.5 -6.5s56.167 -9.5 79.5 -15.5h314l18 -107h-208zM411 0.00390625c-46.667 -34.667 -84.832 -70.999 -114.499 -108.999s-44.5 -73.333 -44.5 -106
c0 -47.333 24.5 -79.5 73.5 -96.5s135.5 -25.5 259.5 -25.5c51.333 0 103.166 4.16699 155.499 12.5s98.833 21.166 139.5 38.499c11.333 16 20.333 35.167 27 57.5s10 44.833 10 67.5c0 60.667 -24.167 102.667 -72.5 126s-131.833 35 -250.5 35h-183zM747.002 764.005
c0 70 -22.001 124.667 -66.001 164s-96.667 59 -158 59c-30.667 0 -59.667 -2.83301 -87 -8.5s-50.333 -12.834 -69 -21.501c-14 -36 -24.167 -72.667 -30.5 -110s-9.5 -71.666 -9.5 -102.999v-38c0 -64.667 23.667 -117.167 71 -157.5s98.333 -60.5 153 -60.5
c32 0 60.833 2.5 86.5 7.5s48.834 12.5 69.501 22.5c11.333 21.333 20.833 50.5 28.5 87.5s11.5 77.167 11.5 120.5v38zM855.001 1592c0 -36 -7.16309 -71.667 -21.4961 -107s-34.833 -67 -61.5 -95s-58.834 -50.833 -96.501 -68.5s-79.834 -26.5 -126.501 -26.5
s-88.834 8.83301 -126.501 26.5s-69.834 40.5 -96.501 68.5s-47.167 59.667 -61.5 95s-21.5 71 -21.5 107l97 10c0 -10.667 4 -25.834 12 -45.501s20.5 -39.334 37.5 -59.001s38.667 -36.667 65 -51s57.833 -21.5 94.5 -21.5s68.167 7.16699 94.5 21.5s48 31.333 65 51
s29.5 39.334 37.5 59.001s12 34.834 12 45.501z" />
    <glyph glyph-name="Gdotaccent" unicode="&#x120;" horiz-adv-x="1300" 
d="M1092 105c-64 -39.333 -134.334 -70.333 -211.001 -93s-152.667 -34 -228 -34c-174.667 0 -310.167 45 -406.5 135s-144.5 220.667 -144.5 392v89c0 252 52.5 445.167 157.5 579.5s256.5 201.5 454.5 201.5c65.333 0 130.333 -5 195 -15s120.667 -24 168 -42l21 -270
l-105 -22l-82 193c-25.333 7.33301 -58 13.666 -98 18.999s-80.667 8 -122 8c-58 0 -113.167 -7.83301 -165.5 -23.5s-97.166 -37.167 -134.499 -64.5c-30.667 -62 -54.834 -134.167 -72.501 -216.5s-26.5 -168.5 -26.5 -258.5v-133c0 -140.667 40.333 -249.667 121 -327
s177.334 -116 290.001 -116c34.667 0 69 3.33301 103 10s66 15.334 96 26.001v361l-153 34l20 108h455l20 -108l-152 -34v-399zM584.999 1598c0 18.667 2.66699 36.502 8 53.502s12.5 31.833 21.5 44.5s19.333 22.667 31 30s24.167 11 37.5 11c19.333 0 37.333 -2.5 54 -7.5
s31.334 -12 44.001 -21s22.5 -19.5 29.5 -31.5s10.5 -25 10.5 -39c0 -18.667 -2.66699 -36.334 -8 -53.001s-12.5 -31.334 -21.5 -44.001s-19.333 -22.667 -31 -30s-24.167 -11 -37.5 -11c-19.333 0 -37.333 2.66699 -54 8s-31.334 12.5 -44.001 21.5s-22.5 19.333 -29.5 31
s-10.5 24.167 -10.5 37.5z" />
    <glyph glyph-name="gdotaccent" unicode="&#x121;" horiz-adv-x="1075" 
d="M824 978l-4 -9.99609c28.667 -19.333 53.667 -48.333 75 -87s32 -79 32 -121v-25c0 -112 -36.5 -201.167 -109.5 -267.5s-169.833 -99.5 -290.5 -99.5c-43.333 0 -83 4 -119 12c-36 -33.333 -65.167 -64.833 -87.5 -94.5s-33.5 -53.5 -33.5 -71.5
c0 -17.333 6.16699 -30.666 18.5 -39.999s29.833 -14 52.5 -14h224c158.667 0 277.5 -23 356.5 -69s118.5 -118.333 118.5 -217c0 -108 -46.167 -190.167 -138.5 -246.5s-223.5 -84.5 -393.5 -84.5c-148 0 -257.167 15.667 -327.5 47s-105.5 81.666 -105.5 150.999
c0 44.667 18.167 89.667 54.5 135s87.833 89.666 154.5 132.999c-48 9.33301 -85.667 26.666 -113 51.999s-41 58.666 -41 99.999c0 39.333 15.833 80.666 47.5 123.999s73.5 84.666 125.5 123.999c-57.333 27.333 -100.5 64.333 -129.5 111s-43.5 96.667 -43.5 150v26
c0 130.667 36.333 231.834 109 303.501s169.667 107.5 291 107.5c19.333 0 43.833 -2.16699 73.5 -6.5s56.167 -9.5 79.5 -15.5h314l18 -107h-208zM411 0.00390625c-46.667 -34.667 -84.832 -70.999 -114.499 -108.999s-44.5 -73.333 -44.5 -106
c0 -47.333 24.5 -79.5 73.5 -96.5s135.5 -25.5 259.5 -25.5c51.333 0 103.166 4.16699 155.499 12.5s98.833 21.166 139.5 38.499c11.333 16 20.333 35.167 27 57.5s10 44.833 10 67.5c0 60.667 -24.167 102.667 -72.5 126s-131.833 35 -250.5 35h-183zM747.002 764.005
c0 70 -22.001 124.667 -66.001 164s-96.667 59 -158 59c-30.667 0 -59.667 -2.83301 -87 -8.5s-50.333 -12.834 -69 -21.501c-14 -36 -24.167 -72.667 -30.5 -110s-9.5 -71.666 -9.5 -102.999v-38c0 -64.667 23.667 -117.167 71 -157.5s98.333 -60.5 153 -60.5
c32 0 60.833 2.5 86.5 7.5s48.834 12.5 69.501 22.5c11.333 21.333 20.833 50.5 28.5 87.5s11.5 77.167 11.5 120.5v38zM446.001 1401c0 18.667 2.66699 36.502 8 53.502s12.5 31.833 21.5 44.5s19.333 22.667 31 30s24.167 11 37.5 11c19.333 0 37.333 -2.5 54 -7.5
s31.334 -12 44.001 -21s22.5 -19.5 29.5 -31.5s10.5 -25 10.5 -39c0 -18.667 -2.66699 -36.334 -8 -53.001s-12.5 -31.334 -21.5 -44.001s-19.333 -22.667 -31 -30s-24.167 -11 -37.5 -11c-19.333 0 -37.333 2.66699 -54 8s-31.334 12.5 -44.001 21.5s-22.5 19.333 -29.5 31
s-10.5 24.167 -10.5 37.5z" />
    <glyph glyph-name="Gcommaaccent" unicode="&#x122;" horiz-adv-x="1300" 
d="M1092 105c-64 -39.333 -134.334 -70.333 -211.001 -93s-152.667 -34 -228 -34c-174.667 0 -310.167 45 -406.5 135s-144.5 220.667 -144.5 392v89c0 252 52.5 445.167 157.5 579.5s256.5 201.5 454.5 201.5c65.333 0 130.333 -5 195 -15s120.667 -24 168 -42l21 -270
l-105 -22l-82 193c-25.333 7.33301 -58 13.666 -98 18.999s-80.667 8 -122 8c-58 0 -113.167 -7.83301 -165.5 -23.5s-97.166 -37.167 -134.499 -64.5c-30.667 -62 -54.834 -134.167 -72.501 -216.5s-26.5 -168.5 -26.5 -258.5v-133c0 -140.667 40.333 -249.667 121 -327
s177.334 -116 290.001 -116c34.667 0 69 3.33301 103 10s66 15.334 96 26.001v361l-153 34l20 108h455l20 -108l-152 -34v-399zM580.999 -128h166v-42l-63 -341h-103v383z" />
    <glyph glyph-name="gcommaaccent" unicode="&#x123;" horiz-adv-x="1075" 
d="M824 978l-4 -9.99609c28.667 -19.333 53.667 -48.333 75 -87s32 -79 32 -121v-25c0 -112 -36.5 -201.167 -109.5 -267.5s-169.833 -99.5 -290.5 -99.5c-43.333 0 -83 4 -119 12c-36 -33.333 -65.167 -64.833 -87.5 -94.5s-33.5 -53.5 -33.5 -71.5
c0 -17.333 6.16699 -30.666 18.5 -39.999s29.833 -14 52.5 -14h224c158.667 0 277.5 -23 356.5 -69s118.5 -118.333 118.5 -217c0 -108 -46.167 -190.167 -138.5 -246.5s-223.5 -84.5 -393.5 -84.5c-148 0 -257.167 15.667 -327.5 47s-105.5 81.666 -105.5 150.999
c0 44.667 18.167 89.667 54.5 135s87.833 89.666 154.5 132.999c-48 9.33301 -85.667 26.666 -113 51.999s-41 58.666 -41 99.999c0 39.333 15.833 80.666 47.5 123.999s73.5 84.666 125.5 123.999c-57.333 27.333 -100.5 64.333 -129.5 111s-43.5 96.667 -43.5 150v26
c0 130.667 36.333 231.834 109 303.501s169.667 107.5 291 107.5c19.333 0 43.833 -2.16699 73.5 -6.5s56.167 -9.5 79.5 -15.5h314l18 -107h-208zM411 0.00390625c-46.667 -34.667 -84.832 -70.999 -114.499 -108.999s-44.5 -73.333 -44.5 -106
c0 -47.333 24.5 -79.5 73.5 -96.5s135.5 -25.5 259.5 -25.5c51.333 0 103.166 4.16699 155.499 12.5s98.833 21.166 139.5 38.499c11.333 16 20.333 35.167 27 57.5s10 44.833 10 67.5c0 60.667 -24.167 102.667 -72.5 126s-131.833 35 -250.5 35h-183zM747.002 764.005
c0 70 -22.001 124.667 -66.001 164s-96.667 59 -158 59c-30.667 0 -59.667 -2.83301 -87 -8.5s-50.333 -12.834 -69 -21.501c-14 -36 -24.167 -72.667 -30.5 -110s-9.5 -71.666 -9.5 -102.999v-38c0 -64.667 23.667 -117.167 71 -157.5s98.333 -60.5 153 -60.5
c32 0 60.833 2.5 86.5 7.5s48.834 12.5 69.501 22.5c11.333 21.333 20.833 50.5 28.5 87.5s11.5 77.167 11.5 120.5v38zM616.978 1265h-165.989v41.9971l62.9961 340.979h102.993v-382.977z" />
    <glyph glyph-name="Hcircumflex" unicode="&#x124;" horiz-adv-x="1459" 
d="M225 1221l-153 34l20 98h455l20 -98l-152 -34v-443h624v443l-152 34l20 98h456l20 -98l-154 -34v-1089l154 -34l-20 -98h-456l-20 98l152 34v517h-624v-517l152 -34l-20 -98h-455l-20 98l153 34v1089zM1086 1470l-125 -10l-238 192l-231 -192l-95 10v32l283 292l133 -10
l273 -282v-32z" />
    <glyph glyph-name="hcircumflex" unicode="&#x125;" horiz-adv-x="1324" 
d="M83 98l153.002 34.001v1276l-153 34l20 98l313 22v-615l14 -6c41.333 52.667 90 93.5 146 122.5s117.667 43.5 185 43.5c118.667 0 206.167 -31.333 262.5 -94s84.5 -158.334 84.5 -287.001v-594l153 -34l-20 -98h-446l-20 98l153 34v560
c0 106 -17.833 181.667 -53.5 227s-93.167 68 -172.5 68c-50.667 0 -101.834 -14.333 -153.501 -43s-95.834 -64 -132.501 -106v-706l153 -34l-20 -98h-446zM649.002 1680l-125 -10l-238 192l-231 -192l-95 10v32l283 292l133 -10l273 -282v-32z" />
    <glyph glyph-name="Hbar" unicode="&#x126;" horiz-adv-x="1459" 
d="M84 1085h141v136l-153 34l20 98h455l20 -98l-152 -34v-136h624v136l-152 34l20 98h456l20 -98l-154 -34v-136h166v-129h-166v-824l154 -34l-20 -98h-456l-20 98l152 34v517h-624v-517l152 -34l-20 -98h-455l-20 98l153 34v824h-141v129zM1039 778v178h-624v-178h624z" />
    <glyph glyph-name="hbar" unicode="&#x127;" horiz-adv-x="1324" 
d="M83 98l153.002 34.001v1071h-153v120h153v85l-153 34l20 98l313 22v-239h360v-120h-360v-256l14 -6c41.333 52.667 90 93.5 146 122.5s117.667 43.5 185 43.5c118.667 0 206.167 -31.333 262.5 -94s84.5 -158.334 84.5 -287.001v-594l153 -34l-20 -98h-446l-20 98l153 34
v560c0 106 -17.833 181.667 -53.5 227s-93.167 68 -172.5 68c-50.667 0 -101.834 -14.333 -153.501 -43s-95.834 -64 -132.501 -106v-706l153 -34l-20 -98h-446z" />
    <glyph glyph-name="Itilde" unicode="&#x128;" horiz-adv-x="643" 
d="M225 1221l-153 34l20 98h455l20 -98l-152 -34v-1089l152 -34l-20 -98h-455l-20 98l153 34v1089zM-72 1520c0 75.333 19.5 132.332 58.5 170.999s92.833 58 161.5 58c36 0 72.5 -6.83301 109.5 -20.5s72.333 -28.834 106 -45.501l93.5 -45.5
c28.667 -13.667 52.667 -20.5 72 -20.5c25.333 0 45.5 9.83301 60.5 29.5s22.5 49.834 22.5 90.501l117 10v-47c0 -70.667 -17.833 -126.5 -53.5 -167.5s-87.167 -61.5 -154.5 -61.5c-32.667 0 -68.167 6.83301 -106.5 20.5s-76 28.834 -113 45.501l-102.5 45.5
c-31.333 13.667 -56.333 20.5 -75 20.5c-13.333 0 -25.5 -1.33301 -36.5 -4s-20.167 -7.66699 -27.5 -15s-13 -17.333 -17 -30s-6 -29 -6 -49l-109 -10v25z" />
    <glyph glyph-name="itilde" unicode="&#x129;" horiz-adv-x="660" 
d="M439 132l153 -34l-20 -98h-446l-20 98l153 34v821l-153 34l20 98l313 22v-975zM-86 1307c0 75.333 19.5 132.332 58.5 170.999s92.833 58 161.5 58c36 0 72.5 -6.83301 109.5 -20.5s72.333 -28.834 106 -45.501l93.5 -45.5c28.667 -13.667 52.667 -20.5 72 -20.5
c25.333 0 45.5 9.83301 60.5 29.5s22.5 49.834 22.5 90.501l117 10v-47c0 -70.667 -17.833 -126.5 -53.5 -167.5s-87.167 -61.5 -154.5 -61.5c-32.667 0 -68.167 6.83301 -106.5 20.5s-76 28.834 -113 45.501l-102.5 45.5c-31.333 13.667 -56.333 20.5 -75 20.5
c-13.333 0 -25.5 -1.33301 -36.5 -4s-20.167 -7.66699 -27.5 -15s-13 -17.333 -17 -30s-6 -29 -6 -49l-109 -10v25z" />
    <glyph glyph-name="Imacron" unicode="&#x12a;" horiz-adv-x="643" 
d="M225 1221l-153 34l20 98h455l20 -98l-152 -34v-1089l152 -34l-20 -98h-455l-20 98l153 34v1089zM-42 1660h771l-20 -120h-770z" />
    <glyph glyph-name="imacron" unicode="&#x12b;" horiz-adv-x="660" 
d="M439 132l153 -34l-20 -98h-446l-20 98l153 34v821l-153 34l20 98l313 22v-975zM-19 1473h711l-20 -120h-710z" />
    <glyph glyph-name="Ibreve" unicode="&#x12c;" horiz-adv-x="643" 
d="M225 1221l-153 34l20 98h455l20 -98l-152 -34v-1089l152 -34l-20 -98h-455l-20 98l153 34v1089zM652 1749c0 -33.333 -7.66309 -66.5 -22.9961 -99.5s-37.333 -62.667 -66 -89s-63.834 -47.666 -105.501 -63.999s-88.834 -24.5 -141.501 -24.5
s-99.834 8.16699 -141.501 24.5s-76.834 37.666 -105.501 63.999s-50.667 56 -66 89s-23 66.167 -23 99.5l97 10c0 -9.33301 4 -22.833 12 -40.5s21.167 -35.167 39.5 -52.5s42.833 -32.333 73.5 -45s68.667 -19 114 -19s83.333 6.33301 114 19s55.167 27.667 73.5 45
s31.5 34.833 39.5 52.5s12 31.167 12 40.5z" />
    <glyph glyph-name="ibreve" unicode="&#x12d;" horiz-adv-x="660" 
d="M439 132l153 -34l-20 -98h-446l-20 98l153 34v821l-153 34l20 98l313 22v-975zM618 1592c0 -36 -7.16309 -71.667 -21.4961 -107s-34.833 -67 -61.5 -95s-58.834 -50.833 -96.501 -68.5s-79.834 -26.5 -126.501 -26.5s-88.834 8.83301 -126.501 26.5
s-69.834 40.5 -96.501 68.5s-47.167 59.667 -61.5 95s-21.5 71 -21.5 107l97 10c0 -10.667 4 -25.834 12 -45.501s20.5 -39.334 37.5 -59.001s38.667 -36.667 65 -51s57.833 -21.5 94.5 -21.5s68.167 7.16699 94.5 21.5s48 31.333 65 51s29.5 39.334 37.5 59.001
s12 34.834 12 45.501z" />
    <glyph glyph-name="Iogonek" unicode="&#x12e;" horiz-adv-x="643" 
d="M371 0c-28 -20 -53.166 -42.167 -75.499 -66.5s-41.5 -49.333 -57.5 -75s-28.167 -51.5 -36.5 -77.5s-12.5 -50.333 -12.5 -73c0 -25.333 6 -42.5 18 -51.5s28.333 -13.5 49 -13.5c19.333 0 38.333 4.16699 57 12.5s35.667 17.5 51 27.5
c17.333 12 34.666 25.333 51.999 40v-93c-16 -16.667 -35 -31.334 -57 -44.001c-18.667 -11.333 -40.834 -21.333 -66.501 -30s-54.5 -13 -86.5 -13c-52.667 0 -92.167 9.66699 -118.5 29s-39.5 54 -39.5 104c0 42.667 9 84.334 27 125.001s42 79.667 72 117
c22.667 28 48.334 55.333 77.001 82h-132l-20 98l153 34v1089l-153 34l20 98h455l20 -98l-152 -34v-1089l152 -34l-20 -98h-176z" />
    <glyph glyph-name="iogonek" unicode="&#x12f;" horiz-adv-x="660" 
d="M415 0c-28 -20 -53.166 -42.167 -75.499 -66.5s-41.5 -49.333 -57.5 -75s-28.167 -51.5 -36.5 -77.5s-12.5 -50.333 -12.5 -73c0 -25.333 6 -42.5 18 -51.5s28.333 -13.5 49 -13.5c19.333 0 38.333 4.16699 57 12.5s35.667 17.5 51 27.5
c17.333 12 34.666 25.333 51.999 40v-93c-16 -16.667 -35 -31.334 -57 -44.001c-18.667 -11.333 -40.834 -21.333 -66.501 -30s-54.5 -13 -86.5 -13c-52.667 0 -92.167 9.66699 -118.5 29s-39.5 54 -39.5 104c0 42.667 9 84.334 27 125.001s42 79.667 72 117
c22.667 28 48.334 55.333 77.001 82h-142l-20 98l153 34v821l-153 34l20 98l313 22v-975l153 -34l-20 -98h-157zM212.001 1401c0 37.333 9.83203 69.8311 29.499 97.498s42.5 41.5 68.5 41.5c38 0 70.5 -9.66699 97.5 -29s40.5 -42.666 40.5 -69.999
c0 -37.333 -9.83301 -69.666 -29.5 -96.999s-42.5 -41 -68.5 -41c-37.333 0 -69.666 9.66699 -96.999 29s-41 42.333 -41 69z" />
    <glyph glyph-name="Idotaccent" unicode="&#x130;" horiz-adv-x="643" 
d="M225 1221l-153 34l20 98h455l20 -98l-152 -34v-1089l152 -34l-20 -98h-455l-20 98l153 34v1089zM208 1598c0 18.667 2.66699 36.502 8 53.502s12.5 31.833 21.5 44.5s19.333 22.667 31 30s24.167 11 37.5 11c19.333 0 37.333 -2.5 54 -7.5s31.334 -12 44.001 -21
s22.5 -19.5 29.5 -31.5s10.5 -25 10.5 -39c0 -18.667 -2.66699 -36.334 -8 -53.001s-12.5 -31.334 -21.5 -44.001s-19.333 -22.667 -31 -30s-24.167 -11 -37.5 -11c-19.333 0 -37.333 2.66699 -54 8s-31.334 12.5 -44.001 21.5s-22.5 19.333 -29.5 31
s-10.5 24.167 -10.5 37.5z" />
    <glyph glyph-name="dotlessi" unicode="&#x131;" horiz-adv-x="660" 
d="M439 132l153 -34l-20 -98h-446l-20 98l153 34v821l-153 34l20 98l313 22v-975z" />
    <glyph glyph-name="IJ" unicode="&#x132;" horiz-adv-x="1502" 
d="M225 1221l-153 34l20 98h455l20 -98l-152 -34v-1089l152 -34l-20 -98h-455l-20 98l153 34v1089zM1290 336c0 -116 -28 -204.666 -84 -265.999s-139.667 -92 -251 -92c-40 0 -80 5.33301 -120 16s-73.667 23 -101 37l-21 260l103 22l82 -192
c14 -5.33301 27.667 -9.16602 41 -11.499s25.666 -3.5 36.999 -3.5c16 0 32.333 2 49 6s31.334 9 44.001 15c9.33301 25.333 16.833 59.166 22.5 101.499s8.5 89.166 8.5 140.499v852l-193 34l20 98h495l20 -98l-152 -34v-885z" />
    <glyph glyph-name="ij" unicode="&#x133;" horiz-adv-x="1229" 
d="M259 953l-153 34l20 98l313 22v-975l153 -34l-20 -98h-446l-20 98l153 34v821zM212 1401c0 37.333 9.83203 69.8311 29.499 97.498s42.5 41.5 68.5 41.5c38 0 70.5 -9.66699 97.5 -29s40.5 -42.666 40.5 -69.999c0 -37.333 -9.83301 -69.666 -29.5 -96.999
s-42.5 -41 -68.5 -41c-37.333 0 -69.666 9.66699 -96.999 29s-41 42.333 -41 69zM1072 -47.002c0 -138.667 -23.667 -241.666 -71 -308.999s-126 -101 -236 -101c-36 0 -72.333 3.33301 -109 10s-70 15.667 -100 27l36 131c40 -10.667 84.167 -20.167 132.5 -28.5
s90.833 -12.5 127.5 -12.5c12 25.333 21.667 59.166 29 101.499s11 89.833 11 142.5v1039l-183 34l20 98l343 22v-1154zM844.999 1401c0 37.333 9.83203 69.8311 29.499 97.498s42.5 41.5 68.5 41.5c38 0 70.5 -9.66699 97.5 -29s40.5 -42.666 40.5 -69.999
c0 -37.333 -9.83301 -69.666 -29.5 -96.999s-42.5 -41 -68.5 -41c-37.333 0 -69.666 9.66699 -96.999 29s-41 42.333 -41 69z" />
    <glyph glyph-name="Jcircumflex" unicode="&#x134;" horiz-adv-x="859" 
d="M647 336c0 -116 -28 -204.666 -84 -265.999s-139.667 -92 -251 -92c-40 0 -80 5.33301 -120 16s-73.667 23 -101 37l-21 260l103 22l82 -192c14 -5.33301 27.667 -9.16602 41 -11.499s25.666 -3.5 36.999 -3.5c16 0 32.333 2 49 6s31.334 9 44.001 15
c9.33301 25.333 16.833 59.166 22.5 101.499s8.5 89.166 8.5 140.499v852l-193 34l20 98h495l20 -98l-152 -34v-885zM888 1470l-125 -10l-238 192l-231 -192l-95 10v32l283 292l133 -10l273 -282v-32z" />
    <glyph glyph-name="jcircumflex" unicode="&#x135;" horiz-adv-x="569" 
d="M412 -47c0 -79.333 -7.16797 -145.333 -21.501 -198s-34.833 -94.667 -61.5 -126s-59 -53.5 -97 -66.5s-80.333 -19.5 -127 -19.5c-30 0 -57.667 1.83301 -83 5.5s-47.333 7.83398 -66 12.501c-22 5.33301 -42 11.666 -60 18.999l36 131c28 -8 57 -15 87 -21
c25.333 -5.33301 53.333 -10 84 -14s60.334 -6 89.001 -6c7.33301 16 14 35.667 20 59c5.33301 20 10 45.333 14 76s6 67 6 109v1039l-183 34l20 98l343 22v-1154zM575.999 1275l-125 -10l-193 252l-186 -252l-95 10v32l233 373l133 -10l233 -363v-32z" />
    <glyph glyph-name="Kcommaaccent" unicode="&#x136;" horiz-adv-x="1304" 
d="M72 98l153 34v1089l-153 34l20 98h455l20 -98l-152 -34v-557l14 -6l544 575l-110 21l20 99h362l20 -98l-122 -34l-433 -455l456 -633l146 -35l-20 -98h-244l-459 639l-174 -183v-324l152 -34l-20 -98h-455zM576 -128h166v-42l-63 -341h-103v383z" />
    <glyph glyph-name="kcommaaccent" unicode="&#x137;" horiz-adv-x="1185" 
d="M84 98l153 34v1276l-153 34l20 98l313 22v-989l14 -6l429 401l-92 19l20 98h322l20 -98l-87 -19l-359 -325l343 -511l134 -34l-20 -98h-223l-357 532l-144 -130v-270l153 -34l-20 -98h-446zM548 -128h166v-42l-63 -341h-103v383z" />
    <glyph glyph-name="kgreenlandic" unicode="&#x138;" horiz-adv-x="1206" 
d="M106 98l153 34v821l-153 34l20 98l313 22v-540l10 -4c28.667 0 54.667 7.83301 78 23.5s45 36.167 65 61.5s39.167 54.333 57.5 87l56.5 100c19.333 34 39.666 67.333 60.999 100s45 61.667 71 87s55 45.833 87 61.5s68.667 23.5 110 23.5c22 0 42.333 -2.5 61 -7.5
s34.834 -12 48.501 -21s24.5 -19.833 32.5 -32.5s12 -26.667 12 -42c0 -18 -2.5 -35.5 -7.5 -52.5s-12 -32.167 -21 -45.5s-19.833 -24 -32.5 -32s-27 -12 -43 -12c-26 0 -48.5 4.66699 -67.5 14s-38.833 23.333 -59.5 42c-14 0 -28.667 -9.33301 -44 -28
s-32 -42.834 -50 -72.501l-58.5 -99c-21 -36.333 -43.833 -72.5 -68.5 -108.5l315 -480l131 -32l-20 -98h-223l-314 480c-27.333 -23.333 -56.333 -42.166 -87 -56.499s-64 -21.5 -100 -21.5v-270l153 -34l-20 -98h-446z" />
    <glyph glyph-name="Lacute" unicode="&#x139;" horiz-adv-x="1018" 
d="M227 1221l-153 34l20 98h455l20 -98l-152 -34v-1092h336l83 193l104 -22l-25 -300h-821l-20 98l153 34v1089zM178 1503l298 281l192 -10v-66l-375 -248l-115 11v32z" />
    <glyph glyph-name="lacute" unicode="&#x13a;" horiz-adv-x="642" 
d="M246 1408l-153 34l20 98l313 22v-1430l153 -34l-20 -98h-446l-20 98l153 34v1276zM146 1713l298 281l192 -10v-66l-375 -248l-115 11v32z" />
    <glyph glyph-name="Lcommaaccent" unicode="&#x13b;" horiz-adv-x="1018" 
d="M227 1221l-153 34l20 98h455l20 -98l-152 -34v-1092h336l83 193l104 -22l-25 -300h-821l-20 98l153 34v1089zM421 -128h166v-42l-63 -341h-103v383z" />
    <glyph glyph-name="lcommaaccent" unicode="&#x13c;" horiz-adv-x="642" 
d="M246 1408l-153 34l20 98l313 22v-1430l153 -34l-20 -98h-446l-20 98l153 34v1276zM243 -128h166v-42l-63 -341h-103v383z" />
    <glyph glyph-name="Lcaron" unicode="&#x13d;" horiz-adv-x="1018" 
d="M227 1221l-153 34l20 98h455l20 -98l-152 -34v-1092h336l83 193l104 -22l-25 -300h-821l-20 98l153 34v1089zM663 1540h166v-42l-63 -341h-103v383z" />
    <glyph glyph-name="lcaron" unicode="&#x13e;" horiz-adv-x="642" 
d="M246 1408l-153 34l20 98l313 22v-1430l153 -34l-20 -98h-446l-20 98l153 34v1276zM565 1539h166v-42l-63 -341h-103v383z" />
    <glyph glyph-name="Ldot" unicode="&#x13f;" horiz-adv-x="1028" 
d="M227 1221l-153 34l20 98h455l20 -98l-152 -34v-1092h336l83 193l104 -22l-25 -300h-821l-20 98l153 34v1089zM764 654c0 20.667 2.33301 40.332 7 58.999s11.167 35 19.5 49s18 25.167 29 33.5s22.5 12.5 34.5 12.5c22 0 42.333 -2.33301 61 -7
s34.834 -11.167 48.501 -19.5s24.5 -18.166 32.5 -29.499s12 -23.333 12 -36c0 -20 -2.33301 -39.333 -7 -58s-11.167 -35 -19.5 -49s-18 -25.167 -29 -33.5s-22.833 -12.5 -35.5 -12.5c-21.333 0 -41.333 2.33301 -60 7s-34.834 11.167 -48.501 19.5s-24.5 18 -32.5 29
s-12 22.833 -12 35.5z" />
    <glyph glyph-name="ldot" unicode="&#x140;" horiz-adv-x="792" 
d="M246 1408l-153 34l20 98l313 22v-1430l153 -34l-20 -98h-446l-20 98l153 34v1276zM608 654c0 20.667 2.33301 40.332 7 58.999s11.167 35 19.5 49s18 25.167 29 33.5s22.5 12.5 34.5 12.5c22 0 42.333 -2.33301 61 -7s34.834 -11.167 48.501 -19.5
s24.5 -18.166 32.5 -29.499s12 -23.333 12 -36c0 -20 -2.33301 -39.333 -7 -58s-11.167 -35 -19.5 -49s-18 -25.167 -29 -33.5s-22.833 -12.5 -35.5 -12.5c-21.333 0 -41.333 2.33301 -60 7s-34.834 11.167 -48.501 19.5s-24.5 18 -32.5 29s-12 22.833 -12 35.5z" />
    <glyph glyph-name="Lslash" unicode="&#x141;" horiz-adv-x="1018" 
d="M27 549l200 116v556l-153 34l20 98h455l20 -98l-152 -34v-446l339 196v-138l-339 -197v-507h336l83 193l104 -22l-25 -300h-821l-20 98l153 34v394l-200 -116v139z" />
    <glyph glyph-name="lslash" unicode="&#x142;" horiz-adv-x="642" 
d="M0 684l246 141v583l-153 34l20 98l313 22v-633l235 135v-138l-235 -136v-658l153 -34l-20 -98h-446l-20 98l153 34v555l-246 -142v139z" />
    <glyph glyph-name="Nacute" unicode="&#x143;" horiz-adv-x="1532" 
d="M225 1221l-153 34l20 98h420l655 -1217h16v1085l-154 34l20 98h407l20 -98l-152 -34v-1221h-287l-656 1218h-16v-1086l152 -34l-20 -98h-405l-20 98l153 34v1089zM643 1503l298 281l192 -10v-66l-375 -248l-115 11v32z" />
    <glyph glyph-name="nacute" unicode="&#x144;" horiz-adv-x="1346" 
d="M106 98l153 33.999v821l-153 34l20 98l235 22l58 -178c49.333 56 105 99.667 167 131s127.333 47 196 47c119.333 0 207.333 -31.167 264 -93.5s85 -158.166 85 -287.499v-594l153 -34l-20 -98h-446l-20 98l153 34v550c0 102 -16.5 178.333 -49.5 229s-92.5 76 -178.5 76
c-44.667 0 -91.5 -11 -140.5 -33s-96.833 -54 -143.5 -96v-726l153 -34l-20 -98h-446zM628 1307l203 363l182 -10v-66l-280 -329l-105 10v32z" />
    <glyph glyph-name="Ncommaaccent" unicode="&#x145;" horiz-adv-x="1532" 
d="M225 1221l-153 34l20 98h420l655 -1217h16v1085l-154 34l20 98h407l20 -98l-152 -34v-1221h-287l-656 1218h-16v-1086l152 -34l-20 -98h-405l-20 98l153 34v1089zM664 -128h166v-42l-63 -341h-103v383z" />
    <glyph glyph-name="ncommaaccent" unicode="&#x146;" horiz-adv-x="1346" 
d="M106 98l153 33.999v821l-153 34l20 98l235 22l58 -178c49.333 56 105 99.667 167 131s127.333 47 196 47c119.333 0 207.333 -31.167 264 -93.5s85 -158.166 85 -287.499v-594l153 -34l-20 -98h-446l-20 98l153 34v550c0 102 -16.5 178.333 -49.5 229s-92.5 76 -178.5 76
c-44.667 0 -91.5 -11 -140.5 -33s-96.833 -54 -143.5 -96v-726l153 -34l-20 -98h-446zM599 -128.001h166v-42l-63 -341h-103v383z" />
    <glyph glyph-name="Ncaron" unicode="&#x147;" horiz-adv-x="1532" 
d="M225 1221l-153 34l20 98h420l655 -1217h16v1085l-154 34l20 98h407l20 -98l-152 -34v-1221h-287l-656 1218h-16v-1086l152 -34l-20 -98h-405l-20 98l153 34v1089zM442 1784l125 10l238 -192l231 192l95 -10v-32l-283 -292l-133 10l-273 282v32z" />
    <glyph glyph-name="ncaron" unicode="&#x148;" horiz-adv-x="1346" 
d="M106 98l153 33.999v821l-153 34l20 98l235 22l58 -178c49.333 56 105 99.667 167 131s127.333 47 196 47c119.333 0 207.333 -31.167 264 -93.5s85 -158.166 85 -287.499v-594l153 -34l-20 -98h-446l-20 98l153 34v550c0 102 -16.5 178.333 -49.5 229s-92.5 76 -178.5 76
c-44.667 0 -91.5 -11 -140.5 -33s-96.833 -54 -143.5 -96v-726l153 -34l-20 -98h-446zM414 1660l125 10l193 -252l186 252l95 -10v-32l-233 -373l-133 10l-233 363v32z" />
    <glyph glyph-name="napostrophe" unicode="&#x149;" horiz-adv-x="1401" 
d="M161 98l153 33.999v821l-153 34l20 98l235 22l58 -178c49.333 56 105 99.667 167 131s127.333 47 196 47c119.333 0 207.333 -31.167 264 -93.5s85 -158.166 85 -287.499v-594l153 -34l-20 -98h-446l-20 98l153 34v550c0 102 -16.5 178.333 -49.5 229s-92.5 76 -178.5 76
c-44.667 0 -91.5 -11 -140.5 -33s-96.833 -54 -143.5 -96v-726l153 -34l-20 -98h-446zM-99 1404c0 21.333 2.50195 41.501 7.50195 60.501s11.667 35.833 20 50.5s18.166 26.167 29.499 34.5s23.333 12.5 36 12.5c24 0 48.833 -3.66699 74.5 -11
s46.834 -19.666 63.501 -36.999c10.667 -11.333 20.167 -28 28.5 -50s12.5 -54.333 12.5 -97c0 -30.667 -2.33301 -60.334 -7 -89.001s-14 -58 -28 -88s-33.833 -60.833 -59.5 -92.5s-59.834 -65.834 -102.501 -102.501l-62 73c52.667 44 89 82.833 109 116.5
s30 63.167 30 88.5c0 12 -4.83301 21.333 -14.5 28s-21.834 12 -36.501 16c-30 7.33301 -54.333 18.833 -73 34.5s-28 33.167 -28 52.5z" />
    <glyph glyph-name="Eng" unicode="&#x14a;" horiz-adv-x="1532" 
d="M225 1221l-153.003 34.002l20 98h420l655 -1217h16v1085l-154 34l20 98h407l20 -98l-152 -34v-1221c0 -72.667 -8.5 -137.334 -25.5 -194.001s-41.5 -104.5 -73.5 -143.5s-71 -68.667 -117 -89s-98 -30.5 -156 -30.5c-32.667 0 -62.5 1.83301 -89.5 5.5
s-50.5 7.83398 -70.5 12.501c-23.333 5.33301 -44.666 11.666 -63.999 18.999l36 131c36 -8 72.333 -15 109 -21c32 -5.33301 66.333 -10 103 -14s72 -6 106 -6c18.667 20.667 35.334 45.667 50.001 75c12.667 24.667 24.334 55.167 35.001 91.5s16 78.166 16 125.499v38
h-146l-656 1218h-16v-1086l152 -34l-20 -98h-405l-20 98l153 34v1089z" />
    <glyph glyph-name="eng" unicode="&#x14b;" horiz-adv-x="1346" 
d="M106 98l152.995 33.999v821l-153 34l20 98l235 22l58 -178c12.667 14.667 29.834 32.167 51.501 52.5s47.834 39.833 78.501 58.5s65.334 34.5 104.001 47.5s81.667 19.5 129 19.5c55.333 0 104.666 -6.83301 147.999 -20.5s79.833 -35.5 109.5 -65.5
s52.334 -69.167 68.001 -117.5s23.5 -107.5 23.5 -177.5v-773c0 -79.333 -7.16699 -145.333 -21.5 -198s-34.833 -94.667 -61.5 -126s-59 -53.5 -97 -66.5s-80.333 -19.5 -127 -19.5c-30 0 -57.667 1.83301 -83 5.5s-47.333 7.83398 -66 12.501
c-22 5.33301 -42 11.666 -60 18.999l36 131c28 -8 57 -15 87 -21c25.333 -5.33301 53.333 -10 84 -14s60.334 -6 89.001 -6c7.33301 16 14 35.667 20 59c5.33301 20 10 45.333 14 76s6 67 6 109v768c0 62 -5.5 112.833 -16.5 152.5s-26.5 70.834 -46.5 93.501
s-44.333 38.167 -73 46.5s-60.667 12.5 -96 12.5c-37.333 0 -72.666 -6.83301 -105.999 -20.5s-63 -28.5 -89 -44.5c-30.667 -18.667 -59 -40 -85 -64v-726l153 -34l-20 -98h-446z" />
    <glyph glyph-name="Omacron" unicode="&#x14c;" horiz-adv-x="1345" 
d="M663 -22c-186 0 -326 45.833 -420 137.5s-141 228.167 -141 409.5v79c0 259.333 49.333 452.666 148 579.999s243 191 433 191c185.333 0 325 -45.5 419 -136.5s141 -228.167 141 -411.5v-78c0 -251.333 -48 -442.666 -144 -573.999s-241.333 -197 -436 -197zM1053 783
c0 157.333 -34.835 273.831 -104.502 349.498s-168.167 113.5 -295.5 113.5c-59.333 0 -115.333 -9.16699 -168 -27.5s-94 -38.5 -124 -60.5c-20 -61.333 -36.5 -130.166 -49.5 -206.499s-19.5 -159.166 -19.5 -248.499v-133c0 -147.333 37.5 -261.333 112.5 -342
s171.167 -121 288.5 -121c58.667 0 113.834 8.83301 165.501 26.5s93.834 38.5 126.501 62.5c21.333 66.667 38 140 50 220s18 158 18 234v133zM303.998 1660h771l-20 -120h-770z" />
    <glyph glyph-name="omacron" unicode="&#x14d;" horiz-adv-x="1114" 
d="M547 -22c-145.333 0 -256.833 38.832 -334.5 116.499s-116.5 185.834 -116.5 324.501v93c0 184 42.167 329.167 126.5 435.5s195.833 159.5 334.5 159.5c145.333 0 258.5 -38.833 339.5 -116.5s121.5 -189.167 121.5 -334.5v-94c0 -176.667 -42 -318.167 -126 -424.5
s-199 -159.5 -345 -159.5zM838 621.999c0 114 -26.167 202.833 -78.5 266.5s-126.5 96.5 -222.5 98.5c-36.667 0 -73.334 -5.83301 -110.001 -17.5s-67 -25.834 -91 -42.501c-17.333 -39.333 -31.666 -90.333 -42.999 -153s-17 -130 -17 -202v-119
c0 -112 28.833 -199.167 86.5 -261.5s129.167 -93.5 214.5 -93.5c33.333 0 67.666 5.33301 102.999 16s68 25.334 98 44.001c20.667 43.333 35.834 95 45.501 155s14.5 123.333 14.5 190v119zM232 1473h711l-20 -120h-710z" />
    <glyph glyph-name="Obreve" unicode="&#x14e;" horiz-adv-x="1345" 
d="M663 -22c-186 0 -326 45.833 -420 137.5s-141 228.167 -141 409.5v79c0 259.333 49.333 452.666 148 579.999s243 191 433 191c185.333 0 325 -45.5 419 -136.5s141 -228.167 141 -411.5v-78c0 -251.333 -48 -442.666 -144 -573.999s-241.333 -197 -436 -197zM1053 783
c0 157.333 -34.835 273.831 -104.502 349.498s-168.167 113.5 -295.5 113.5c-59.333 0 -115.333 -9.16699 -168 -27.5s-94 -38.5 -124 -60.5c-20 -61.333 -36.5 -130.166 -49.5 -206.499s-19.5 -159.166 -19.5 -248.499v-133c0 -147.333 37.5 -261.333 112.5 -342
s171.167 -121 288.5 -121c58.667 0 113.834 8.83301 165.501 26.5s93.834 38.5 126.501 62.5c21.333 66.667 38 140 50 220s18 158 18 234v133zM997.998 1749c0 -33.333 -7.66309 -66.5 -22.9961 -99.5s-37.333 -62.667 -66 -89s-63.834 -47.666 -105.501 -63.999
s-88.834 -24.5 -141.501 -24.5s-99.834 8.16699 -141.501 24.5s-76.834 37.666 -105.501 63.999s-50.667 56 -66 89s-23 66.167 -23 99.5l97 10c0 -9.33301 4 -22.833 12 -40.5s21.167 -35.167 39.5 -52.5s42.833 -32.333 73.5 -45s68.667 -19 114 -19
s83.333 6.33301 114 19s55.167 27.667 73.5 45s31.5 34.833 39.5 52.5s12 31.167 12 40.5z" />
    <glyph glyph-name="obreve" unicode="&#x14f;" horiz-adv-x="1114" 
d="M547 -22c-145.333 0 -256.833 38.832 -334.5 116.499s-116.5 185.834 -116.5 324.501v93c0 184 42.167 329.167 126.5 435.5s195.833 159.5 334.5 159.5c145.333 0 258.5 -38.833 339.5 -116.5s121.5 -189.167 121.5 -334.5v-94c0 -176.667 -42 -318.167 -126 -424.5
s-199 -159.5 -345 -159.5zM838 621.999c0 114 -26.167 202.833 -78.5 266.5s-126.5 96.5 -222.5 98.5c-36.667 0 -73.334 -5.83301 -110.001 -17.5s-67 -25.834 -91 -42.501c-17.333 -39.333 -31.666 -90.333 -42.999 -153s-17 -130 -17 -202v-119
c0 -112 28.833 -199.167 86.5 -261.5s129.167 -93.5 214.5 -93.5c33.333 0 67.666 5.33301 102.999 16s68 25.334 98 44.001c20.667 43.333 35.834 95 45.501 155s14.5 123.333 14.5 190v119zM869 1592c0 -36 -7.16309 -71.667 -21.4961 -107s-34.833 -67 -61.5 -95
s-58.834 -50.833 -96.501 -68.5s-79.834 -26.5 -126.501 -26.5s-88.834 8.83301 -126.501 26.5s-69.834 40.5 -96.501 68.5s-47.167 59.667 -61.5 95s-21.5 71 -21.5 107l97 10c0 -10.667 4 -25.834 12 -45.501s20.5 -39.334 37.5 -59.001s38.667 -36.667 65 -51
s57.833 -21.5 94.5 -21.5s68.167 7.16699 94.5 21.5s48 31.333 65 51s29.5 39.334 37.5 59.001s12 34.834 12 45.501z" />
    <glyph glyph-name="Ohungarumlaut" unicode="&#x150;" horiz-adv-x="1345" 
d="M663 -22c-186 0 -326 45.833 -420 137.5s-141 228.167 -141 409.5v79c0 259.333 49.333 452.666 148 579.999s243 191 433 191c185.333 0 325 -45.5 419 -136.5s141 -228.167 141 -411.5v-78c0 -251.333 -48 -442.666 -144 -573.999s-241.333 -197 -436 -197zM1053 783
c0 157.333 -34.835 273.831 -104.502 349.498s-168.167 113.5 -295.5 113.5c-59.333 0 -115.333 -9.16699 -168 -27.5s-94 -38.5 -124 -60.5c-20 -61.333 -36.5 -130.166 -49.5 -206.499s-19.5 -159.166 -19.5 -248.499v-133c0 -147.333 37.5 -261.333 112.5 -342
s171.167 -121 288.5 -121c58.667 0 113.834 8.83301 165.501 26.5s93.834 38.5 126.501 62.5c21.333 66.667 38 140 50 220s18 158 18 234v133zM348.998 1503l298 281l192 -10v-66l-375 -248l-115 11v32zM767.998 1503l298 281l192 -10v-66l-375 -248l-115 11v32z" />
    <glyph glyph-name="ohungarumlaut" unicode="&#x151;" horiz-adv-x="1114" 
d="M547 -22c-145.333 0 -256.833 38.832 -334.5 116.499s-116.5 185.834 -116.5 324.501v93c0 184 42.167 329.167 126.5 435.5s195.833 159.5 334.5 159.5c145.333 0 258.5 -38.833 339.5 -116.5s121.5 -189.167 121.5 -334.5v-94c0 -176.667 -42 -318.167 -126 -424.5
s-199 -159.5 -345 -159.5zM838 621.999c0 114 -26.167 202.833 -78.5 266.5s-126.5 96.5 -222.5 98.5c-36.667 0 -73.334 -5.83301 -110.001 -17.5s-67 -25.834 -91 -42.501c-17.333 -39.333 -31.666 -90.333 -42.999 -153s-17 -130 -17 -202v-119
c0 -112 28.833 -199.167 86.5 -261.5s129.167 -93.5 214.5 -93.5c33.333 0 67.666 5.33301 102.999 16s68 25.334 98 44.001c20.667 43.333 35.834 95 45.501 155s14.5 123.333 14.5 190v119zM289 1307l203 363l182 -10v-66l-280 -329l-105 10v32zM667 1307l203 363l182 -10
v-66l-280 -329l-105 10v32z" />
    <glyph glyph-name="OE" unicode="&#x152;" horiz-adv-x="1801" 
d="M1386 772l33.999 122l99 -20v-334l-99 -20l-34 123h-357v-514h481l83 193l104 -23l-24 -299h-830c-54 -14.667 -114 -22 -180 -22c-186 0 -326 45.833 -420 137.5s-141 228.167 -141 409.5v79c0 125.333 11.833 236 35.5 332s59.5 176.5 107.5 241.5
s108.333 114.167 181 147.5s158.334 50 257.001 50c36.667 0 71.5 -1.83301 104.5 -5.5s64.5 -9.16699 94.5 -16.5h761l24 -300l-103 -22l-83 193h-452v-452h357zM652.999 1246c-44 0 -83.999 -4.49902 -119.999 -13.499s-66.667 -19.167 -92 -30.5
c-30 -12.667 -56.667 -27.334 -80 -44.001c-13.333 -38.667 -25 -81.667 -35 -129c-8.66699 -40.667 -16.5 -88.667 -23.5 -144s-10.5 -116 -10.5 -182v-133c0 -80 11 -149.167 33 -207.5s51.333 -106.5 88 -144.5s79.167 -66 127.5 -84s99.166 -27 152.499 -27
c28 0 54 1.83301 78 5.5s46.667 8.5 68 14.5v1084c-28 12 -57.5 20.833 -88.5 26.5s-63.5 8.5 -97.5 8.5z" />
    <glyph glyph-name="oe" unicode="&#x153;" horiz-adv-x="1776" 
d="M1018 523l0.000976562 -76.002c0 -112 30.833 -198.167 92.5 -258.5s135.167 -90.5 220.5 -90.5c55.333 0 109.666 6 162.999 18s103 27.667 149 47v-96c-58 -30.667 -118.833 -53.167 -182.5 -67.5s-126.834 -21.5 -189.501 -21.5c-137.333 0 -244 37.333 -320 112
c-18 18 -34.333 38 -49 60c-3.33301 -4 -6.66602 -8.33301 -9.99902 -13c-84 -106 -199 -159 -345 -159c-145.333 0 -256.833 38.833 -334.5 116.5s-116.5 185.834 -116.5 324.501v93c0 184 42.167 329.167 126.5 435.5s195.833 159.5 334.5 159.5
c145.333 0 258.333 -39 339 -117c20.667 -19.333 38.667 -41 54 -65c4.66699 6.66699 9.66699 13.334 15 20.001c85.333 108 201.333 162 348 162c135.333 0 233 -34.5 293 -103.5s90 -189.167 90 -360.5v-120h-678zM838.001 621.998c0 114 -26.167 202.833 -78.5 266.5
s-126.5 96.5 -222.5 98.5c-36.667 0 -73.334 -5.83301 -110.001 -17.5s-67 -25.834 -91 -42.501c-17.333 -39.333 -31.666 -90.333 -42.999 -153s-17 -130 -17 -202v-119c0 -112 28.833 -199.167 86.5 -261.5s129.167 -93.5 214.5 -93.5c33.333 0 67.666 5.33301 102.999 16
s68 25.334 98 44.001c20.667 43.333 35.834 95 45.501 155s14.5 123.333 14.5 190v8v111zM1078 926.998c-14.667 -37.333 -27.167 -82.668 -37.5 -136.001s-16.833 -102.666 -19.5 -147.999h485c0 121.333 -17.5 209 -52.5 263s-91.167 81 -168.5 81
c-39.333 0 -78 -6 -116 -18s-68.333 -26 -91 -42z" />
    <glyph glyph-name="Racute" unicode="&#x154;" horiz-adv-x="1205" 
d="M225 1221l-152.999 34l20 98h492c138.667 0 244.667 -28.167 318 -84.5s110 -142.5 110 -258.5c0 -86.667 -19.833 -162.167 -59.5 -226.5s-93.834 -112.5 -162.501 -144.5l-6 -19l277 -488l146 -34l-20 -98h-249l-340 601h-183v-469l152 -34l-20 -98h-455l-20 98l153 34
v1089zM415.001 1224l0.00195312 -493.999h123c41.333 0 83.166 3 125.499 9s84.166 16 125.499 30c7.33301 30 14 62.667 20 98s9 69.333 9 102c0 79.333 -25.5 141.666 -76.5 186.999s-126.167 68 -225.5 68h-101zM379.003 1503l298 281l192 -10v-66l-375 -248l-115 11v32z
" />
    <glyph glyph-name="racute" unicode="&#x155;" horiz-adv-x="885" 
d="M259 953l-152.998 33.998l20 98l235 22l58 -178c32 60 69.5 104.667 112.5 134s93.167 44 150.5 44c27.333 0 54.166 -3.66699 80.499 -11s49.166 -17.666 68.499 -30.999l-25 -283h-112l-26 185c-12.667 5.33301 -27.667 8 -45 8c-34 0 -68 -12.167 -102 -36.5
s-61.333 -51.166 -82 -80.499v-726l186 -34l-20 -98h-479l-20 98l153 34v821zM401.002 1307l203 363l182 -10v-66l-280 -329l-105 10v32z" />
    <glyph glyph-name="Rcommaaccent" unicode="&#x156;" horiz-adv-x="1205" 
d="M225 1221l-152.999 34l20 98h492c138.667 0 244.667 -28.167 318 -84.5s110 -142.5 110 -258.5c0 -86.667 -19.833 -162.167 -59.5 -226.5s-93.834 -112.5 -162.501 -144.5l-6 -19l277 -488l146 -34l-20 -98h-249l-340 601h-183v-469l152 -34l-20 -98h-455l-20 98l153 34
v1089zM415.001 1224l0.00195312 -493.999h123c41.333 0 83.166 3 125.499 9s84.166 16 125.499 30c7.33301 30 14 62.667 20 98s9 69.333 9 102c0 79.333 -25.5 141.666 -76.5 186.999s-126.167 68 -225.5 68h-101zM544.003 -127.999h166v-42l-63 -341h-103v383z" />
    <glyph glyph-name="rcommaaccent" unicode="&#x157;" horiz-adv-x="885" 
d="M259 953l-152.998 33.998l20 98l235 22l58 -178c32 60 69.5 104.667 112.5 134s93.167 44 150.5 44c27.333 0 54.166 -3.66699 80.499 -11s49.166 -17.666 68.499 -30.999l-25 -283h-112l-26 185c-12.667 5.33301 -27.667 8 -45 8c-34 0 -68 -12.167 -102 -36.5
s-61.333 -51.166 -82 -80.499v-726l186 -34l-20 -98h-479l-20 98l153 34v821zM267.002 -128.002h166v-42l-63 -341h-103v383z" />
    <glyph glyph-name="Rcaron" unicode="&#x158;" horiz-adv-x="1205" 
d="M225 1221l-152.999 34l20 98h492c138.667 0 244.667 -28.167 318 -84.5s110 -142.5 110 -258.5c0 -86.667 -19.833 -162.167 -59.5 -226.5s-93.834 -112.5 -162.501 -144.5l-6 -19l277 -488l146 -34l-20 -98h-249l-340 601h-183v-469l152 -34l-20 -98h-455l-20 98l153 34
v1089zM415.001 1224l0.00195312 -493.999h123c41.333 0 83.166 3 125.499 9s84.166 16 125.499 30c7.33301 30 14 62.667 20 98s9 69.333 9 102c0 79.333 -25.5 141.666 -76.5 186.999s-126.167 68 -225.5 68h-101zM178.003 1784l125 10l238 -192l231 192l95 -10v-32
l-283 -292l-133 10l-273 282v32z" />
    <glyph glyph-name="rcaron" unicode="&#x159;" horiz-adv-x="885" 
d="M259 953l-152.998 33.998l20 98l235 22l58 -178c32 60 69.5 104.667 112.5 134s93.167 44 150.5 44c27.333 0 54.166 -3.66699 80.499 -11s49.166 -17.666 68.499 -30.999l-25 -283h-112l-26 185c-12.667 5.33301 -27.667 8 -45 8c-34 0 -68 -12.167 -102 -36.5
s-61.333 -51.166 -82 -80.499v-726l186 -34l-20 -98h-479l-20 98l153 34v821zM188.002 1660l125 10l193 -252l186 252l95 -10v-32l-233 -373l-133 10l-233 363v32z" />
    <glyph glyph-name="Sacute" unicode="&#x15a;" horiz-adv-x="1066" 
d="M619 762c125.333 -73.333 216.831 -140.502 274.498 -201.502s86.5 -132.833 86.5 -215.5c0 -110 -42.833 -198.667 -128.5 -266s-200.167 -101 -343.5 -101c-80 0 -153.167 6.16699 -219.5 18.5s-119.166 27.166 -158.499 44.499l-21 259l117 25l82 -194
c24.667 -7.33301 52.167 -13.166 82.5 -17.499s64.5 -6.5 102.5 -6.5c49.333 0 96.5 3.33301 141.5 10s86.833 16 125.5 28c6.66699 16.667 13.334 38.834 20.001 66.501s10 60.5 10 98.5c0 42 -19.667 85.833 -59 131.5s-124.333 107.834 -255 186.501
c-169.333 100 -272.833 177.333 -310.5 232s-56.5 114.334 -56.5 179.001c0 97.333 41.833 177.666 125.5 240.999s199.167 95 346.5 95c56 0 112.167 -4 168.5 -12s110.833 -21.333 163.5 -40l21 -270l-105 -22l-82 193c-27.333 7.33301 -55.166 12.833 -83.499 16.5
s-57.833 5.5 -88.5 5.5c-51.333 0 -99.333 -3.66699 -144 -11s-82.334 -16.333 -113.001 -27c-6 -20 -10.667 -41.167 -14 -63.5s-5 -45.833 -5 -70.5c0 -47.333 19.833 -90.833 59.5 -130.5s126.5 -100.167 260.5 -181.5zM405.998 1503l298 281l192 -10v-66l-375 -248
l-115 11v32z" />
    <glyph glyph-name="sacute" unicode="&#x15b;" horiz-adv-x="970" 
d="M571 621c138.667 -70.667 226.498 -131.169 263.498 -181.502s55.5 -106.5 55.5 -168.5c0 -86.667 -38.167 -157.167 -114.5 -211.5s-177.5 -81.5 -303.5 -81.5c-68 0 -131.667 7 -191 21s-107.666 30.333 -144.999 49l-10 240l109 20l58 -187
c26 -8 54.667 -13.833 86 -17.5s63 -5.5 95 -5.5c36 0 71.833 2.16699 107.5 6.5s71.834 11.5 108.501 21.5c6.66699 14 11.667 29.833 15 47.5s5 34.834 5 51.501c0 47.333 -21.333 89.833 -64 127.5s-125.334 88.834 -248.001 153.501c-110.667 58 -185 110 -223 156
s-57 98.667 -57 158c0 83.333 35 152 105 206s169.333 81 298 81c60 0 118.333 -6.16699 175 -18.5s105.334 -28.833 146.001 -49.5l9 -241l-109 -20l-59 189c-26.667 7.33301 -55 12.5 -85 15.5s-57.667 4.5 -83 4.5c-35.333 0 -69.666 -2.5 -102.999 -7.5
s-64 -11.833 -92 -20.5c-6 -10.667 -11.167 -24.5 -15.5 -41.5s-6.5 -34.5 -6.5 -52.5c0 -36 15.167 -69.833 45.5 -101.5s106.166 -79.167 227.499 -142.5zM442.998 1307l203 363l182 -10v-66l-280 -329l-105 10v32z" />
    <glyph glyph-name="Scircumflex" unicode="&#x15c;" horiz-adv-x="1066" 
d="M619 762c125.333 -73.333 216.831 -140.502 274.498 -201.502s86.5 -132.833 86.5 -215.5c0 -110 -42.833 -198.667 -128.5 -266s-200.167 -101 -343.5 -101c-80 0 -153.167 6.16699 -219.5 18.5s-119.166 27.166 -158.499 44.499l-21 259l117 25l82 -194
c24.667 -7.33301 52.167 -13.166 82.5 -17.499s64.5 -6.5 102.5 -6.5c49.333 0 96.5 3.33301 141.5 10s86.833 16 125.5 28c6.66699 16.667 13.334 38.834 20.001 66.501s10 60.5 10 98.5c0 42 -19.667 85.833 -59 131.5s-124.333 107.834 -255 186.501
c-169.333 100 -272.833 177.333 -310.5 232s-56.5 114.334 -56.5 179.001c0 97.333 41.833 177.666 125.5 240.999s199.167 95 346.5 95c56 0 112.167 -4 168.5 -12s110.833 -21.333 163.5 -40l21 -270l-105 -22l-82 193c-27.333 7.33301 -55.166 12.833 -83.499 16.5
s-57.833 5.5 -88.5 5.5c-51.333 0 -99.333 -3.66699 -144 -11s-82.334 -16.333 -113.001 -27c-6 -20 -10.667 -41.167 -14 -63.5s-5 -45.833 -5 -70.5c0 -47.333 19.833 -90.833 59.5 -130.5s126.5 -100.167 260.5 -181.5zM903.998 1470l-125 -10l-238 192l-231 -192l-95 10
v32l283 292l133 -10l273 -282v-32z" />
    <glyph glyph-name="scircumflex" unicode="&#x15d;" horiz-adv-x="970" 
d="M571 621c138.667 -70.667 226.498 -131.169 263.498 -181.502s55.5 -106.5 55.5 -168.5c0 -86.667 -38.167 -157.167 -114.5 -211.5s-177.5 -81.5 -303.5 -81.5c-68 0 -131.667 7 -191 21s-107.666 30.333 -144.999 49l-10 240l109 20l58 -187
c26 -8 54.667 -13.833 86 -17.5s63 -5.5 95 -5.5c36 0 71.833 2.16699 107.5 6.5s71.834 11.5 108.501 21.5c6.66699 14 11.667 29.833 15 47.5s5 34.834 5 51.501c0 47.333 -21.333 89.833 -64 127.5s-125.334 88.834 -248.001 153.501c-110.667 58 -185 110 -223 156
s-57 98.667 -57 158c0 83.333 35 152 105 206s169.333 81 298 81c60 0 118.333 -6.16699 175 -18.5s105.334 -28.833 146.001 -49.5l9 -241l-109 -20l-59 189c-26.667 7.33301 -55 12.5 -85 15.5s-57.667 4.5 -83 4.5c-35.333 0 -69.666 -2.5 -102.999 -7.5
s-64 -11.833 -92 -20.5c-6 -10.667 -11.167 -24.5 -15.5 -41.5s-6.5 -34.5 -6.5 -52.5c0 -36 15.167 -69.833 45.5 -101.5s106.166 -79.167 227.499 -142.5zM824.998 1275l-125 -10l-193 252l-186 -252l-95 10v32l233 373l133 -10l233 -363v-32z" />
    <glyph glyph-name="Scedilla" unicode="&#x15e;" horiz-adv-x="1066" 
d="M619 762c125.333 -73.333 216.835 -140.502 274.502 -201.502s86.5 -132.833 86.5 -215.5c0 -110 -43 -198.667 -129 -266c-71.333 -56 -163 -88.667 -275 -98l-28 -79c28 -7.33301 53.667 -15.666 77 -24.999s43.5 -20.833 60.5 -34.5s30.333 -30 40 -49
s14.5 -41.833 14.5 -68.5s-5.16699 -51.167 -15.5 -73.5s-25.333 -41.5 -45 -57.5s-43.667 -28.5 -72 -37.5s-60.166 -13.5 -95.499 -13.5c-26.667 0 -51.334 2.33301 -74.001 7s-42.667 10 -60 16c-20 7.33301 -38.667 15.333 -56 24v93c18 -7.33301 37 -14 57 -20
c17.333 -5.33301 36.666 -10 57.999 -14s43 -6 65 -6c13.333 0 25.166 0.666992 35.499 2s19.166 2.66602 26.499 3.99902c8 2 15 4.33301 21 7l7 17c1.33301 5.33301 2.83301 11.666 4.5 18.999s2.5 15 2.5 23c0 26 -12.833 47.333 -38.5 64s-66.5 31.667 -122.5 45l-34 55
l38 101c-54.667 2 -106 7.66699 -154 17c-66 12 -118.667 26.667 -158 44l-21 259l117 25l82 -194c24.667 -7.33301 52.167 -13.166 82.5 -17.499s64.5 -6.5 102.5 -6.5c49.333 0 96.5 3.33301 141.5 10s86.833 16 125.5 28c6.66699 16.667 13.334 38.834 20.001 66.501
s10 60.5 10 98.5c0 42 -19.667 85.833 -59 131.5s-124.333 107.834 -255 186.501c-169.333 100 -272.833 177.333 -310.5 232s-56.5 114.334 -56.5 179.001c0 97.333 41.833 177.666 125.5 240.999s199.167 95 346.5 95c56 0 112.167 -4 168.5 -12
s110.833 -21.333 163.5 -40l21 -270l-105 -22l-82 193c-27.333 7.33301 -55.166 12.833 -83.499 16.5s-57.833 5.5 -88.5 5.5c-51.333 0 -99.333 -3.66699 -144 -11s-82.334 -16.333 -113.001 -27c-6 -20 -10.667 -41.167 -14 -63.5s-5 -45.833 -5 -70.5
c0 -47.333 19.833 -90.833 59.5 -130.5s126.5 -100.167 260.5 -181.5z" />
    <glyph glyph-name="scedilla" unicode="&#x15f;" horiz-adv-x="970" 
d="M571 621c138.667 -70.667 226.5 -131.167 263.5 -181.5s55.5 -106.5 55.5 -168.5c0 -86.667 -38.333 -157.334 -115 -212.001c-63.333 -44.667 -143.666 -70.667 -240.999 -78l-28 -79c28 -7.33301 53.667 -15.666 77 -24.999s43.5 -20.833 60.5 -34.5s30.333 -30 40 -49
s14.5 -41.833 14.5 -68.5s-5.16699 -51.167 -15.5 -73.5s-25.333 -41.5 -45 -57.5s-43.667 -28.5 -72 -37.5s-60.166 -13.5 -95.499 -13.5c-26.667 0 -51.334 2.33301 -74.001 7s-42.667 10 -60 16c-20 7.33301 -38.667 15.333 -56 24v93c18 -7.33301 37 -14 57 -20
c17.333 -5.33301 36.666 -10 57.999 -14s43 -6 65 -6c13.333 0 25.166 0.666992 35.499 2s19.166 2.66602 26.499 3.99902c8 2 15 4.33301 21 7l7 17c1.33301 5.33301 2.83301 11.666 4.5 18.999s2.5 15 2.5 23c0 26 -12.833 47.333 -38.5 64s-66.5 31.667 -122.5 45l-34 55
l39 102c-42 3.33301 -82 9.33301 -120 18c-59.333 14 -107.666 30.333 -144.999 49l-10 240l109 20l58 -187c26 -8 54.667 -13.833 86 -17.5s63 -5.5 95 -5.5c36 0 71.833 2.16699 107.5 6.5s71.834 11.5 108.501 21.5c6.66699 14 11.667 29.833 15 47.5s5 34.834 5 51.501
c0 47.333 -21.333 89.833 -64 127.5s-125.334 88.834 -248.001 153.501c-110.667 58 -185 110 -223 156s-57 98.667 -57 158c0 83.333 35 152 105 206s169.333 81 298 81c60 0 118.333 -6.16699 175 -18.5s105.334 -28.833 146.001 -49.5l9 -241l-109 -20l-59 189
c-26.667 7.33301 -55 12.5 -85 15.5s-57.667 4.5 -83 4.5c-35.333 0 -69.666 -2.5 -102.999 -7.5s-64 -11.833 -92 -20.5c-6 -10.667 -11.167 -24.5 -15.5 -41.5s-6.5 -34.5 -6.5 -52.5c0 -36 15.167 -69.833 45.5 -101.5s106.166 -79.167 227.499 -142.5z" />
    <glyph glyph-name="Scaron" unicode="&#x160;" horiz-adv-x="1066" 
d="M619 762c125.333 -73.333 216.831 -140.502 274.498 -201.502s86.5 -132.833 86.5 -215.5c0 -110 -42.833 -198.667 -128.5 -266s-200.167 -101 -343.5 -101c-80 0 -153.167 6.16699 -219.5 18.5s-119.166 27.166 -158.499 44.499l-21 259l117 25l82 -194
c24.667 -7.33301 52.167 -13.166 82.5 -17.499s64.5 -6.5 102.5 -6.5c49.333 0 96.5 3.33301 141.5 10s86.833 16 125.5 28c6.66699 16.667 13.334 38.834 20.001 66.501s10 60.5 10 98.5c0 42 -19.667 85.833 -59 131.5s-124.333 107.834 -255 186.501
c-169.333 100 -272.833 177.333 -310.5 232s-56.5 114.334 -56.5 179.001c0 97.333 41.833 177.666 125.5 240.999s199.167 95 346.5 95c56 0 112.167 -4 168.5 -12s110.833 -21.333 163.5 -40l21 -270l-105 -22l-82 193c-27.333 7.33301 -55.166 12.833 -83.499 16.5
s-57.833 5.5 -88.5 5.5c-51.333 0 -99.333 -3.66699 -144 -11s-82.334 -16.333 -113.001 -27c-6 -20 -10.667 -41.167 -14 -63.5s-5 -45.833 -5 -70.5c0 -47.333 19.833 -90.833 59.5 -130.5s126.5 -100.167 260.5 -181.5zM204.998 1784l125 10l238 -192l231 192l95 -10v-32
l-283 -292l-133 10l-273 282v32z" />
    <glyph glyph-name="scaron" unicode="&#x161;" horiz-adv-x="970" 
d="M571 621c138.667 -70.667 226.498 -131.169 263.498 -181.502s55.5 -106.5 55.5 -168.5c0 -86.667 -38.167 -157.167 -114.5 -211.5s-177.5 -81.5 -303.5 -81.5c-68 0 -131.667 7 -191 21s-107.666 30.333 -144.999 49l-10 240l109 20l58 -187
c26 -8 54.667 -13.833 86 -17.5s63 -5.5 95 -5.5c36 0 71.833 2.16699 107.5 6.5s71.834 11.5 108.501 21.5c6.66699 14 11.667 29.833 15 47.5s5 34.834 5 51.501c0 47.333 -21.333 89.833 -64 127.5s-125.334 88.834 -248.001 153.501c-110.667 58 -185 110 -223 156
s-57 98.667 -57 158c0 83.333 35 152 105 206s169.333 81 298 81c60 0 118.333 -6.16699 175 -18.5s105.334 -28.833 146.001 -49.5l9 -241l-109 -20l-59 189c-26.667 7.33301 -55 12.5 -85 15.5s-57.667 4.5 -83 4.5c-35.333 0 -69.666 -2.5 -102.999 -7.5
s-64 -11.833 -92 -20.5c-6 -10.667 -11.167 -24.5 -15.5 -41.5s-6.5 -34.5 -6.5 -52.5c0 -36 15.167 -69.833 45.5 -101.5s106.166 -79.167 227.499 -142.5zM228.998 1660l125 10l193 -252l186 252l95 -10v-32l-233 -373l-133 10l-233 363v32z" />
    <glyph glyph-name="Tcommaaccent" unicode="&#x162;" horiz-adv-x="1023" 
d="M417 1224l-279.997 0.000976562l-62 -170l-99 9l15 290h1042l14 -290l-98 -9l-63 170h-279v-1092l153 -34l-20 -98h-176l-35 -98c28 -7.33301 53.667 -15.666 77 -24.999s43.5 -20.833 60.5 -34.5s30.333 -30 40 -49s14.5 -41.833 14.5 -68.5
s-5.16699 -51.167 -15.5 -73.5s-25.333 -41.5 -45 -57.5s-43.667 -28.5 -72 -37.5s-60.166 -13.5 -95.499 -13.5c-26.667 0 -51.334 2.33301 -74.001 7s-42.667 10 -60 16c-20 7.33301 -38.667 15.333 -56 24v93c18 -7.33301 37 -14 57 -20
c17.333 -5.33301 36.666 -10 57.999 -14s43 -6 65 -6c13.333 0 25.166 0.666992 35.499 2s19.166 2.66602 26.499 3.99902c8 2 15 4.33301 21 7l7 17c1.33301 5.33301 2.83301 11.666 4.5 18.999s2.5 15 2.5 23c0 26 -12.833 47.333 -38.5 64s-66.5 31.667 -122.5 45l-34 55
l46 121h-147l-20 98l153 34v1092z" />
    </font>
</defs>
</svg>
